<svg width="40" height="40" viewBox="0 0 40 40" fill="none" xmlns="http://www.w3.org/2000/svg">
<rect x="0.629883" width="39.3755" height="39.3755" rx="19.6878" transform="rotate(0.916017 0.629883 0)" fill="#EAEAEB"/>
<path d="M19.8165 30.508C13.396 30.508 11.3179 25.3443 11.3179 22.8423C11.3179 21.1193 11.8664 19.9915 12.2409 19.4176C12.2409 20.3084 12.469 21.0954 12.8752 21.5481C12.9809 21.6768 13.1129 21.781 13.2622 21.8534C13.4116 21.9258 13.5746 21.9647 13.7402 21.9675C14.4549 21.9675 14.9349 21.4349 14.9349 20.636C14.9349 20.138 14.6329 19.8011 14.3138 19.4442C13.9275 19.0128 13.5226 18.5654 13.5226 17.7372C13.5226 16.7332 14.1239 15.7825 14.5274 15.2579C14.5274 16.9756 15.6694 17.6973 16.334 17.8411L16.5977 17.8997L16.5581 17.6333C16.5581 17.6174 16.3379 15.9516 17.6381 14.3191C17.8016 14.1141 17.9744 13.9064 18.1471 13.6986C19.0556 12.6055 19.9932 11.4763 19.9932 10.2779C19.9891 9.59916 19.8487 8.9283 19.5805 8.30591C22.3918 9.86381 22.3496 12.0342 22.0556 13.2233C21.9804 13.5295 21.6323 15.0941 22.2112 15.8438C22.3132 15.9747 22.4446 16.0792 22.5946 16.1487C22.7445 16.2181 22.9087 16.2506 23.0735 16.2432C23.6828 16.2432 24.1706 15.8691 24.4832 15.1607C24.5731 14.9528 24.6441 14.7371 24.6955 14.5162C26.0655 16.0808 25.7214 17.5042 25.1675 18.4443C24.6599 19.3044 24.5161 20.1872 24.801 20.6946C24.8828 20.8384 25.0032 20.9561 25.1483 21.0341C25.2933 21.112 25.4572 21.1471 25.6212 21.1353C25.7745 21.1382 25.9266 21.1073 26.0669 21.0447C26.2072 20.9822 26.3322 20.8895 26.4334 20.7731C26.8739 20.2791 26.9609 19.3737 26.9609 18.7638C27.5134 19.5428 28.1885 20.7412 28.1885 22.4216C28.1885 23.7531 27.7072 25.7904 26.3596 27.516C25.2954 28.8809 23.2938 30.508 19.8165 30.508Z" fill="#8D83FF"/>
</svg>
