<svg width="40" height="40" viewBox="0 0 40 40" fill="none" xmlns="http://www.w3.org/2000/svg">
<rect width="40" height="40" rx="20" fill="#EAEAEB"/>
<g opacity="0.01">
<path d="M15.9258 31.1104C18.0509 30.5683 19.1421 30.3724 19.9999 31.1104C20.9301 30.3004 22.002 30.5142 24.0739 31.1104C21.6665 31.6666 21.5319 31.2919 19.9999 31.1104C18.6517 31.5258 18.6665 31.6666 15.9258 31.1104Z" fill="#DA3C3C"/>
<path d="M19.9999 31.1104C19.1421 30.3724 18.0509 30.5683 15.9258 31.1104C18.6665 31.6666 18.6517 31.5258 19.9999 31.1104ZM19.9999 31.1104C20.9301 30.3004 22.002 30.5142 24.0739 31.1104C21.6665 31.6666 21.5319 31.2919 19.9999 31.1104Z" stroke="#DA3C3C" stroke-width="0.740741" stroke-linecap="round"/>
</g>
<g clip-path="url(#clip0_1030_5935)">
<path d="M26.9101 19.2229H14.46V20.9485H26.9101V19.2229Z" fill="#3C3BED"/>
<path d="M15.7623 17.4566C17.1961 14.3481 15.155 12.3071 12.0465 13.7409C10.8622 10.5289 7.97558 10.5289 6.79129 13.7409C3.68316 12.3084 1.64167 14.3494 3.07549 17.4566C-0.136493 18.6409 -0.136493 21.5275 3.07549 22.7118C1.64167 25.8203 3.68273 27.8613 6.79129 26.4275C7.97558 29.6395 10.8622 29.6395 12.0465 26.4275C15.155 27.8613 17.1961 25.8203 15.7623 22.7118C18.9742 21.5288 18.9742 18.6422 15.7623 17.4566Z" fill="#3C3BED"/>
<path d="M9.46026 24.8111C12.0474 24.8111 14.1446 23.3761 14.1446 21.606C14.1446 19.8359 12.0474 18.4009 9.46026 18.4009C6.87315 18.4009 4.77588 19.8359 4.77588 21.606C4.77588 23.3761 6.87315 24.8111 9.46026 24.8111Z" fill="#F9F9FA"/>
<path d="M36.9238 17.4566C38.358 14.3481 36.317 12.3071 33.208 13.7409C32.0241 10.5289 29.1375 10.5289 27.9532 13.7409C24.8447 12.3071 22.8032 14.3481 24.2374 17.4566C21.025 18.6409 21.025 21.5275 24.2374 22.7118C22.8032 25.8203 24.8447 27.8613 27.9532 26.4275C29.1375 29.6395 32.0241 29.6395 33.208 26.4275C36.317 27.8613 38.358 25.8203 36.9238 22.7118C40.1362 21.5288 40.1362 18.6422 36.9238 17.4566Z" fill="#3C3BED"/>
<path d="M30.4988 24.8111C33.0859 24.8111 35.1832 23.3761 35.1832 21.606C35.1832 19.8359 33.0859 18.4009 30.4988 18.4009C27.9117 18.4009 25.8145 19.8359 25.8145 21.606C25.8145 23.3761 27.9117 24.8111 30.4988 24.8111Z" fill="#F9F9FA"/>
<circle cx="28.9371" cy="21.6881" r="1.64364" fill="#09090A"/>
<circle cx="7.73446" cy="21.6881" r="1.64364" fill="#09090A"/>
</g>
<defs>
<clipPath id="clip0_1030_5935">
<rect width="38.6667" height="17.5048" fill="white" transform="translate(0.666504 11.3334)"/>
</clipPath>
</defs>
</svg>
