<svg width="180" height="180" viewBox="0 0 180 180" fill="none" xmlns="http://www.w3.org/2000/svg">
<g filter="url(#filter0_d_1118_24415)">
<path d="M169.4 89.7136C169.4 96.4486 159.715 101.82 158.054 108.026C156.336 114.453 161.988 123.938 158.733 129.565C155.431 135.273 144.353 135.099 139.728 139.732C135.102 144.364 135.269 155.435 129.56 158.737C123.933 161.992 114.449 156.341 108.021 158.058C101.811 159.719 96.4393 169.404 89.7082 169.404C82.9771 169.404 77.6012 159.719 71.3951 158.058C64.9678 156.341 55.4829 161.992 49.856 158.737C44.1478 155.435 44.3214 144.358 39.6889 139.732C35.0563 135.106 23.9857 135.273 20.6839 129.565C17.4282 123.938 23.0809 114.453 21.3622 108.026C19.7031 101.816 10.0161 96.4445 10.0161 89.7136C10.0161 82.9826 19.7031 77.6068 21.3622 71.4007C23.0809 64.9736 17.4282 55.4889 20.6839 49.8621C23.9857 44.154 35.0631 44.3276 39.6889 39.6952C44.3147 35.0627 44.1478 23.9923 49.856 20.6905C55.4829 17.4349 64.9678 23.0875 71.3951 21.3688C77.6053 19.7098 82.9785 10.0229 89.7082 10.0229C96.438 10.0229 101.815 19.7098 108.021 21.3688C114.449 23.0875 123.933 17.4349 129.56 20.6905C135.269 23.9936 135.095 35.0695 139.728 39.6965C144.36 44.3235 155.431 44.154 158.733 49.8621C161.988 55.4889 156.336 64.9736 158.054 71.4007C159.715 77.6068 169.4 82.9799 169.4 89.7136Z" fill="#BEED3B"/>
</g>
<path d="M52.2155 133.004L52.1352 133.077C49.3766 135.554 45.6309 135.483 43.2461 132.835L43.1859 132.768C40.8012 130.119 41.1143 126.378 43.8729 123.9L43.9532 123.828C46.7118 121.35 50.4562 121.447 52.8409 124.095L52.9012 124.162C55.2859 126.811 54.9607 130.539 52.2155 133.004ZM50.8907 131.533C52.9395 129.693 53.2148 127.147 51.5647 125.314L51.5166 125.261C49.8906 123.455 47.3269 123.459 45.2781 125.299L45.1977 125.372C43.1489 127.212 42.8482 129.756 44.4982 131.589L44.5464 131.643C46.1844 133.462 48.7615 133.446 50.8103 131.605L50.8907 131.533Z" fill="#09090A"/>
<path d="M45.0104 113.891L35.2438 118.667L36.867 121.961L35.3147 122.72L31.2327 114.437L32.785 113.678L34.4083 116.972L44.1749 112.196L45.0104 113.891Z" fill="#09090A"/>
<path d="M40.8678 104.998L28.5393 107.6L27.6344 103.394C27.0741 100.79 28.2491 98.7207 30.662 98.2115L30.7676 98.1892C33.1981 97.6763 35.1328 99.0525 35.6932 101.657L36.2043 104.032L40.4665 103.133L40.8678 104.998ZM34.6092 104.406L34.1132 102.101C33.7687 100.499 32.656 99.7775 31.1942 100.086L31.1061 100.105C29.6619 100.409 28.9782 101.51 29.3189 103.094L29.8187 105.417L34.6092 104.406Z" fill="#09090A"/>
<path d="M38.3012 92.3263L25.7248 91.5555L25.8332 89.6686L35.3733 90.2533L35.3825 90.0916L26.1654 83.8821L26.2882 81.7437L38.8646 82.5145L38.7563 84.4014L28.9826 83.8023L28.9733 83.9641L38.4168 90.3136L38.3012 92.3263Z" fill="#09090A"/>
<path d="M39.2566 77.5541L27.5522 72.8885L28.5792 70.2944L37.6031 70.1904L37.6495 70.0732L31.1566 63.784L32.1836 61.1899L43.888 65.8555L43.1989 67.596L33.6849 63.8036L33.6452 63.904L40.2285 70.3068L39.6455 71.7796L30.4715 71.9206L30.4317 72.0211L39.9457 75.8135L39.2566 77.5541Z" fill="#09090A"/>
<path d="M45.4705 62.4104L38.6636 50.8779L40.3176 48.8822L52.9021 53.4437L51.5927 55.0236L48.3213 53.8087L44.9903 57.8278L46.7914 60.8166L45.4705 62.4104ZM44.0484 56.3692L46.7017 53.1678L40.9249 50.9986L40.8559 51.0817L44.0484 56.3692Z" fill="#09090A"/>
<path d="M57.571 49.3794L51.1961 40.5725L48.2173 42.7197L47.2041 41.3199L54.6948 35.9204L55.7081 37.3201L52.7293 39.4673L59.1042 48.2742L57.571 49.3794Z" fill="#09090A"/>
<path d="M65.4963 43.8382L61.0361 32.0541L62.806 31.3912L66.1894 40.3303L66.3411 40.2735L68.2339 29.3585L70.2399 28.6073L74.7001 40.3915L72.9301 41.0543L69.4639 31.8963L69.3122 31.9531L67.3842 43.1312L65.4963 43.8382Z" fill="#09090A"/>
<path d="M86.928 38.1519L87.7423 25.5782L89.6458 25.7089L89.291 31.1874L89.3808 31.1935L94.8716 26.0674L97.1701 26.2252L91.2107 31.6258L96.8766 38.8346L94.4343 38.667L89.3226 32.0917L89.2328 32.0855L88.8315 38.2825L86.928 38.1519Z" fill="#09090A"/>
<path d="M102.124 33.12L102.162 33.0189C103.462 29.546 106.812 27.8852 110.147 29.1424L110.231 29.1742C113.566 30.4314 115.016 33.902 113.716 37.3748L113.679 37.476C112.379 40.9488 109.018 42.5864 105.683 41.3292L105.599 41.2974C102.264 40.0402 100.831 36.576 102.124 33.12ZM103.977 33.8185C103.012 36.3978 103.943 38.7881 106.251 39.658L106.318 39.6834C108.592 40.5406 110.861 39.3568 111.826 36.7775L111.864 36.6763C112.829 34.097 111.921 31.6962 109.613 30.8263L109.546 30.8009C107.255 29.9374 104.98 31.138 104.015 33.7173L103.977 33.8185Z" fill="#09090A"/>
<path d="M115.32 45.173L123.017 35.1974L124.527 36.3633L121.295 40.5531L125.883 44.095L129.115 39.9052L130.626 41.0711L122.929 51.0468L121.418 49.8808L124.827 45.463L120.239 41.9212L116.83 46.339L115.32 45.173Z" fill="#09090A"/>
<path d="M129.931 58.9792C127.798 56.0565 128.547 52.4416 131.547 50.2619L131.605 50.2196C134.605 48.0399 138.304 48.4673 140.415 51.3609L140.426 51.3754C141.709 53.1349 141.836 55.2014 141.102 56.9137L139.37 56.2809C139.972 54.9982 139.896 53.6735 139.005 52.452C137.488 50.3727 135 50.2002 132.772 51.8191L132.714 51.8614C130.486 53.4803 129.912 55.9 131.419 57.9648C132.331 59.2153 133.614 59.7517 134.996 59.5702L135.036 61.3657C133.214 61.5552 131.225 60.7532 129.941 58.9938L129.931 58.9792Z" fill="#09090A"/>
<path d="M135.523 68.1114C135.363 67.6912 135.253 67.0013 135.294 66.5046L136.826 65.9244C136.769 66.3308 136.815 66.8525 136.982 67.2896C137.201 67.8612 137.602 68.3058 138.221 68.3603L146.221 60.3071L146.948 62.2067L140.529 68.4486L140.587 68.5999L149.283 68.3091L149.984 70.1415L138.871 70.2119C137.098 70.21 136.103 69.6244 135.523 68.1114Z" fill="#09090A"/>
<path d="M139.277 78.0627C139.242 77.6863 139.282 77.3395 139.358 76.9894L141.026 76.8424C140.961 77.1192 140.93 77.3749 140.958 77.6796C141.096 79.1673 142.672 79.209 148.025 78.8455L152.158 78.5716L152.9 86.6194L140.349 87.7259L140.173 85.8259L151.003 84.8712L150.605 80.5515L148.016 80.7075C141.711 81.1368 139.539 80.9126 139.277 78.0627Z" fill="#09090A"/>
<path d="M140.474 93.1338L152.865 95.4158L152.526 97.2934L148.047 96.4687L147.577 99.0725C147.113 101.641 145.281 103.079 142.908 102.642L142.838 102.629C140.448 102.189 139.194 100.219 139.661 97.6331L140.474 93.1338ZM141.823 95.2857L141.375 97.7656C141.084 99.3775 141.746 100.47 143.18 100.734L143.268 100.75C144.685 101.011 145.686 100.225 145.981 98.5955L146.425 96.1333L141.823 95.2857Z" fill="#09090A"/>
<path d="M136.936 107.904L146.826 112.42L148.344 109.077L149.916 109.794L146.097 118.202L144.525 117.484L146.044 114.141L136.154 109.625L136.936 107.904Z" fill="#09090A"/>
<path d="M133.877 115.347L140.817 126.8L139.186 128.815L126.551 124.4L127.841 122.804L131.127 123.982L134.411 119.924L132.575 116.956L133.877 115.347ZM135.369 121.372L132.753 124.604L138.555 126.706L138.623 126.622L135.369 121.372Z" fill="#09090A"/>
<path d="M114.851 130.659L116.23 132.659L123.62 127.585L130.775 137.956L129.202 139.036L123.028 130.087L118.443 133.236L124.617 142.185L123.044 143.265L116.87 134.316L115.713 135.111L113.352 131.688L114.851 130.659Z" fill="#09090A"/>
<path d="M111.047 135.42L115.809 147.085L114.04 147.8L109.278 136.135L111.047 135.42Z" fill="#09090A"/>
<path d="M95.0273 139.585C98.2973 139.189 101.014 141.326 101.66 144.602L103.501 144.379L102.805 138.824L104.699 138.594L106.266 151.097L104.372 151.326L103.711 146.057L101.835 146.285C101.874 149.489 99.8196 152.059 96.6389 152.445L96.5852 152.451C93.1365 152.869 90.2968 150.476 89.8492 146.904L89.8089 146.582C89.3612 143.01 91.5249 140.01 94.9558 139.594L95.0273 139.585ZM99.8202 145.695L99.7799 145.374C99.4508 142.748 97.5875 141.052 95.2466 141.336L95.193 141.342C92.8522 141.626 91.4454 143.718 91.7745 146.344L91.8148 146.665C92.1438 149.291 94.0094 151.005 96.3681 150.719L96.4039 150.715C98.7626 150.429 100.149 148.32 99.8202 145.695Z" fill="#09090A"/>
<path d="M84.2672 143.53L83.8666 147.982L83.2572 152.368L81.3148 152.091L81.9243 147.705L82.7526 143.314L84.2672 143.53ZM84.054 139.573C84.7133 139.667 85.1607 140.24 85.074 140.864L85.0641 140.935C84.9798 141.541 84.3937 141.967 83.7343 141.873C83.075 141.778 82.592 141.201 82.6762 140.594L82.6861 140.523C82.7728 139.899 83.3946 139.479 84.054 139.573Z" fill="#09090A"/>
<defs>
<filter id="filter0_d_1118_24415" x="10.0161" y="10.0229" width="164.174" height="169.178" filterUnits="userSpaceOnUse" color-interpolation-filters="sRGB">
<feFlood flood-opacity="0" result="BackgroundImageFix"/>
<feColorMatrix in="SourceAlpha" type="matrix" values="0 0 0 0 0 0 0 0 0 0 0 0 0 0 0 0 0 0 127 0" result="hardAlpha"/>
<feOffset dx="4.78936" dy="9.79642"/>
<feComposite in2="hardAlpha" operator="out"/>
<feColorMatrix type="matrix" values="0 0 0 0 0 0 0 0 0 0 0 0 0 0 0 0 0 0 0.5 0"/>
<feBlend mode="normal" in2="BackgroundImageFix" result="effect1_dropShadow_1118_24415"/>
<feBlend mode="normal" in="SourceGraphic" in2="effect1_dropShadow_1118_24415" result="shape"/>
</filter>
</defs>
</svg>
