<svg width="165" height="170" viewBox="0 0 165 170" fill="none" xmlns="http://www.w3.org/2000/svg">
<g filter="url(#filter0_d_1118_24399)">
<path d="M159.384 79.6906C159.384 86.4257 149.699 91.7974 148.038 98.0034C146.319 104.431 151.972 113.915 148.716 119.542C145.415 125.25 134.337 125.077 129.711 129.709C125.086 134.341 125.253 145.412 119.544 148.714C113.917 151.969 104.433 146.318 98.0053 148.035C91.7951 149.696 86.4232 159.381 79.6921 159.381C72.961 159.381 67.5851 149.696 61.379 148.035C54.9517 146.318 45.4668 151.969 39.8399 148.714C34.1317 145.412 34.3053 134.335 29.6728 129.709C25.0402 125.083 13.9696 125.25 10.6678 119.542C7.4121 113.915 13.0648 104.431 11.346 98.0034C9.687 91.7934 0 86.4216 0 79.6906C0 72.9596 9.687 67.5838 11.346 61.3778C13.0648 54.9507 7.4121 45.466 10.6678 39.8392C13.9696 34.131 25.047 34.3047 29.6728 29.6722C34.2985 25.0398 34.1317 13.9693 39.8399 10.6676C45.4668 7.41196 54.9517 13.0645 61.379 11.3458C67.5892 9.68682 72.9624 0 79.6921 0C86.4219 0 91.7992 9.68682 98.0053 11.3458C104.433 13.0645 113.917 7.41196 119.544 10.6676C125.253 13.9707 125.079 25.0465 129.711 29.6735C134.344 34.3006 145.415 34.131 148.716 39.8392C151.972 45.466 146.319 54.9507 148.038 61.3778C149.699 67.5838 159.384 72.9569 159.384 79.6906Z" fill="#BEED3B"/>
</g>
<defs>
<filter id="filter0_d_1118_24399" x="0" y="0" width="164.174" height="169.178" filterUnits="userSpaceOnUse" color-interpolation-filters="sRGB">
<feFlood flood-opacity="0" result="BackgroundImageFix"/>
<feColorMatrix in="SourceAlpha" type="matrix" values="0 0 0 0 0 0 0 0 0 0 0 0 0 0 0 0 0 0 127 0" result="hardAlpha"/>
<feOffset dx="4.78936" dy="9.79642"/>
<feComposite in2="hardAlpha" operator="out"/>
<feColorMatrix type="matrix" values="0 0 0 0 0 0 0 0 0 0 0 0 0 0 0 0 0 0 0.5 0"/>
<feBlend mode="normal" in2="BackgroundImageFix" result="effect1_dropShadow_1118_24399"/>
<feBlend mode="normal" in="SourceGraphic" in2="effect1_dropShadow_1118_24399" result="shape"/>
</filter>
</defs>
</svg>
