<svg width="180" height="180" viewBox="0 0 180 180" fill="none" xmlns="http://www.w3.org/2000/svg">
<g filter="url(#filter0_d_1030_5963)">
<path d="M155.847 76.2597C156.992 81.8492 149.868 87.9547 149.545 93.3876C149.212 99.0138 155.517 105.924 153.772 111.147C152.002 116.446 142.78 118.186 139.729 122.818C136.678 127.449 138.699 136.608 134.523 140.319C130.407 143.978 121.574 140.901 116.532 143.42C111.661 145.854 108.85 154.806 103.264 155.951C97.6776 157.095 91.5687 149.972 86.1358 149.649C80.5096 149.317 73.5992 155.621 68.3756 153.876C63.0767 152.107 61.3367 142.884 56.7053 139.833C52.0739 136.782 42.9146 138.803 39.2035 134.628C35.5446 130.512 38.6226 121.679 36.103 116.637C33.6699 111.766 24.7169 108.955 23.572 103.369C22.4271 97.7829 29.5521 91.6738 29.8734 86.2412C30.2066 80.6149 23.9022 73.7049 25.6471 68.4814C27.4164 63.1825 36.6392 61.4425 39.6903 56.8112C42.7413 52.1799 40.7199 43.0208 44.8956 39.3097C49.0117 35.6508 57.8448 38.7286 62.8865 36.2091C67.7582 33.776 70.5699 24.8228 76.155 23.6782C81.7401 22.5335 87.8504 29.6581 93.2831 29.9794C98.9095 30.3125 105.82 24.0082 111.043 25.753C116.342 27.5233 118.082 36.7448 122.714 39.7969C127.345 42.849 136.504 40.8253 140.215 45.001C143.874 49.117 140.796 57.9499 143.316 62.9915C145.749 67.8595 154.702 70.6713 155.847 76.2597Z" fill="#C0ED3B"/>
</g>
<circle cx="90.8867" cy="89.8723" r="30.4978" transform="rotate(-11.5822 90.8867 89.8723)" fill="#191A1F"/>
<path d="M93.4758 110.085C88.5207 110.881 83.6861 109.977 79.8598 107.534C75.8962 105.004 73.2868 100.964 72.5149 96.1585C72.4483 95.7414 72.7312 95.3525 73.1469 95.2839C73.564 95.2173 73.9529 95.5002 74.0215 95.9159C75.4528 104.813 83.533 110.139 93.2366 108.579C102.94 107.02 108.943 99.4298 107.514 90.5314C107.447 90.1143 107.73 89.7254 108.146 89.6568C108.563 89.5902 108.952 89.8731 109.02 90.2888C109.792 95.0942 108.582 99.7479 105.611 103.392C102.743 106.909 98.4349 109.287 93.4798 110.082L93.4758 110.085Z" fill="#F9F9FA"/>
<g clip-path="url(#clip0_1030_5963)">
<path fill-rule="evenodd" clip-rule="evenodd" d="M78.1123 84.6659L83.1311 87.9774C83.2975 88.083 83.4987 88.1191 83.6914 88.0779C83.8841 88.0367 84.0529 87.9214 84.1614 87.7569C84.27 87.5924 84.3096 87.3918 84.2717 87.1985C84.2338 87.0051 84.1215 86.8343 83.9589 86.7229L78.94 83.4114L82.2516 78.3926C82.3573 78.2263 82.3934 78.0251 82.3521 77.8324C82.3109 77.6397 82.1956 77.4709 82.0311 77.3623C81.8666 77.2538 81.6661 77.2142 81.4727 77.2521C81.2793 77.29 81.1085 77.4023 80.9971 77.5649L77.6855 82.5837L72.6667 79.2722C72.5004 79.17 72.3008 79.1365 72.1103 79.1788C71.9197 79.2211 71.753 79.3358 71.6456 79.4988C71.5381 79.6618 71.4983 79.8601 71.5345 80.0519C71.5708 80.2438 71.6802 80.4139 71.8396 80.5265L76.8578 83.8382L73.5462 88.857C73.4898 88.9393 73.4503 89.032 73.4302 89.1298C73.41 89.2275 73.4095 89.3283 73.4287 89.4262C73.4478 89.5242 73.4863 89.6173 73.5419 89.7002C73.5975 89.7831 73.669 89.8541 73.7523 89.9091C73.8356 89.964 73.929 90.0018 74.0271 90.0203C74.1252 90.0388 74.2259 90.0376 74.3235 90.0167C74.4211 89.9958 74.5136 89.9557 74.5955 89.8987C74.6774 89.8417 74.7472 89.7689 74.8007 89.6847L78.1123 84.6659Z" fill="#F9F9FA"/>
</g>
<g clip-path="url(#clip1_1030_5963)">
<path fill-rule="evenodd" clip-rule="evenodd" d="M98.5737 80.4704L103.593 83.7819C103.759 83.8875 103.96 83.9236 104.153 83.8824C104.346 83.8412 104.514 83.7259 104.623 83.5614C104.731 83.3969 104.771 83.1964 104.733 83.003C104.695 82.8096 104.583 82.6388 104.42 82.5274L99.4014 79.2159L102.713 74.1971C102.819 74.0308 102.855 73.8296 102.814 73.6369C102.772 73.4442 102.657 73.2754 102.493 73.1668C102.328 73.0583 102.127 73.0187 101.934 73.0566C101.741 73.0945 101.57 73.2068 101.459 73.3694L98.1469 78.3882L93.1281 75.0767C92.9618 74.9745 92.7622 74.941 92.5717 74.9833C92.3811 75.0256 92.2145 75.1403 92.107 75.3033C91.9996 75.4663 91.9597 75.6646 91.996 75.8564C92.0322 76.0483 92.1416 76.2185 92.3011 76.331L97.3192 79.6427L94.0076 84.6615C93.9512 84.7438 93.9118 84.8365 93.8916 84.9343C93.8714 85.032 93.8709 85.1328 93.8901 85.2307C93.9093 85.3287 93.9478 85.4218 94.0033 85.5047C94.0589 85.5876 94.1304 85.6586 94.2137 85.7136C94.297 85.7685 94.3904 85.8063 94.4885 85.8248C94.5866 85.8433 94.6874 85.8421 94.7849 85.8212C94.8825 85.8003 94.975 85.7602 95.0569 85.7032C95.1388 85.6462 95.2086 85.5734 95.2621 85.4892L98.5737 80.4704Z" fill="#F9F9FA"/>
</g>
<path d="M135.355 97.7999C135.48 97.0337 136.098 96.5502 136.843 96.6716C137.587 96.793 138.041 97.4515 137.917 98.2177C137.788 99.0057 137.144 99.5075 136.4 99.3861C135.656 99.2647 135.227 98.588 135.355 97.7999Z" fill="#191A1F"/>
<path d="M126.817 109.947L136.502 116.413L134.23 119.816C132.955 121.725 131.114 122.356 129.647 121.377L129.578 121.331C128.748 120.777 128.31 119.964 128.302 118.899C127.166 119.641 125.93 119.635 124.864 118.924L124.795 118.878C123.135 117.769 122.929 115.772 124.259 113.779L126.817 109.947ZM131.414 115.076L130.065 117.096C129.354 118.161 129.501 119.139 130.373 119.721L130.442 119.767C131.244 120.303 132.181 120.068 132.901 118.989L134.25 116.969L131.414 115.076ZM127.18 112.249L125.619 114.588C124.843 115.75 124.94 116.834 125.853 117.444L125.908 117.481C126.835 118.099 127.882 117.759 128.649 116.61L130.21 114.272L127.18 112.249Z" fill="#191A1F"/>
<path d="M120.936 118.154L128.927 126.624L123.833 131.43L122.738 130.268L126.549 126.672L124.254 124.24L120.685 127.608L119.623 126.483L123.193 123.115L120.75 120.526L116.817 124.236L115.721 123.074L120.936 118.154Z" fill="#191A1F"/>
<path d="M114.467 124L120.352 134.047L113.721 137.932L112.914 136.554L118.024 133.56L116.561 131.063L114.25 132.417C112.183 133.627 110.107 133.243 109.031 131.406L108.989 131.334C107.904 129.483 108.567 127.455 110.649 126.236L114.467 124ZM113.773 126.238L111.505 127.566C110.27 128.289 109.917 129.364 110.539 130.426L110.589 130.512C111.203 131.56 112.351 131.775 113.556 131.068L115.824 129.74L113.773 126.238Z" fill="#191A1F"/>
<path d="M97.4043 130.816C100.691 130.202 103.412 132.266 104.041 135.634L104.053 135.7C104.683 139.068 102.858 141.982 99.6034 142.589L99.587 142.592C97.6084 142.962 95.8329 142.244 94.6944 140.951L95.9102 139.759C96.7424 140.771 97.8784 141.236 99.252 140.98C101.59 140.543 102.722 138.538 102.255 136.036L102.242 135.97C101.775 133.468 99.9827 132.026 97.6607 132.46C96.2544 132.723 95.2973 133.578 94.9 134.803L93.385 134.122C93.9502 132.527 95.4093 131.188 97.388 130.819L97.4043 130.816Z" fill="#191A1F"/>
<path d="M92.9657 131.852L88.0195 143.197L85.6292 143.04L82.2259 131.146L84.1182 131.271L84.9811 134.378L89.7949 134.694L91.0568 131.726L92.9657 131.852ZM89.2132 136.19L85.3788 135.938L86.8847 141.438L86.9843 141.445L89.2132 136.19Z" fill="#191A1F"/>
<path d="M75.1295 144.209L73.7423 143.741C73.9601 143.095 73.6203 142.489 72.8951 142.244C72.1858 142.005 71.5641 142.287 71.3462 142.934L69.959 142.466C70.4054 141.142 71.7276 140.604 73.2882 141.13C74.8488 141.657 75.5758 142.885 75.1295 144.209ZM81.5396 130.921L77.82 141.956L76.1648 141.398L78.9864 133.027L78.8445 132.98L71.0889 139.687L69.213 139.055L72.9326 128.02L74.5878 128.578L71.6971 137.153L71.839 137.201L79.7741 130.326L81.5396 130.921Z" fill="#191A1F"/>
<path d="M69.1325 125.742L63.8011 134.258L66.6776 136.059L65.8302 137.412L58.5967 132.884L59.4441 131.531L62.3206 133.331L67.6519 124.815L69.1325 125.742Z" fill="#191A1F"/>
<path d="M61.3024 120.198L52.1156 127.353L50.5312 125.319L54.6683 118.069L54.5968 117.978L46.5548 120.214L44.9704 118.18L54.1572 111.024L55.2203 112.389L47.7528 118.206L47.8141 118.284L55.9888 116.029L56.8883 117.184L52.7105 124.571L52.7718 124.649L60.2393 118.833L61.3024 120.198Z" fill="#191A1F"/>
<path d="M53.5829 109.104L43.109 114.193L42.3385 112.607L52.8123 107.518L53.5829 109.104Z" fill="#191A1F"/>
<path d="M51.6953 105.547L40.4446 108.55L39.9297 106.622L47.1171 99.2968L47.0785 99.1522L38.544 101.43L38.1021 99.7748L49.3529 96.7717L49.8334 98.5718L42.4671 106.065L42.5057 106.21L51.2491 103.876L51.6953 105.547Z" fill="#191A1F"/>
<path d="M49.064 94.3977L37.4198 94.3078L37.4485 90.5817C37.4758 87.0551 39.8232 84.6611 43.0337 84.6858L43.3664 84.6884C46.71 84.7142 49.12 87.145 49.0928 90.6716L49.064 94.3977ZM47.4807 92.6221L47.496 90.6426C47.5157 88.0975 45.7808 86.5536 43.3189 86.5346L43.0195 86.5323C40.7073 86.5144 39.0651 88.0489 39.0456 90.5774L39.0303 92.5569L47.4807 92.6221Z" fill="#191A1F"/>
<path d="M50.2828 80.0425L39.2482 76.3229L39.8115 74.6519L49.3328 77.8615L50.9481 73.0693L52.4615 73.5794L50.2828 80.0425Z" fill="#191A1F"/>
<path d="M52.2267 73.632L44.474 63.9848L45.7226 61.9405L57.8367 64.4467L56.8482 66.0651L53.6953 65.3869L51.1807 69.504L53.2238 71.9993L52.2267 73.632ZM50.1261 68.2946L52.1291 65.0151L46.5582 63.7958L46.5062 63.881L50.1261 68.2946Z" fill="#191A1F"/>
<path d="M58.4069 63.9549L50.2029 55.6911L53.107 52.8079C54.7362 51.1906 56.6662 50.9388 57.9086 52.1902L57.9672 52.2492C58.6704 52.9575 58.9377 53.8407 58.7339 54.8869C59.9944 54.3857 61.2051 54.6371 62.1075 55.5461L62.1661 55.6051C63.5725 57.0218 63.377 59.0208 61.677 60.7085L58.4069 63.9549ZM54.9232 58.0137L56.6468 56.3026C57.5558 55.4002 57.6064 54.4123 56.8681 53.6685L56.8095 53.6095C56.1297 52.9248 55.165 52.9683 54.2441 53.8825L52.5205 55.5936L54.9232 58.0137ZM58.5095 61.6262L60.5046 59.6455C61.4963 58.6611 61.6178 57.5793 60.8443 56.8001L60.7974 56.7529C60.0122 55.962 58.9178 56.0874 57.9379 57.0601L55.9428 59.0408L58.5095 61.6262Z" fill="#191A1F"/>
<path d="M71.1417 48.9343C70.4372 49.2605 69.6903 49.0198 69.3734 48.3355C69.0565 47.6511 69.3467 46.9056 70.0512 46.5794C70.7757 46.2439 71.5522 46.4954 71.8691 47.1797C72.186 47.864 71.8663 48.5987 71.1417 48.9343Z" fill="#191A1F"/>
<path d="M85.3192 49.2413L85.0495 37.5997L89.1407 37.505C91.4357 37.4518 93.0098 38.5968 93.0506 40.3596L93.0525 40.4428C93.0756 41.4406 92.6621 42.2656 91.7945 42.8847C93.0542 43.388 93.7599 44.4033 93.7896 45.6838L93.7915 45.767C93.8377 47.7627 92.3207 49.0791 89.9259 49.1345L85.3192 49.2413ZM86.8777 42.5327L89.3058 42.4764C90.5863 42.4467 91.3027 41.7646 91.2784 40.7168L91.2765 40.6337C91.2542 39.6691 90.524 39.0371 89.2268 39.0671L86.7987 39.1234L86.8777 42.5327ZM86.9956 47.6217L89.8062 47.5566C91.2031 47.5242 92.0355 46.8227 92.0101 45.7251L92.0086 45.6585C91.9827 44.5443 91.1022 43.8825 89.7218 43.9144L86.9112 43.9795L86.9956 47.6217Z" fill="#191A1F"/>
<path d="M95.3216 49.294L97.6778 37.8902L104.536 39.3073L104.213 40.8713L99.0816 39.8109L98.405 43.0855L103.211 44.0784L102.898 45.5935L98.0919 44.6005L97.3716 48.0868L102.666 49.1808L102.343 50.7447L95.3216 49.294Z" fill="#191A1F"/>
<path d="M103.901 51.2138L108.795 40.6472L115.769 43.8768L115.097 45.326L109.724 42.8374L108.507 45.4639L110.938 46.5894C113.111 47.596 113.98 49.52 113.085 51.4522L113.05 51.5276C112.149 53.4749 110.105 54.0869 107.917 53.0733L103.901 51.2138ZM106.135 50.5068L108.52 51.6113C109.818 52.2125 110.903 51.8897 111.42 50.7727L111.462 50.6821C111.972 49.5801 111.494 48.5153 110.226 47.9281L107.841 46.8236L106.135 50.5068Z" fill="#191A1F"/>
<path d="M119.327 61.304C116.937 58.9656 117.064 55.5528 119.461 53.1034L119.507 53.0558C121.904 50.6064 125.337 50.4278 127.703 52.743L127.715 52.7546C129.154 54.1623 129.586 56.028 129.181 57.7029L127.507 57.3917C127.858 56.1292 127.586 54.9323 126.587 53.955C124.887 52.2914 122.595 52.5163 120.815 54.3356L120.769 54.3831C118.989 56.2023 118.837 58.4979 120.526 60.1499C121.548 61.1504 122.798 61.4426 124.03 61.0646L124.341 62.6963C122.711 63.1493 120.777 62.7234 119.339 61.3157L119.327 61.304Z" fill="#191A1F"/>
<path d="M122.616 64.1408L134.739 61.6488L135.987 63.6931L128.226 73.3261L127.237 71.7077L129.28 69.2123L126.766 65.0953L123.613 65.7734L122.616 64.1408ZM128.324 64.7092L130.326 67.9887L133.955 63.5893L133.903 63.5041L128.324 64.7092Z" fill="#191A1F"/>
<path d="M143.08 71.7394L143.495 73.1432C142.841 73.3365 142.54 73.9631 142.757 74.6969C142.969 75.4148 143.557 75.7614 144.211 75.5681L144.626 76.9719C143.286 77.368 142.086 76.5951 141.62 75.0157C141.153 73.4364 141.74 72.1354 143.08 71.7394ZM128.522 74.1337L139.69 70.8332L140.185 72.5083L131.714 75.0119L131.756 75.1555L141.703 77.6452L142.264 79.5436L131.097 82.844L130.602 81.1689L139.28 78.604L139.238 78.4604L129.051 75.9204L128.522 74.1337Z" fill="#191A1F"/>
<path d="M131.433 87.1983L141.466 86.6557L141.282 83.2671L142.877 83.1809L143.338 91.7023L141.743 91.7885L141.56 88.3999L131.527 88.9424L131.433 87.1983Z" fill="#191A1F"/>
<defs>
<filter id="filter0_d_1030_5963" x="23.4478" y="23.5538" width="136.581" height="140.82" filterUnits="userSpaceOnUse" color-interpolation-filters="sRGB">
<feFlood flood-opacity="0" result="BackgroundImageFix"/>
<feColorMatrix in="SourceAlpha" type="matrix" values="0 0 0 0 0 0 0 0 0 0 0 0 0 0 0 0 0 0 127 0" result="hardAlpha"/>
<feOffset dx="4.05737" dy="8.29916"/>
<feComposite in2="hardAlpha" operator="out"/>
<feColorMatrix type="matrix" values="0 0 0 0 0 0 0 0 0 0 0 0 0 0 0 0 0 0 0.5 0"/>
<feBlend mode="normal" in2="BackgroundImageFix" result="effect1_dropShadow_1030_5963"/>
<feBlend mode="normal" in="SourceGraphic" in2="effect1_dropShadow_1030_5963" result="shape"/>
</filter>
<clipPath id="clip0_1030_5963">
<rect width="18.0384" height="18.0381" fill="white" transform="translate(67.2529 76.5989) rotate(-11.5822)"/>
</clipPath>
<clipPath id="clip1_1030_5963">
<rect width="18.0384" height="18.0381" fill="white" transform="translate(87.7148 72.4062) rotate(-11.5822)"/>
</clipPath>
</defs>
</svg>
