<svg width="180" height="180" viewBox="0 0 180 180" fill="none" xmlns="http://www.w3.org/2000/svg">
<g filter="url(#filter0_d_1118_24415)">
<path d="M169.4 89.7136C169.4 96.4486 159.715 101.82 158.054 108.026C156.336 114.453 161.988 123.938 158.733 129.565C155.431 135.273 144.353 135.099 139.728 139.732C135.102 144.364 135.269 155.435 129.56 158.737C123.933 161.992 114.449 156.341 108.021 158.058C101.811 159.719 96.4393 169.404 89.7082 169.404C82.9771 169.404 77.6012 159.719 71.3951 158.058C64.9678 156.341 55.4829 161.992 49.856 158.737C44.1478 155.435 44.3214 144.358 39.6889 139.732C35.0563 135.106 23.9857 135.273 20.6839 129.565C17.4282 123.938 23.0809 114.453 21.3622 108.026C19.7031 101.816 10.0161 96.4445 10.0161 89.7136C10.0161 82.9826 19.7031 77.6068 21.3622 71.4007C23.0809 64.9736 17.4282 55.4889 20.6839 49.8621C23.9857 44.154 35.0631 44.3276 39.6889 39.6952C44.3147 35.0627 44.1478 23.9923 49.856 20.6905C55.4829 17.4349 64.9678 23.0875 71.3951 21.3688C77.6053 19.7098 82.9785 10.0229 89.7082 10.0229C96.438 10.0229 101.815 19.7098 108.021 21.3688C114.449 23.0875 123.933 17.4349 129.56 20.6905C135.269 23.9936 135.095 35.0695 139.728 39.6965C144.36 44.3235 155.431 44.154 158.733 49.8621C161.988 55.4889 156.336 64.9736 158.054 71.4007C159.715 77.6068 169.4 82.9799 169.4 89.7136Z" fill="#BEED3B"/>
</g>
<path d="M140.394 90.8371L151.542 91.9151L151.163 95.8328C150.951 98.0306 149.677 99.4023 147.989 99.2391L147.909 99.2314C146.954 99.139 146.213 98.6494 145.722 97.7499C145.097 98.8951 144.046 99.4526 142.82 99.334L142.74 99.3263C140.829 99.1415 139.746 97.5418 139.968 95.2485L140.394 90.8371ZM146.622 93.095L146.397 95.4201C146.278 96.6464 146.848 97.4087 147.851 97.5058L147.931 97.5135C148.854 97.6028 149.542 96.978 149.662 95.7358L149.887 93.4107L146.622 93.095ZM141.749 92.6237L141.488 95.3152C141.359 96.6529 141.933 97.5283 142.984 97.6299L143.048 97.6361C144.115 97.7393 144.848 96.9743 144.976 95.6524L145.236 92.961L141.749 92.6237Z" fill="#191A1F"/>
<path d="M139.214 100.712L149.966 103.846L148.081 110.313L146.607 109.883L148.017 105.044L144.929 104.144L143.609 108.676L142.18 108.259L143.501 103.728L140.214 102.77L138.759 107.762L137.284 107.332L139.214 100.712Z" fill="#191A1F"/>
<path d="M136.572 109.269L146.553 114.35L143.2 120.938L141.831 120.241L144.415 115.165L141.934 113.902L140.765 116.197C139.72 118.251 137.84 119.017 136.015 118.088L135.943 118.052C134.104 117.116 133.589 115.13 134.641 113.062L136.572 109.269ZM137.171 111.442L136.025 113.695C135.4 114.921 135.672 115.975 136.727 116.512L136.813 116.556C137.854 117.085 138.894 116.663 139.504 115.466L140.651 113.213L137.171 111.442Z" fill="#191A1F"/>
<path d="M126.502 124.318C128.666 121.939 131.95 121.942 134.389 124.16L134.436 124.203C136.874 126.421 137.166 129.715 135.023 132.07L135.012 132.082C133.709 133.514 131.931 133.994 130.307 133.663L130.548 132.044C131.774 132.337 132.915 132.034 133.819 131.04C135.359 129.347 135.062 127.153 133.252 125.505L133.204 125.462C131.393 123.815 129.182 123.749 127.653 125.43C126.727 126.448 126.49 127.66 126.896 128.83L125.339 129.187C124.846 127.635 125.188 125.762 126.491 124.33L126.502 124.318Z" fill="#191A1F"/>
<path d="M124.053 127.36L127.464 138.765L125.611 140.134L115.726 133.511L117.194 132.427L119.757 134.174L123.489 131.417L122.573 128.453L124.053 127.36ZM123.99 132.877L121.018 135.073L125.539 138.178L125.616 138.121L123.99 132.877Z" fill="#191A1F"/>
<path d="M119.095 147.517L117.815 148.104C117.542 147.508 116.904 147.308 116.235 147.614C115.581 147.915 115.331 148.522 115.605 149.118L114.325 149.705C113.765 148.483 114.336 147.235 115.776 146.575C117.216 145.915 118.535 146.296 119.095 147.517ZM114.826 133.985L119.494 144.166L117.967 144.866L114.426 137.144L114.295 137.204L113.284 147.014L111.554 147.808L106.885 137.627L108.412 136.927L112.04 144.838L112.171 144.778L113.197 134.732L114.826 133.985Z" fill="#191A1F"/>
<path d="M102.777 138.728L105.091 148.111L108.26 147.329L108.628 148.82L100.659 150.786L100.291 149.295L103.46 148.513L101.146 139.13L102.777 138.728Z" fill="#191A1F"/>
<path d="M94.0745 144.037C94.6326 143.992 95.0783 144.341 95.1224 144.883C95.1664 145.426 94.7841 145.858 94.2259 145.903C93.6518 145.95 93.1889 145.586 93.1449 145.044C93.1008 144.502 93.5004 144.084 94.0745 144.037Z" fill="#191A1F"/>
<path d="M88.701 140.7L87.2806 151.809L84.8207 151.495L82.7308 143.743L82.6197 143.729L78.6469 150.705L76.1869 150.391L77.6073 139.281L79.2578 139.492L78.1033 148.523L78.1985 148.535L82.249 141.455L83.6457 141.634L85.8007 149.507L85.8959 149.519L87.0504 140.488L88.701 140.7Z" fill="#191A1F"/>
<path d="M75.8369 138.485L72.5813 149.201L70.9585 148.708L74.2141 137.992L75.8369 138.485Z" fill="#191A1F"/>
<path d="M71.8243 137.35L66.9673 147.442L65.2372 146.609L64.3946 136.775L64.2649 136.712L60.5804 144.368L59.0955 143.653L63.9525 133.561L65.5673 134.338L66.4205 144.409L66.5503 144.471L70.3249 136.628L71.8243 137.35Z" fill="#191A1F"/>
<path d="M62.1488 132.457L55.2344 141.268L52.4149 139.055C49.7465 136.961 49.3043 133.767 51.2106 131.337L51.4082 131.086C53.3936 128.556 56.6609 128.15 59.3293 130.244L62.1488 132.457ZM59.8663 132.618L58.3685 131.443C56.4426 129.931 54.2475 130.344 52.7856 132.207L52.6078 132.434C51.2348 134.183 51.4374 136.335 53.3506 137.837L54.8484 139.012L59.8663 132.618Z" fill="#191A1F"/>
<path d="M51.3084 122.803L42.3976 129.588L41.3701 128.238L49.0589 122.384L46.1122 118.514L47.3342 117.583L51.3084 122.803Z" fill="#191A1F"/>
<path d="M47.1758 117.639L35.3654 119.126L34.3203 117.072L42.48 108.413L43.3074 110.038L41.1625 112.279L43.2672 116.414L46.3412 115.999L47.1758 117.639ZM41.7449 116.669L40.0684 113.375L36.2613 117.323L36.3048 117.409L41.7449 116.669Z" fill="#191A1F"/>
<path d="M42.1779 107.396L31.3903 110.407L30.3321 106.616C29.7384 104.489 30.4325 102.751 32.066 102.295L32.1431 102.273C33.0677 102.015 33.9347 102.205 34.7175 102.867C34.888 101.573 35.6671 100.675 36.8537 100.343L36.9308 100.322C38.7801 99.8057 40.3668 100.908 40.9863 103.127L42.1779 107.396ZM35.5551 107.533L34.927 105.283C34.5957 104.097 33.79 103.591 32.8191 103.862L32.7421 103.883C31.8483 104.133 31.4322 104.963 31.7678 106.165L32.3959 108.415L35.5551 107.533ZM40.2708 106.217L39.5438 103.613C39.1824 102.318 38.3312 101.708 37.314 101.992L37.2524 102.01C36.2199 102.298 35.8117 103.276 36.1688 104.555L36.8958 107.159L40.2708 106.217Z" fill="#191A1F"/>
<path d="M35.6859 94.9935C35.7376 95.5511 35.3937 96.0008 34.852 96.0511C34.3104 96.1014 33.8736 95.7241 33.8219 95.1665C33.7686 94.593 34.127 94.1259 34.6687 94.0756C35.2103 94.0253 35.6326 94.42 35.6859 94.9935Z" fill="#191A1F"/>
<path d="M39.0852 89.6008L27.9255 88.6516L28.259 84.7298C28.4462 82.5297 29.7042 81.1433 31.3941 81.2871L31.4738 81.2938C32.4303 81.3752 33.1763 81.8561 33.6783 82.7499C34.2902 81.5976 35.3342 81.028 36.5618 81.1325L36.6415 81.1392C38.5546 81.302 39.656 82.889 39.4608 85.1847L39.0852 89.6008ZM32.8319 87.415L33.0299 85.0874C33.1343 83.8598 32.5563 83.1041 31.5519 83.0187L31.4722 83.0119C30.5475 82.9332 29.8675 83.5659 29.7617 84.8094L29.5637 87.137L32.8319 87.415ZM37.7103 87.8299L37.9395 85.1356C38.0534 83.7964 37.4689 82.9278 36.4167 82.8383L36.3529 82.8329C35.2848 82.742 34.5606 83.5154 34.4481 84.8387L34.2189 87.5329L37.7103 87.8299Z" fill="#191A1F"/>
<path d="M40.1879 79.5165L29.4118 76.4643L31.2475 69.9832L32.7254 70.4018L31.3519 75.2511L34.4462 76.1275L35.7325 71.5861L37.1641 71.9916L35.8779 76.533L39.1723 77.4661L40.5894 72.4629L42.0672 72.8815L40.1879 79.5165Z" fill="#191A1F"/>
<path d="M42.7235 71.0098L32.7047 66.0035L36.0088 59.3911L37.3828 60.0777L34.8368 65.173L37.3272 66.4174L38.4786 64.1131C39.5085 62.052 41.383 61.2716 43.215 62.1871L43.2866 62.2228C45.1329 63.1454 45.6629 65.1273 44.6259 67.2027L42.7235 71.0098ZM42.1076 68.8419L43.2376 66.5805C43.8526 65.3496 43.5733 64.2978 42.5142 63.7686L42.4283 63.7257C41.3835 63.2036 40.3461 63.6332 39.7453 64.8354L38.6153 67.0968L42.1076 68.8419Z" fill="#191A1F"/>
<path d="M52.6256 55.9056C50.4788 58.3002 47.1941 58.3208 44.7399 56.1206L44.6923 56.0779C42.2381 53.8777 41.9226 50.5864 44.048 48.2156L44.0587 48.2037C45.351 46.7622 47.1256 46.2688 48.752 46.588L48.5232 48.2094C47.2953 47.9251 46.1566 48.2366 45.2594 49.2373C43.7321 50.9409 44.0444 53.1333 45.8671 54.7674L45.9148 54.8101C47.7375 56.4442 49.9496 56.4935 51.4663 54.8018C52.3848 53.7773 52.6132 52.5638 52.1983 51.3967L53.7531 51.0286C54.2568 52.5761 53.9286 54.4522 52.6362 55.8937L52.6256 55.9056Z" fill="#191A1F"/>
<path d="M55.0832 52.7821L51.5889 41.4029L53.4321 40.0205L63.3648 46.571L61.9056 47.6654L59.3296 45.9374L55.6176 48.7213L56.5552 51.6781L55.0832 52.7821ZM55.1056 47.2653L58.0625 45.0478L53.5185 41.9757L53.4417 42.0333L55.1056 47.2653Z" fill="#191A1F"/>
<path d="M59.5487 32.7412L60.8219 32.14C61.102 32.7332 61.7418 32.9265 62.4074 32.6123C63.0584 32.3049 63.3012 31.6948 63.0211 31.1016L64.2943 30.5005C64.8682 31.7158 64.3103 32.9701 62.8779 33.6464C61.4456 34.3227 60.1226 33.9565 59.5487 32.7412ZM63.9688 46.2247L59.1869 36.0969L60.706 35.3796L64.3335 43.0623L64.4637 43.0008L65.3648 33.1799L67.0866 32.367L71.8685 42.4948L70.3493 43.2121L66.6331 35.3414L66.5029 35.4028L65.5893 45.4596L63.9688 46.2247Z" fill="#191A1F"/>
<path d="M76.2171 41.235L73.8313 31.8701L70.6683 32.6759L70.2892 31.1875L78.2431 29.1611L78.6223 30.6496L75.4593 31.4554L77.8451 40.8203L76.2171 41.235Z" fill="#191A1F"/>
<path d="M84.8317 35.8428C84.2739 35.8924 83.8255 35.5468 83.7773 35.0049C83.7291 34.4631 84.108 34.0278 84.6658 33.9782C85.2396 33.9272 85.7053 34.2873 85.7535 34.8292C85.8017 35.371 85.4054 35.7918 84.8317 35.8428Z" fill="#191A1F"/>
<path d="M89.965 39.0964L91.2572 27.9712L93.7207 28.2573L95.8997 35.9843L96.011 35.9972L99.9031 28.9754L102.367 29.2615L101.074 40.3867L99.4215 40.1947L100.472 31.1515L100.376 31.1404L96.4079 38.2662L95.0093 38.1037L92.7636 30.2562L92.6683 30.2451L91.6179 39.2884L89.965 39.0964Z" fill="#191A1F"/>
<path d="M102.994 41.157L106.168 30.4163L107.795 30.897L104.62 41.6377L102.994 41.157Z" fill="#191A1F"/>
<path d="M107.131 42.2649L111.913 32.1371L113.65 32.9568L114.565 42.7846L114.695 42.8461L118.323 35.1634L119.813 35.867L115.031 45.9948L113.411 45.2297L112.483 35.1661L112.352 35.1046L108.636 42.9754L107.131 42.2649Z" fill="#191A1F"/>
<path d="M116.787 47.0091L123.605 38.1231L126.448 40.3047C129.139 42.3695 129.616 45.5589 127.737 48.0089L127.542 48.2628C125.584 50.8143 122.322 51.2554 119.63 49.1907L116.787 47.0091ZM119.068 46.8228L120.578 47.9818C122.52 49.4719 124.711 49.035 126.152 47.1563L126.328 46.9278C127.681 45.1633 127.455 43.0135 125.526 41.5331L124.015 40.3741L119.068 46.8228Z" fill="#191A1F"/>
<path d="M127.845 56.6281L136.706 49.7781L137.743 51.1199L130.097 57.0305L133.072 60.8787L131.857 61.8181L127.845 56.6281Z" fill="#191A1F"/>
<path d="M131.94 61.6047L143.733 59.9865L144.801 62.028L136.738 70.7776L135.892 69.1614L138.012 66.8969L135.862 62.7854L132.792 63.2351L131.94 61.6047ZM137.381 62.5143L139.094 65.7894L142.857 61.7988L142.813 61.7137L137.381 62.5143Z" fill="#191A1F"/>
<path d="M137.094 71.8465L147.847 68.7127L148.948 72.4915C149.566 74.6113 148.891 76.3577 147.263 76.8323L147.186 76.8547C146.265 77.1233 145.396 76.9432 144.605 76.2903C144.449 77.5856 143.681 78.493 142.498 78.8377L142.421 78.8601C140.578 79.3973 138.979 78.3134 138.334 76.1014L137.094 71.8465ZM143.715 71.6335L144.368 73.8761C144.713 75.0589 145.524 75.5557 146.492 75.2737L146.569 75.2513C147.46 74.9917 147.867 74.1566 147.517 72.9584L146.864 70.7157L143.715 71.6335ZM139.014 73.0033L139.771 75.5993C140.147 76.8897 141.005 77.4895 142.019 77.1941L142.08 77.1761C143.109 76.8762 143.506 75.8939 143.135 74.6189L142.378 72.0229L139.014 73.0033Z" fill="#191A1F"/>
<path d="M143.738 84.1945C143.68 83.6376 144.019 83.1839 144.56 83.1274C145.101 83.0709 145.542 83.443 145.6 84C145.66 84.5729 145.307 85.0441 144.766 85.1006C144.225 85.1572 143.798 84.7674 143.738 84.1945Z" fill="#191A1F"/>
<defs>
<filter id="filter0_d_1118_24415" x="10.0161" y="10.0229" width="164.174" height="169.178" filterUnits="userSpaceOnUse" color-interpolation-filters="sRGB">
<feFlood flood-opacity="0" result="BackgroundImageFix"/>
<feColorMatrix in="SourceAlpha" type="matrix" values="0 0 0 0 0 0 0 0 0 0 0 0 0 0 0 0 0 0 127 0" result="hardAlpha"/>
<feOffset dx="4.78936" dy="9.79642"/>
<feComposite in2="hardAlpha" operator="out"/>
<feColorMatrix type="matrix" values="0 0 0 0 0 0 0 0 0 0 0 0 0 0 0 0 0 0 0.5 0"/>
<feBlend mode="normal" in2="BackgroundImageFix" result="effect1_dropShadow_1118_24415"/>
<feBlend mode="normal" in="SourceGraphic" in2="effect1_dropShadow_1118_24415" result="shape"/>
</filter>
</defs>
</svg>
