<svg width="180" height="180" viewBox="0 0 180 180" fill="none" xmlns="http://www.w3.org/2000/svg">
<g filter="url(#filter0_d_1118_24398)">
<path d="M169.384 89.6906C169.384 96.4257 159.699 101.797 158.038 108.003C156.319 114.431 161.972 123.915 158.716 129.542C155.415 135.25 144.337 135.077 139.711 139.709C135.086 144.341 135.253 155.412 129.544 158.714C123.917 161.969 114.433 156.318 108.005 158.035C101.795 159.696 96.4232 169.381 89.6921 169.381C82.961 169.381 77.5851 159.696 71.379 158.035C64.9517 156.318 55.4668 161.969 49.8399 158.714C44.1317 155.412 44.3053 144.335 39.6728 139.709C35.0402 135.083 23.9696 135.25 20.6678 129.542C17.4121 123.915 23.0648 114.431 21.346 108.003C19.687 101.793 10 96.4216 10 89.6906C10 82.9596 19.687 77.5838 21.346 71.3778C23.0648 64.9507 17.4121 55.466 20.6678 49.8392C23.9696 44.131 35.047 44.3047 39.6728 39.6722C44.2985 35.0398 44.1317 23.9693 49.8399 20.6676C55.4668 17.412 64.9517 23.0645 71.379 21.3458C77.5892 19.6868 82.9624 10 89.6921 10C96.4219 10 101.799 19.6868 108.005 21.3458C114.433 23.0645 123.917 17.412 129.544 20.6676C135.253 23.9707 135.079 35.0465 139.711 39.6735C144.344 44.3006 155.415 44.131 158.716 49.8392C161.972 55.466 156.319 64.9507 158.038 71.3778C159.699 77.5838 169.384 82.9569 169.384 89.6906Z" fill="#BEED3B"/>
</g>
<path d="M140.616 91.803L152.048 90.7755L151.821 92.5046L142.367 93.2118L142.357 93.2911L151.231 96.9779L151.035 98.469L141.504 99.7632L141.498 99.8108L150.429 103.069L150.201 104.798L139.442 100.718L139.732 98.513L148.19 97.4003L148.205 97.2892L140.324 94.0238L140.616 91.803Z" fill="#191A1F"/>
<path d="M138.515 104.085L149.016 107.98L146.673 114.295L145.233 113.761L146.986 109.036L143.971 107.917L142.329 112.343L140.934 111.825L142.576 107.4L139.366 106.209L137.557 111.084L136.117 110.55L138.515 104.085Z" fill="#191A1F"/>
<path d="M135.237 112.499L144.817 118.302L142.778 121.669C141.634 123.557 139.891 124.241 138.441 123.363L138.372 123.321C137.551 122.824 137.096 122.062 137.043 121.038C135.983 121.799 134.795 121.846 133.741 121.208L133.673 121.167C132.03 120.172 131.748 118.261 132.941 116.29L135.237 112.499ZM139.871 117.233L138.661 119.231C138.023 120.285 138.206 121.219 139.068 121.741L139.136 121.782C139.93 122.263 140.82 121.998 141.467 120.931L142.677 118.932L139.871 117.233ZM135.684 114.697L134.283 117.009C133.587 118.159 133.725 119.197 134.628 119.744L134.683 119.777C135.6 120.332 136.592 119.961 137.28 118.825L138.681 116.512L135.684 114.697Z" fill="#191A1F"/>
<path d="M133.267 123.429L134.308 124.329L130.96 128.203L129.919 127.303L133.267 123.429Z" fill="#191A1F"/>
<path d="M122.302 128.341C123.491 127.344 125.068 126.709 126.648 126.825L126.756 128.447C125.495 128.314 124.202 128.814 123.246 129.616C122.192 130.501 121.899 131.52 122.526 132.268C123.297 133.187 124.527 132.636 125.873 132.049C127.538 131.321 129.43 130.589 130.809 132.231C132.135 133.812 131.431 135.761 129.948 137.005C128.771 137.993 127.341 138.504 126.03 138.434L125.955 136.826C126.992 136.917 128.135 136.438 128.92 135.78C129.888 134.967 130.118 134.022 129.552 133.348C128.884 132.551 127.718 133.028 126.36 133.625C124.647 134.373 122.683 135.143 121.274 133.464C119.896 131.822 120.623 129.75 122.302 128.341Z" fill="#191A1F"/>
<path d="M117.7 132.01L123.678 141.481L122.244 142.386L116.266 132.915L117.7 132.01Z" fill="#191A1F"/>
<path d="M112.223 135.147L116.349 143.886L119.301 142.493L119.957 143.881L112.534 147.386L111.879 145.997L114.83 144.603L110.704 135.865L112.223 135.147Z" fill="#191A1F"/>
<path d="M106.66 137.605L109.63 148.404L103.135 150.19L102.728 148.709L107.587 147.372L106.735 144.272L102.184 145.523L101.789 144.089L106.34 142.837L105.432 139.535L100.418 140.915L100.011 139.434L106.66 137.605Z" fill="#191A1F"/>
<path d="M94.2334 143.945C94.7916 143.9 95.2373 144.249 95.2813 144.791C95.3253 145.333 94.943 145.766 94.3849 145.811C93.8108 145.858 93.3478 145.494 93.3038 144.952C93.2598 144.409 93.6593 143.992 94.2334 143.945Z" fill="#191A1F"/>
<path d="M87.9373 140.567L86.3465 151.653L83.8917 151.301L81.9211 143.518L81.8103 143.502L77.7308 150.417L75.2759 150.064L76.8667 138.978L78.5138 139.214L77.2208 148.226L77.3158 148.24L81.4745 141.223L82.8682 141.423L84.9021 149.328L84.9971 149.342L86.2902 140.33L87.9373 140.567Z" fill="#191A1F"/>
<path d="M75.1198 138.138L71.6624 148.791L70.0492 148.267L73.5066 137.614L75.1198 138.138Z" fill="#191A1F"/>
<path d="M71.1205 136.93L66.0771 146.93L64.3628 146.066L63.7027 136.217L63.5742 136.153L59.7484 143.739L58.2769 142.996L63.3203 132.996L64.9204 133.803L65.5867 143.888L65.7153 143.952L69.6347 136.181L71.1205 136.93Z" fill="#191A1F"/>
<path d="M61.5529 131.86L54.5109 140.569L51.7239 138.316C49.0863 136.183 48.6907 132.983 50.6323 130.581L50.8335 130.333C52.8555 127.832 56.1283 127.474 58.766 129.607L61.5529 131.86ZM59.2683 131.988L57.7878 130.791C55.8842 129.252 53.6832 129.633 52.1944 131.474L52.0133 131.698C50.6149 133.427 50.7861 135.582 52.6773 137.111L54.1578 138.309L59.2683 131.988Z" fill="#191A1F"/>
<path d="M50.846 122.001L41.8129 128.622L40.8103 127.254L48.6045 121.541L45.7289 117.618L46.9678 116.71L50.846 122.001Z" fill="#191A1F"/>
<path d="M46.7974 116.751L34.9615 118.019L33.9546 115.947L42.2735 107.44L43.0706 109.081L40.8845 111.281L42.9122 115.455L45.9933 115.096L46.7974 116.751ZM41.3855 115.681L39.7703 112.356L35.8906 116.234L35.9326 116.32L41.3855 115.681Z" fill="#191A1F"/>
<path d="M42.0268 106.521L31.1948 109.368L30.1942 105.562C29.6328 103.426 30.3532 101.698 31.9935 101.267L32.0709 101.247C32.9993 101.003 33.8633 101.206 34.636 101.88C34.8261 100.589 35.6187 99.7022 36.8102 99.3889L36.8876 99.3686C38.7445 98.8805 40.3143 100.006 40.9001 102.235L42.0268 106.521ZM35.4027 106.558L34.8088 104.299C34.4956 103.108 33.6976 102.589 32.7227 102.846L32.6454 102.866C31.7479 103.102 31.3193 103.926 31.6365 105.133L32.2304 107.392L35.4027 106.558ZM40.1378 105.314L39.4504 102.698C39.1087 101.399 38.2668 100.776 37.2455 101.045L37.1836 101.061C36.1468 101.333 35.7239 102.305 36.0615 103.589L36.7489 106.204L40.1378 105.314Z" fill="#191A1F"/>
<path d="M35.658 92.9702C35.6904 93.5293 35.3311 93.9668 34.788 93.9983C34.2449 94.0298 33.8215 93.6376 33.7891 93.0785C33.7558 92.5035 34.1302 92.0491 34.6733 92.0176C35.2163 91.9861 35.6247 92.3952 35.658 92.9702Z" fill="#191A1F"/>
<path d="M39.3212 85.4516L27.8538 85.9523L28.1609 84.2355L37.6368 83.9638L37.6509 83.885L28.9554 79.794L29.2202 78.3135L38.8003 77.459L38.8088 77.4118L30.0372 73.746L30.3443 72.0293L40.9044 76.6001L40.5128 78.7893L32.0128 79.512L31.9931 79.6222L39.7156 83.2466L39.3212 85.4516Z" fill="#191A1F"/>
<path d="M41.9366 73.4001L31.6214 69.0371L34.2454 62.8332L35.6601 63.4315L33.6967 68.0734L36.6587 69.3262L38.4974 64.9791L39.8678 65.5587L38.0291 69.9059L41.1827 71.2397L43.2083 66.4505L44.623 67.0488L41.9366 73.4001Z" fill="#191A1F"/>
<path d="M45.5716 65.1442L36.2567 58.9255L38.4421 55.6519C39.6681 53.8156 41.4391 53.2088 42.8497 54.1505L42.9162 54.1949C43.7146 54.7279 44.1357 55.5092 44.1439 56.5343C45.236 55.8206 46.4253 55.8258 47.4499 56.5099L47.5165 56.5543C49.1133 57.6204 49.3117 59.542 48.0324 61.4582L45.5716 65.1442ZM41.1505 60.2111L42.4476 58.2683C43.1316 57.2437 42.9903 56.3028 42.1519 55.7431L42.0854 55.6987C41.3136 55.1834 40.4126 55.4092 39.7197 56.4471L38.4226 58.3899L41.1505 60.2111ZM45.2225 62.9296L46.7239 60.6807C47.4701 59.563 47.3776 58.5201 46.4993 57.9337L46.4461 57.8982C45.5545 57.303 44.547 57.6307 43.8096 58.7352L42.3082 60.984L45.2225 62.9296Z" fill="#191A1F"/>
<path d="M47.9362 54.3862L46.9354 53.4419L50.449 49.7178L51.4499 50.6621L47.9362 54.3862Z" fill="#191A1F"/>
<path d="M59.0822 49.9423C57.8509 50.887 56.2473 51.4518 54.674 51.2674L54.6371 49.6421C55.8904 49.83 57.204 49.3868 58.1942 48.6271C59.2859 47.7895 59.6237 46.7842 59.0296 46.0098C58.2991 45.0577 57.0469 45.5547 55.6766 46.0817C53.9812 46.7371 52.0586 47.3853 50.7535 45.6843C49.4971 44.0468 50.2858 42.1308 51.8218 40.9523C53.0405 40.0174 54.4917 39.5695 55.7987 39.696L55.8035 41.3056C54.7716 41.1697 53.6082 41.5984 52.7958 42.2218C51.7929 42.9912 51.5215 43.9254 52.0572 44.6236C52.6903 45.4487 53.8761 45.0229 55.2591 44.4862C57.0023 43.8143 58.9981 43.13 60.3324 44.8691C61.6375 46.5701 60.8213 48.608 59.0822 49.9423Z" fill="#191A1F"/>
<path d="M63.9678 46.379L58.414 36.653L59.8867 35.812L65.4406 45.538L63.9678 46.379Z" fill="#191A1F"/>
<path d="M69.2874 43.6043L65.556 34.6897L62.5451 35.9499L61.9521 34.533L69.5235 31.3639L70.1166 32.7808L67.1057 34.041L70.8371 42.9556L69.2874 43.6043Z" fill="#191A1F"/>
<path d="M75.1945 41.2802L72.7195 30.3571L79.289 28.8686L79.6284 30.3666L74.713 31.4803L75.4237 34.6168L80.027 33.5738L80.3558 35.025L75.7525 36.0681L76.5092 39.4074L81.5806 38.2583L81.92 39.7563L75.1945 41.2802Z" fill="#191A1F"/>
<path d="M87.5569 35.4986C86.9973 35.5202 86.5668 35.1526 86.5458 34.609C86.5248 34.0654 86.9251 33.6496 87.4846 33.628C88.0602 33.6058 88.5073 33.9888 88.5283 34.5324C88.5493 35.076 88.1324 35.4764 87.5569 35.4986Z" fill="#191A1F"/>
<path d="M93.886 39.081L95.9844 28.0793L98.4205 28.544L100.031 36.4091L100.141 36.4301L104.534 29.7101L106.97 30.1748L104.872 41.1764L103.237 40.8647L104.943 31.9219L104.849 31.9039L100.372 38.7219L98.989 38.4581L97.3205 30.468L97.2262 30.45L95.5205 39.3928L93.886 39.081Z" fill="#191A1F"/>
<path d="M106.569 42.0396L110.503 31.5535L112.091 32.1493L108.157 42.6354L106.569 42.0396Z" fill="#191A1F"/>
<path d="M110.542 43.4001L116.024 33.6335L117.698 34.5733L117.921 44.441L118.046 44.5115L122.205 37.1028L123.642 37.9095L118.16 47.6761L116.597 46.799L116.379 36.695L116.253 36.6245L111.993 44.2146L110.542 43.4001Z" fill="#191A1F"/>
<path d="M120.088 48.9925L127.534 40.6261L130.211 43.0088C132.745 45.2639 132.989 48.4795 130.936 50.7863L130.723 51.0253C128.585 53.4277 125.299 53.6303 122.765 51.3752L120.088 48.9925ZM122.376 48.9727L123.798 50.2385C125.627 51.866 127.844 51.5896 129.418 49.8207L129.609 49.6056C131.088 47.9442 131.019 45.7837 129.202 44.1668L127.78 42.901L122.376 48.9727Z" fill="#191A1F"/>
<path d="M130.23 59.1586L139.544 52.9399L140.486 54.3504L132.449 59.7163L135.149 63.7616L133.872 64.6145L130.23 59.1586Z" fill="#191A1F"/>
<path d="M134.138 64.7083L146.019 63.9701L146.932 66.0853L138.242 74.2122L137.518 72.5376L139.801 70.4368L137.961 66.1769L134.867 66.3975L134.138 64.7083ZM139.497 66.0194L140.962 69.4126L145.011 65.7124L144.973 65.6242L139.497 66.0194Z" fill="#191A1F"/>
<path d="M138.462 75.15L149.412 72.8001L150.238 76.6485C150.701 78.8074 149.903 80.5006 148.245 80.8564L148.166 80.8732C147.228 81.0746 146.374 80.8324 145.633 80.1241C145.384 81.4048 144.552 82.2543 143.347 82.5128L143.269 82.5296C141.392 82.9325 139.875 81.7361 139.392 79.4834L138.462 75.15ZM145.081 75.4152L145.571 77.6992C145.829 78.9037 146.603 79.4578 147.588 79.2463L147.666 79.2295C148.574 79.0348 149.04 78.2312 148.778 77.011L148.288 74.727L145.081 75.4152ZM140.294 76.4424L140.861 79.0862C141.143 80.4003 141.956 81.0605 142.988 80.8389L143.051 80.8255C144.099 80.6006 144.566 79.6495 144.287 78.351L143.72 75.7072L140.294 76.4424Z" fill="#191A1F"/>
<path d="M144.754 86.3949C144.746 85.835 145.123 85.4131 145.667 85.4047C146.211 85.3963 146.617 85.8061 146.626 86.366C146.635 86.9419 146.242 87.38 145.698 87.3884C145.154 87.3968 144.763 86.9708 144.754 86.3949Z" fill="#191A1F"/>
<defs>
<filter id="filter0_d_1118_24398" x="10" y="10" width="164.174" height="169.178" filterUnits="userSpaceOnUse" color-interpolation-filters="sRGB">
<feFlood flood-opacity="0" result="BackgroundImageFix"/>
<feColorMatrix in="SourceAlpha" type="matrix" values="0 0 0 0 0 0 0 0 0 0 0 0 0 0 0 0 0 0 127 0" result="hardAlpha"/>
<feOffset dx="4.78936" dy="9.79642"/>
<feComposite in2="hardAlpha" operator="out"/>
<feColorMatrix type="matrix" values="0 0 0 0 0 0 0 0 0 0 0 0 0 0 0 0 0 0 0.5 0"/>
<feBlend mode="normal" in2="BackgroundImageFix" result="effect1_dropShadow_1118_24398"/>
<feBlend mode="normal" in="SourceGraphic" in2="effect1_dropShadow_1118_24398" result="shape"/>
</filter>
</defs>
</svg>
