<svg width="140" height="140" viewBox="0 0 140 140" fill="none" xmlns="http://www.w3.org/2000/svg">
<g filter="url(#filter0_d_964_4683)">
<path d="M121.214 59.3122C122.105 63.6596 116.563 68.4083 116.313 72.6339C116.054 77.0099 120.957 82.3843 119.6 86.447C118.224 90.5684 111.05 91.9217 108.677 95.5239C106.304 99.126 107.877 106.25 104.629 109.136C101.427 111.982 94.5574 109.589 90.6359 111.548C86.8469 113.441 84.6607 120.404 80.3159 121.294C75.971 122.184 71.2197 116.644 66.994 116.393C62.6182 116.135 57.2434 121.037 53.1806 119.68C49.0592 118.304 47.7059 111.131 44.1037 108.758C40.5015 106.385 33.3776 107.957 30.4912 104.71C27.6453 101.508 30.0393 94.6382 28.0797 90.717C26.1873 86.9279 19.2238 84.742 18.3333 80.3973C17.4429 76.0525 22.9846 71.301 23.2344 67.0756C23.4936 62.6996 18.5902 57.3251 19.9473 53.2624C21.3234 49.1411 28.4967 47.7878 30.8698 44.1856C33.2428 40.5835 31.6706 33.4597 34.9184 30.5733C38.1198 27.7275 44.99 30.1214 48.9113 28.1617C52.7004 26.2693 54.8873 19.3058 59.2313 18.4155C63.5752 17.5252 68.3277 23.0666 72.5531 23.3164C76.9292 23.5755 82.3037 18.6721 86.3665 20.0292C90.4881 21.4062 91.8413 28.5784 95.4436 30.9523C99.046 33.3261 106.169 31.7521 109.056 34.9999C111.902 38.2012 109.508 45.0713 111.467 48.9925C113.36 52.7788 120.323 54.9657 121.214 59.3122Z" fill="#C0ED3B"/>
</g>
<circle cx="70.6885" cy="69.8985" r="23.7205" transform="rotate(-11.5822 70.6885 69.8985)" fill="#191A1F"/>
<path d="M72.7034 85.6154C68.8495 86.2342 65.0892 85.5308 62.1132 83.6307C59.0304 81.6634 57.0009 78.5211 56.4005 74.7835C56.3487 74.459 56.5688 74.1566 56.8921 74.1032C57.2165 74.0514 57.519 74.2714 57.5723 74.5947C58.6856 81.5145 64.9702 85.6569 72.5174 84.444C80.0646 83.2312 84.7334 77.3278 83.6217 70.4068C83.5699 70.0824 83.7899 69.7799 84.1132 69.7266C84.4377 69.6748 84.7401 69.8948 84.7935 70.2181C85.3939 73.9557 84.4525 77.5752 82.1419 80.4097C79.9114 83.1447 76.5605 84.9942 72.7066 85.613L72.7034 85.6154Z" fill="#F9F9FA"/>
<g clip-path="url(#clip0_964_4683)">
<path fill-rule="evenodd" clip-rule="evenodd" d="M60.7535 65.8507L64.657 68.4263C64.7864 68.5085 64.9429 68.5366 65.0928 68.5045C65.2427 68.4724 65.374 68.3828 65.4584 68.2548C65.5428 68.1269 65.5736 67.9709 65.5441 67.8205C65.5147 67.6701 65.4273 67.5372 65.3009 67.4506L61.3973 64.875L63.973 60.9715C64.0552 60.8421 64.0832 60.6856 64.0512 60.5358C64.0191 60.3859 63.9294 60.2546 63.8015 60.1702C63.6735 60.0858 63.5176 60.055 63.3671 60.0844C63.2167 60.1139 63.0839 60.2013 62.9973 60.3277L60.4216 64.2312L56.518 61.6556C56.3887 61.5761 56.2335 61.5501 56.0853 61.583C55.937 61.6158 55.8074 61.7051 55.7239 61.8319C55.6403 61.9586 55.6093 62.1129 55.6375 62.2621C55.6657 62.4113 55.7508 62.5437 55.8748 62.6312L59.7778 65.2069L57.2021 69.1104C57.1582 69.1745 57.1275 69.2466 57.1119 69.3226C57.0962 69.3986 57.0958 69.477 57.1107 69.5532C57.1256 69.6294 57.1556 69.7018 57.1988 69.7663C57.242 69.8308 57.2976 69.886 57.3624 69.9287C57.4272 69.9715 57.4999 70.0009 57.5761 70.0153C57.6524 70.0296 57.7308 70.0287 57.8067 70.0124C57.8826 69.9962 57.9545 69.965 58.0182 69.9207C58.0819 69.8763 58.1362 69.8197 58.1778 69.7542L60.7535 65.8507Z" fill="#F9F9FA"/>
</g>
<g clip-path="url(#clip1_964_4683)">
<path fill-rule="evenodd" clip-rule="evenodd" d="M76.6676 62.5833L80.5711 65.1589C80.7005 65.241 80.857 65.2691 81.0069 65.237C81.1568 65.205 81.288 65.1153 81.3725 64.9874C81.4569 64.8594 81.4877 64.7035 81.4582 64.553C81.4287 64.4026 81.3414 64.2698 81.2149 64.1832L77.3114 61.6076L79.887 57.7041C79.9692 57.5747 79.9973 57.4182 79.9652 57.2683C79.9331 57.1184 79.8435 56.9871 79.7155 56.9027C79.5876 56.8183 79.4316 56.7875 79.2812 56.817C79.1308 56.8464 78.998 56.9338 78.9113 57.0603L76.3356 60.9638L72.4321 58.3882C72.3027 58.3087 72.1475 58.2826 71.9993 58.3155C71.8511 58.3484 71.7215 58.4377 71.6379 58.5644C71.5544 58.6912 71.5234 58.8455 71.5515 58.9946C71.5797 59.1438 71.6648 59.2762 71.7889 59.3638L75.6918 61.9395L73.1162 65.843C73.0723 65.907 73.0416 65.9792 73.0259 66.0552C73.0102 66.1312 73.0098 66.2096 73.0247 66.2857C73.0397 66.3619 73.0696 66.4344 73.1128 66.4988C73.1561 66.5633 73.2117 66.6185 73.2765 66.6613C73.3413 66.704 73.4139 66.7334 73.4902 66.7478C73.5665 66.7622 73.6449 66.7612 73.7208 66.745C73.7967 66.7287 73.8686 66.6975 73.9323 66.6532C73.996 66.6089 74.0503 66.5523 74.0919 66.4868L76.6676 62.5833Z" fill="#F9F9FA"/>
</g>
<path d="M105.386 76.0845C105.483 75.4885 105.964 75.1125 106.542 75.2069C107.121 75.3014 107.475 75.8135 107.378 76.4094C107.278 77.0223 106.777 77.4126 106.198 77.3182C105.619 77.2238 105.286 76.6974 105.386 76.0845Z" fill="#191A1F"/>
<path d="M98.8201 85.639L106.353 90.6678L104.585 93.3149C103.594 94.7999 102.162 95.2906 101.021 94.5291L100.967 94.4932C100.322 94.0621 99.9813 93.4303 99.9746 92.6014C99.0915 93.1786 98.1298 93.1743 97.3012 92.6212L97.2474 92.5853C95.9561 91.7232 95.7956 90.1692 96.8301 88.6197L98.8201 85.639ZM102.395 89.6281L101.346 91.1992C100.793 92.0278 100.908 92.7886 101.585 93.2412L101.639 93.2771C102.263 93.6938 102.992 93.5113 103.552 92.6719L104.601 91.1009L102.395 89.6281ZM99.1024 87.4298L97.8883 89.2484C97.2849 90.1523 97.3597 90.9956 98.0699 91.4698L98.1129 91.4985C98.8339 91.9798 99.6487 91.7148 100.245 90.8217L101.459 89.0031L99.1024 87.4298Z" fill="#191A1F"/>
<path d="M94.2138 92.0604L100.429 98.6481L96.4672 102.386L95.6148 101.483L98.5793 98.6858L96.7946 96.7942L94.0183 99.4136L93.1926 98.5383L95.9688 95.919L94.0687 93.9051L91.0101 96.7908L90.1577 95.8873L94.2138 92.0604Z" fill="#191A1F"/>
<path d="M89.1413 96.6384L93.7191 104.453L88.5614 107.475L87.9335 106.403L91.9079 104.075L90.77 102.132L88.9726 103.185C87.365 104.127 85.7504 103.828 84.9134 102.399L84.8807 102.343C84.037 100.903 84.5529 99.3263 86.1717 98.378L89.1413 96.6384ZM88.6015 98.3792L86.8376 99.4124C85.8775 99.9748 85.6024 100.811 86.0864 101.637L86.1256 101.704C86.603 102.519 87.4955 102.686 88.4333 102.136L90.1972 101.103L88.6015 98.3792Z" fill="#191A1F"/>
<path d="M75.7993 101.966C78.3557 101.489 80.472 103.094 80.9613 105.714L80.9708 105.765C81.4602 108.385 80.0407 110.651 77.5097 111.123L77.497 111.126C75.958 111.413 74.577 110.855 73.6915 109.849L74.6372 108.922C75.2844 109.71 76.168 110.071 77.2363 109.871C79.0551 109.532 79.9352 107.972 79.5718 106.026L79.5623 105.975C79.1988 104.029 77.8047 102.908 75.9987 103.245C74.9049 103.449 74.1605 104.115 73.8514 105.068L72.6731 104.538C73.1127 103.297 74.2476 102.256 75.7866 101.968L75.7993 101.966Z" fill="#191A1F"/>
<path d="M72.2922 102.773L68.4452 111.597L66.586 111.475L63.939 102.225L65.4108 102.321L66.0819 104.738L69.826 104.984L70.8075 102.676L72.2922 102.773ZM69.3736 106.147L66.3913 105.951L67.5625 110.229L67.64 110.234L69.3736 106.147Z" fill="#191A1F"/>
<path d="M58.3632 112.374L57.2842 112.01C57.4537 111.507 57.1893 111.036 56.6253 110.846C56.0736 110.66 55.5901 110.879 55.4206 111.382L54.3417 111.018C54.6888 109.988 55.7172 109.57 56.931 109.98C58.1448 110.389 58.7103 111.344 58.3632 112.374ZM63.3488 102.039L60.4558 110.622L59.1684 110.188L61.363 103.677L61.2526 103.64L55.2205 108.857L53.7615 108.365L56.6545 99.7825L57.9419 100.217L55.6936 106.886L55.8039 106.923L61.9756 101.576L63.3488 102.039Z" fill="#191A1F"/>
<path d="M53.6519 97.9873L49.5053 104.611L51.7425 106.012L51.0834 107.065L45.4574 103.543L46.1165 102.49L48.3537 103.89L52.5004 97.2665L53.6519 97.9873Z" fill="#191A1F"/>
<path d="M47.5041 93.6234L40.3588 99.1887L39.1265 97.6066L42.3443 91.9679L42.2886 91.8965L36.0338 93.6358L34.8015 92.0537L41.9467 86.4883L42.7736 87.5499L36.9655 92.0737L37.0132 92.135L43.3713 90.3808L44.0709 91.279L40.8215 97.0244L40.8692 97.0856L46.6773 92.5618L47.5041 93.6234Z" fill="#191A1F"/>
<path d="M41.4755 84.9553L33.3292 88.9132L32.7298 87.6796L40.8761 83.7217L41.4755 84.9553Z" fill="#191A1F"/>
<path d="M39.9925 82.1496L31.242 84.4854L30.8415 82.9853L36.4317 77.2882L36.4017 77.1757L29.7638 78.9475L29.4201 77.6599L38.1706 75.3242L38.5444 76.7243L32.815 82.5522L32.8451 82.6647L39.6455 80.8495L39.9925 82.1496Z" fill="#191A1F"/>
<path d="M37.9385 73.4179L28.8818 73.3479L28.9042 70.4498C28.9254 67.7069 30.7512 65.8449 33.2482 65.8642L33.507 65.8662C36.1076 65.8863 37.982 67.7769 37.9609 70.5197L37.9385 73.4179ZM36.707 72.0368L36.7189 70.4972C36.7342 68.5177 35.3849 67.3169 33.47 67.3021L33.2372 67.3003C31.4388 67.2864 30.1615 68.4799 30.1464 70.4465L30.1345 71.9861L36.707 72.0368Z" fill="#191A1F"/>
<path d="M38.8984 62.1847L30.3159 59.2917L30.754 57.9921L38.1595 60.4884L39.4159 56.7611L40.5929 57.1579L38.8984 62.1847Z" fill="#191A1F"/>
<path d="M40.4312 57.1556L34.4014 49.6523L35.3725 48.0623L44.7946 50.0115L44.0257 51.2703L41.5735 50.7429L39.6177 53.945L41.2068 55.8858L40.4312 57.1556ZM38.7974 53.0043L40.3553 50.4537L36.0224 49.5053L35.9819 49.5715L38.7974 53.0043Z" fill="#191A1F"/>
<path d="M45.2713 49.5863L38.8903 43.1589L41.1491 40.9164C42.4163 39.6585 43.9174 39.4627 44.8837 40.436L44.9292 40.4819C45.4762 41.0328 45.6841 41.7197 45.5256 42.5334C46.506 42.1436 47.4476 42.3391 48.1495 43.0461L48.1951 43.092C49.2889 44.1939 49.1369 45.7486 47.8147 47.0613L45.2713 49.5863ZM42.5617 44.9654L43.9022 43.6345C44.6093 42.9326 44.6486 42.1643 44.0744 41.5858L44.0288 41.5399C43.5001 41.0073 42.7497 41.0412 42.0335 41.7522L40.693 43.0831L42.5617 44.9654ZM45.351 47.7751L46.9028 46.2346C47.6741 45.4689 47.7686 44.6275 47.167 44.0215L47.1305 43.9848C46.5198 43.3696 45.6686 43.4671 44.9065 44.2237L43.3547 45.7642L45.351 47.7751Z" fill="#191A1F"/>
<path d="M55.2858 37.9605C54.7379 38.2142 54.1569 38.027 53.9105 37.4947C53.664 36.9625 53.8898 36.3826 54.4377 36.1289C55.0012 35.8679 55.6051 36.0636 55.8516 36.5958C56.0981 37.128 55.8494 37.6995 55.2858 37.9605Z" fill="#191A1F"/>
<path d="M66.3543 38.0783L66.1446 29.0238L69.3266 28.9501C71.1117 28.9088 72.3359 29.7993 72.3676 31.1704L72.3691 31.2351C72.3871 32.0112 72.0655 32.6528 71.3907 33.1343C72.3704 33.5258 72.9193 34.3155 72.9424 35.3114L72.9439 35.3761C72.9799 36.9283 71.8 37.9522 69.9373 37.9953L66.3543 38.0783ZM67.5665 32.8605L69.455 32.8168C70.451 32.7937 71.0082 32.2631 70.9893 31.4482L70.9878 31.3835C70.9704 30.6333 70.4025 30.1417 69.3936 30.1651L67.5051 30.2088L67.5665 32.8605ZM67.6582 36.8186L69.8442 36.768C70.9307 36.7428 71.5781 36.1972 71.5584 35.3435L71.5572 35.2918C71.5371 34.4251 70.8522 33.9104 69.7786 33.9352L67.5926 33.9859L67.6582 36.8186Z" fill="#191A1F"/>
<path d="M74.1837 38.1243L76.0163 29.2547L81.3507 30.3569L81.0994 31.5733L77.1081 30.7486L76.5818 33.2955L80.3197 34.0678L80.0763 35.2462L76.3384 34.4738L75.7781 37.1854L79.8961 38.0363L79.6448 39.2527L74.1837 38.1243Z" fill="#191A1F"/>
<path d="M80.9053 39.6326L84.7113 31.4142L90.1354 33.9261L89.6135 35.0532L85.4338 33.1176L84.4878 35.1605L86.378 36.0358C88.0687 36.8188 88.7445 38.3152 88.0486 39.818L88.0214 39.8767C87.32 41.3912 85.7307 41.8672 84.0284 41.0789L80.9053 39.6326ZM82.6429 39.0827L84.4979 39.9418C85.5076 40.4093 86.351 40.1583 86.7534 39.2895L86.786 39.2191C87.1829 38.362 86.8108 37.5338 85.8245 37.077L83.9695 36.218L82.6429 39.0827Z" fill="#191A1F"/>
<path d="M92.9649 47.5247C91.106 45.7059 91.2052 43.0515 93.0692 41.1464L93.1054 41.1094C94.9694 39.2043 97.6395 39.0654 99.4799 40.8661L99.4891 40.8751C100.608 41.97 100.944 43.4211 100.629 44.7238L99.3272 44.4818C99.6001 43.4998 99.3887 42.5689 98.6118 41.8088C97.2893 40.5148 95.5071 40.6898 94.1227 42.1048L94.0865 42.1417C92.702 43.5567 92.5843 45.3421 93.8975 46.627C94.6928 47.4052 95.6651 47.6325 96.6226 47.3384L96.8652 48.6075C95.5973 48.9599 94.0931 48.6286 92.9741 47.5337L92.9649 47.5247Z" fill="#191A1F"/>
<path d="M95.5569 49.7715L104.986 47.8332L105.957 49.4233L99.9203 56.9156L99.1514 55.6568L100.74 53.716L98.7847 50.5138L96.3325 51.0413L95.5569 49.7715ZM99.9962 50.2136L101.554 52.7643L104.376 49.3425L104.336 49.2763L99.9962 50.2136Z" fill="#191A1F"/>
<path d="M111.498 55.7334L111.82 56.8253C111.311 56.9757 111.078 57.463 111.246 58.0338C111.411 58.5921 111.869 58.8617 112.378 58.7113L112.7 59.8032C111.658 60.1113 110.725 59.5101 110.362 58.2817C109.999 57.0533 110.455 56.0415 111.498 55.7334ZM100.175 57.5957L108.861 55.0286L109.246 56.3315L102.657 58.2787L102.69 58.3904L110.427 60.3268L110.863 61.8034L102.177 64.3704L101.792 63.0675L108.542 61.0726L108.509 60.9609L100.586 58.9853L100.175 57.5957Z" fill="#191A1F"/>
<path d="M102.447 67.8102L110.25 67.3882L110.108 64.7526L111.348 64.6855L111.707 71.3133L110.466 71.3804L110.324 68.7448L102.52 69.1667L102.447 67.8102Z" fill="#191A1F"/>
<defs>
<filter id="filter0_d_964_4683" x="18.2368" y="18.3187" width="106.229" height="109.527" filterUnits="userSpaceOnUse" color-interpolation-filters="sRGB">
<feFlood flood-opacity="0" result="BackgroundImageFix"/>
<feColorMatrix in="SourceAlpha" type="matrix" values="0 0 0 0 0 0 0 0 0 0 0 0 0 0 0 0 0 0 127 0" result="hardAlpha"/>
<feOffset dx="3.15573" dy="6.4549"/>
<feComposite in2="hardAlpha" operator="out"/>
<feColorMatrix type="matrix" values="0 0 0 0 0 0 0 0 0 0 0 0 0 0 0 0 0 0 0.5 0"/>
<feBlend mode="normal" in2="BackgroundImageFix" result="effect1_dropShadow_964_4683"/>
<feBlend mode="normal" in="SourceGraphic" in2="effect1_dropShadow_964_4683" result="shape"/>
</filter>
<clipPath id="clip0_964_4683">
<rect width="14.0299" height="14.0296" fill="white" transform="translate(52.3071 59.5748) rotate(-11.5822)"/>
</clipPath>
<clipPath id="clip1_964_4683">
<rect width="14.0299" height="14.0296" fill="white" transform="translate(68.2217 56.3137) rotate(-11.5822)"/>
</clipPath>
</defs>
</svg>
