<svg width="73" height="73" viewBox="0 0 73 73" fill="none" xmlns="http://www.w3.org/2000/svg">
<circle cx="36.0547" cy="36.0615" r="36" fill="#09090A"/>
<path d="M34.2597 60.0478C28.3412 59.7935 22.9649 57.602 19.1192 53.8701C15.1352 50.0059 13.0753 44.7155 13.3216 38.9756C13.3435 38.4774 13.7628 38.0948 14.2597 38.114C14.7579 38.1359 15.1405 38.5551 15.1213 39.0521C14.6679 49.6794 22.7495 57.7531 34.34 58.2496C45.9305 58.7461 54.6707 51.3917 55.1268 40.7631C55.1486 40.2649 55.5679 39.8823 56.0648 39.9015C56.563 39.9234 56.9456 40.3426 56.9265 40.8395C56.6802 46.5794 54.1777 51.674 49.8787 55.1841C45.7291 58.5709 40.1835 60.2996 34.265 60.0453L34.2597 60.0478Z" fill="#F9F9FA"/>
<g clip-path="url(#clip0_440_7969)">
<path fill-rule="evenodd" clip-rule="evenodd" d="M22.5174 27.0116L27.5362 32.0304C27.7036 32.192 27.9277 32.2814 28.1603 32.2794C28.3929 32.2774 28.6154 32.1841 28.7799 32.0196C28.9444 31.8551 29.0377 31.6326 29.0398 31.4C29.0418 31.1674 28.9523 30.9433 28.7907 30.7759L23.7719 25.7572L28.7907 20.7384C28.9523 20.5711 29.0418 20.347 29.0398 20.1143C29.0377 19.8817 28.9444 19.6592 28.7799 19.4947C28.6154 19.3302 28.3929 19.2369 28.1603 19.2349C27.9277 19.2329 27.7036 19.3223 27.5362 19.4839L22.5174 24.5027L17.4985 19.4839C17.3304 19.3263 17.1076 19.2403 16.8772 19.244C16.6468 19.2477 16.4269 19.341 16.2641 19.504C16.1012 19.6669 16.0081 19.8869 16.0045 20.1173C16.001 20.3477 16.0871 20.5704 16.2449 20.7384L21.2629 25.7572L16.244 30.7759C16.1593 30.8578 16.0917 30.9557 16.0452 31.0639C15.9987 31.1721 15.9742 31.2886 15.9732 31.4064C15.9722 31.5242 15.9946 31.641 16.0392 31.75C16.0838 31.859 16.1497 31.9581 16.233 32.0414C16.3163 32.1247 16.4154 32.1906 16.5244 32.2352C16.6334 32.2798 16.7502 32.3022 16.8681 32.3012C16.9859 32.3002 17.1023 32.2757 17.2105 32.2292C17.3188 32.1827 17.4167 32.1151 17.4985 32.0304L22.5174 27.0116Z" fill="#F9F9FA"/>
</g>
<g clip-path="url(#clip1_440_7969)">
<path fill-rule="evenodd" clip-rule="evenodd" d="M47.1726 27.0116L52.1915 32.0304C52.3588 32.192 52.5829 32.2814 52.8156 32.2794C53.0482 32.2774 53.2707 32.1841 53.4352 32.0196C53.5997 31.8551 53.693 31.6326 53.695 31.4C53.697 31.1674 53.6076 30.9433 53.446 30.7759L48.4271 25.7572L53.446 20.7384C53.6076 20.5711 53.697 20.347 53.695 20.1143C53.693 19.8817 53.5997 19.6592 53.4352 19.4947C53.2707 19.3302 53.0482 19.2369 52.8156 19.2349C52.5829 19.2329 52.3588 19.3223 52.1915 19.4839L47.1726 24.5027L42.1538 19.4839C41.9857 19.3263 41.7629 19.2403 41.5325 19.244C41.3021 19.2477 41.0822 19.341 40.9193 19.504C40.7565 19.6669 40.6634 19.8869 40.6598 20.1173C40.6562 20.3477 40.7424 20.5704 40.9002 20.7384L45.9181 25.7572L40.8993 30.7759C40.8145 30.8578 40.7469 30.9557 40.7004 31.0639C40.6539 31.1721 40.6295 31.2886 40.6285 31.4064C40.6274 31.5242 40.6499 31.641 40.6945 31.75C40.7391 31.859 40.805 31.9581 40.8883 32.0414C40.9716 32.1247 41.0706 32.1906 41.1797 32.2352C41.2887 32.2798 41.4055 32.3022 41.5233 32.3012C41.6411 32.3002 41.7575 32.2757 41.8658 32.2292C41.974 32.1827 42.0719 32.1151 42.1538 32.0304L47.1726 27.0116Z" fill="#F9F9FA"/>
</g>
<defs>
<clipPath id="clip0_440_7969">
<rect width="21.2927" height="21.2923" fill="white" transform="translate(11.8711 15.1113)"/>
</clipPath>
<clipPath id="clip1_440_7969">
<rect width="21.2927" height="21.2923" fill="white" transform="translate(36.5264 15.1113)"/>
</clipPath>
</defs>
</svg>
