<svg width="73" height="73" viewBox="0 0 73 73" fill="none" xmlns="http://www.w3.org/2000/svg">
<circle cx="36.0547" cy="36.0615" r="36" fill="#09090A"/>
<path d="M34.2597 59.0478C28.3412 58.7935 22.9649 56.602 19.1192 52.8701C15.1352 49.0059 13.0753 43.7155 13.3216 37.9756C13.3435 37.4774 13.7628 37.0948 14.2597 37.114C14.7579 37.1359 15.1405 37.5551 15.1213 38.0521C14.6679 48.6794 22.7495 56.7531 34.34 57.2496C45.9305 57.7461 54.6707 50.3917 55.1268 39.7631C55.1486 39.2649 55.5679 38.8823 56.0648 38.9015C56.563 38.9234 56.9456 39.3426 56.9265 39.8395C56.6802 45.5794 54.1777 50.674 49.8787 54.1841C45.7291 57.5709 40.1835 59.2996 34.265 59.0453L34.2597 59.0478Z" fill="#F9F9FA"/>
<g clip-path="url(#clip0_1118_24384)">
<path d="M23 21C23.9797 20.9999 24.9378 21.2877 25.7553 21.8275C26.5729 22.3673 27.2138 23.1354 27.5986 24.0364C27.9833 24.9373 28.0949 25.9315 27.9195 26.8953C27.7441 27.8592 27.2893 28.7502 26.6118 29.4579C25.9343 30.1655 25.0638 30.6585 24.1085 30.8756C23.1532 31.0928 22.1552 31.0245 21.2383 30.6793C20.3215 30.334 19.5263 29.7271 18.9515 28.9338C18.3766 28.1405 18.0475 27.1958 18.005 26.217L18 26L18.005 25.783C18.0609 24.4958 18.6116 23.2798 19.5422 22.3887C20.4728 21.4975 21.7115 21.0001 23 21Z" fill="#F9F9FA"/>
</g>
<g clip-path="url(#clip1_1118_24384)">
<path d="M47 21C47.9797 20.9999 48.9378 21.2877 49.7553 21.8275C50.5729 22.3673 51.2138 23.1354 51.5986 24.0364C51.9833 24.9373 52.0949 25.9315 51.9195 26.8953C51.7441 27.8592 51.2893 28.7502 50.6118 29.4579C49.9343 30.1655 49.0638 30.6585 48.1085 30.8756C47.1532 31.0928 46.1552 31.0245 45.2383 30.6793C44.3215 30.334 43.5263 29.7271 42.9515 28.9338C42.3766 28.1405 42.0475 27.1958 42.005 26.217L42 26L42.005 25.783C42.0609 24.4958 42.6116 23.2798 43.5422 22.3887C44.4728 21.4975 45.7115 21.0001 47 21Z" fill="#F9F9FA"/>
</g>
<defs>
<clipPath id="clip0_1118_24384">
<rect width="24" height="24" fill="white" transform="translate(11 14)"/>
</clipPath>
<clipPath id="clip1_1118_24384">
<rect width="24" height="24" fill="white" transform="translate(34 14)"/>
</clipPath>
</defs>
</svg>
