<svg width="40" height="40" viewBox="0 0 40 40" fill="none" xmlns="http://www.w3.org/2000/svg">
<rect width="40" height="40" rx="20" fill="#AAAEDF"/>
<g clip-path="url(#clip0_1030_5946)">
<path d="M4.55888 18.5519C4.49386 18.479 4.43894 18.4164 4.39444 18.3651C4.44291 18.3176 4.50265 18.2596 4.57328 18.1923C4.79213 17.9837 5.11536 17.6853 5.53102 17.3279C6.36259 16.6129 7.56276 15.663 9.03598 14.7243C11.9871 12.8439 16.0096 11.0238 20.3484 11.1972C24.6871 11.3707 28.5506 13.5083 31.3414 15.6207C32.7346 16.6752 33.8547 17.719 34.6262 18.499C35.0119 18.8889 35.3101 19.2125 35.5116 19.4381C35.5766 19.511 35.6316 19.5737 35.6761 19.625C35.6276 19.6726 35.5678 19.7306 35.4972 19.7979C35.2784 20.0066 34.9552 20.3051 34.5396 20.6626C33.7081 21.3777 32.508 22.3279 31.0349 23.2667C28.0839 25.1475 24.0616 26.9676 19.7226 26.7929C15.3836 26.6183 11.52 24.4806 8.7291 22.3685C7.33589 21.3142 6.21576 20.2705 5.44421 19.4908C5.05855 19.101 4.7603 18.7774 4.55888 18.5519Z" fill="#F9F9FA" stroke="#2928E3" stroke-width="0.47619"/>
<path d="M26.1272 19.3766C26.0791 20.5687 25.6791 21.7197 24.978 22.684C24.2769 23.6483 23.3061 24.3827 22.1885 24.7944C21.0708 25.206 19.8564 25.2764 18.6988 24.9967C17.5412 24.7171 16.4923 24.0998 15.6849 23.223C14.8774 22.3462 14.3475 21.2491 14.1624 20.0706C13.9772 18.8921 14.1451 17.685 14.6448 16.6021C15.1445 15.5192 15.9535 14.6091 16.9695 13.9868C17.9854 13.3645 19.1628 13.0579 20.3526 13.1059C21.1428 13.1377 21.9189 13.3252 22.6368 13.6575C23.3547 13.9899 24.0001 14.4606 24.5364 15.0429C25.0727 15.6252 25.4892 16.3076 25.7621 17.0512C26.0351 17.7948 26.1591 18.585 26.1272 19.3766Z" fill="#09090A" stroke="#09090A" stroke-width="0.47619"/>
<path d="M32.5061 25.9922C32.018 24.7396 31.5295 23.4871 31.0408 22.2346M32.5061 25.9922L32.3952 26.0353M32.5061 25.9922L32.3952 26.0354C32.3952 26.0354 32.3952 26.0354 32.3952 26.0353M32.5061 25.9922L32.3952 26.0353M31.0408 22.2346L32.3761 26.16C32.3475 26.2069 32.3031 26.2404 32.2627 26.2514L32.2625 26.2515C32.169 26.2773 32.0764 26.2248 32.0321 26.1108L32.0321 26.1106L30.5667 22.3526C30.5667 22.3526 30.5667 22.3526 30.5667 22.3526C30.5535 22.3186 30.5578 22.2742 30.5858 22.2281C30.6143 22.1813 30.6587 22.148 30.6989 22.1371L30.6989 22.1371L30.6994 22.137C30.7929 22.1112 30.8855 22.1637 30.9298 22.2777L30.9298 22.2779C31.4186 23.5304 31.9071 24.7828 32.3952 26.0353M31.0408 22.2346C30.9814 22.0817 30.8371 21.9755 30.6678 22.0222L31.0408 22.2346Z" fill="#2928E3" stroke="#2928E3" stroke-width="0.238095"/>
<path d="M33.9198 24.2947L33.9199 24.2946L33.9174 24.2908L32.3484 21.8228C32.3245 21.7808 32.3179 21.731 32.3302 21.6841C32.3426 21.6367 32.3734 21.5961 32.4156 21.5714C32.4578 21.5467 32.5081 21.5398 32.5554 21.5522C32.6026 21.5646 32.6431 21.5954 32.6678 21.6378L32.6677 21.6378L32.6702 21.6416L34.2392 24.1096C34.2509 24.1302 34.2586 24.1528 34.2618 24.1762C34.2651 24.2003 34.2636 24.2248 34.2574 24.2483C34.2513 24.2718 34.2405 24.2939 34.2259 24.3132C34.2112 24.3326 34.1929 24.3488 34.172 24.3611C34.1511 24.3733 34.128 24.3813 34.104 24.3846C34.08 24.3879 34.0556 24.3864 34.0322 24.3802C34.0088 24.3741 33.9868 24.3634 33.9675 24.3487C33.9483 24.334 33.932 24.3157 33.9198 24.2947Z" fill="#2928E3" stroke="#2928E3" stroke-width="0.238095"/>
<path d="M28.4106 24.4557L28.293 24.4741C28.4948 25.7675 28.9309 27.0131 29.5798 28.1494L29.5799 28.1496C29.6119 28.2055 29.6117 28.2527 29.5986 28.2906C29.5844 28.3314 29.552 28.3698 29.5077 28.3958C29.4633 28.4217 29.4145 28.4309 29.373 28.4231C29.3347 28.416 29.2944 28.3933 29.2622 28.3377C28.5991 27.1819 28.152 25.9147 27.9428 24.5983L27.8252 24.6169M28.4106 24.4557L28.293 24.4741C28.2876 24.4398 28.262 24.4043 28.2135 24.3788C28.1643 24.353 28.1086 24.3472 28.0694 24.358C27.9725 24.3857 27.9235 24.4752 27.9428 24.5985L27.8252 24.6169M28.4106 24.4557C28.3851 24.293 28.1824 24.203 28.0372 24.2433C27.8644 24.2925 27.7997 24.4542 27.8252 24.6169M28.4106 24.4557C28.6102 25.7348 29.0415 26.9666 29.6832 28.0904C29.878 28.4306 29.3553 28.7363 29.159 28.3971L27.8252 24.6169" fill="#2928E3" stroke="#2928E3" stroke-width="0.238095"/>
<path d="M26.8176 28.748L26.8175 28.7479C26.357 27.7142 26.0945 26.603 26.0437 25.4723L26.8176 28.748ZM26.8176 28.748C26.8684 28.8618 26.8429 28.9623 26.757 29.0127L26.8173 29.1153L26.7573 29.0125C26.7223 29.0329 26.6673 29.0413 26.6129 29.0287C26.5592 29.0162 26.5248 28.9882 26.5105 28.957M26.8176 28.748L26.5105 28.957M26.5105 28.957C26.0145 27.855 25.731 26.669 25.675 25.4614L26.5105 28.957ZM25.7201 25.3349C25.6937 25.3584 25.672 25.3966 25.675 25.4614L25.7201 25.3349ZM25.7201 25.3349C25.7492 25.3088 25.7939 25.2921 25.8456 25.2923M25.7201 25.3349L25.8456 25.2923M25.8456 25.2923C25.9501 25.2926 26.0384 25.356 26.0437 25.4722L25.8456 25.2923Z" fill="#2928E3" stroke="#2928E3" stroke-width="0.238095"/>
<path d="M22.8664 29.8967C22.8993 30.0574 23.0892 30.1503 23.2394 30.109C23.4067 30.0633 23.4848 29.8967 23.4514 29.7349L22.8198 26.6321C22.7874 26.4709 22.597 26.378 22.4468 26.4198M22.8664 29.8967L22.9831 29.8729L22.983 29.8729C22.9911 29.9119 23.0195 29.949 23.0657 29.974C23.1124 29.9993 23.1659 30.0058 23.2078 29.9942L23.208 29.9942C23.3029 29.9683 23.3581 29.8719 23.3348 29.759L23.3347 29.7587L22.7031 26.6559L22.7031 26.6556L22.7031 26.6556C22.6952 26.6165 22.6668 26.5795 22.6207 26.5545C22.5743 26.5293 22.5212 26.5229 22.4795 26.5342M22.8664 29.8967L22.983 29.8728L22.3538 26.7828M22.8664 29.8967L22.2348 26.7948M22.4795 26.5342C22.4798 26.5342 22.4801 26.5341 22.4804 26.534L22.4468 26.4198M22.4795 26.5342C22.4328 26.5482 22.3932 26.5798 22.369 26.6224C22.3446 26.6653 22.3379 26.716 22.3501 26.7638L22.3538 26.7784V26.7828M22.4795 26.5342C22.4793 26.5343 22.479 26.5344 22.4787 26.5345L22.4468 26.4198M22.4468 26.4198C22.37 26.4424 22.305 26.494 22.2654 26.5637C22.2259 26.6334 22.2149 26.7157 22.2348 26.7934L22.3538 26.7828M22.3538 26.7828L22.3515 26.7711L22.242 26.7934L22.2348 26.7948M22.3538 26.7828V26.7934V26.7948H22.2348M22.3538 26.7828L22.2348 26.7948" fill="#2928E3" stroke="#2928E3" stroke-width="0.238095"/>
<path d="M19.5568 29.8153L19.5568 29.8153C19.6903 28.7838 19.8225 27.7528 19.9534 26.722L19.8353 26.707L19.9533 26.7222C19.9615 26.6587 19.9844 26.6072 20.015 26.5735C20.0434 26.5423 20.0821 26.5218 20.1385 26.5218C20.1785 26.5218 20.2316 26.5423 20.273 26.5808C20.3139 26.6188 20.3284 26.6593 20.3242 26.6921L20.4423 26.707L20.3243 26.6917C20.1908 27.7225 20.0586 28.7536 19.9277 29.785L20.0458 29.8L19.9277 29.7847C19.9195 29.8479 19.8967 29.8993 19.8661 29.9329C19.8377 29.964 19.7988 29.9847 19.742 29.9847C19.7023 29.9847 19.6492 29.9642 19.6077 29.9257C19.5668 29.8877 19.5526 29.8475 19.5568 29.8153Z" fill="#2928E3" stroke="#2928E3" stroke-width="0.238095"/>
<path d="M17.2313 25.8728L17.1469 25.9568C17.2159 26.0261 17.216 26.137 17.1406 26.2259L17.1404 26.2262C16.5874 26.881 16.27 27.7028 16.2388 28.5599L16.2385 28.5599L16.2388 28.569C16.2399 28.5939 16.2358 28.6188 16.227 28.6422C16.2181 28.6655 16.2047 28.6868 16.1874 28.7048L16.2704 28.7844L16.1874 28.7048C16.1702 28.7228 16.1495 28.7371 16.1266 28.7469C16.1037 28.7566 16.0791 28.7617 16.0543 28.7617C16.0294 28.7617 16.0048 28.7566 15.9819 28.7469C15.959 28.7371 15.9383 28.7228 15.9211 28.7048C15.9039 28.6868 15.8904 28.6655 15.8816 28.6422C15.8727 28.6188 15.8687 28.5939 15.8697 28.569L15.8697 28.5687C15.9058 27.6057 16.2663 26.6833 16.8924 25.9517L16.9028 25.9395C16.9285 25.9164 16.9666 25.9027 17.0129 25.9039C17.0667 25.9053 17.1169 25.9267 17.1471 25.9569L17.2313 25.8728ZM17.2313 25.8728C17.1224 25.7637 16.9089 25.7475 16.8019 25.8728V25.8743C16.1584 26.6263 15.7879 27.5744 15.7507 28.5642C15.7491 28.6052 15.7557 28.646 15.7702 28.6843C15.7848 28.7227 15.8068 28.7577 15.8352 28.7872C15.8635 28.8168 15.8976 28.8403 15.9352 28.8564C15.9728 28.8724 16.0133 28.8807 16.0543 28.8807C16.0952 28.8807 16.1357 28.8724 16.1733 28.8564C16.211 28.8403 16.245 28.8168 16.2733 28.7872C16.3017 28.7577 16.3238 28.7227 16.3383 28.6843C16.3528 28.646 16.3594 28.6052 16.3578 28.5642C16.388 27.7337 16.6956 26.9375 17.2313 26.303C17.3373 26.1781 17.3535 25.9957 17.2313 25.8728Z" fill="#2928E3" stroke="#2928E3" stroke-width="0.238095"/>
<path d="M12.1737 27.5901C12.5191 26.5664 13.1069 25.6432 13.8852 24.8987V24.91L14.087 24.7147C14.1224 24.6805 14.1696 24.6614 14.2187 24.6614C14.2675 24.6614 14.3144 24.6802 14.3496 24.714C14.3803 24.7451 14.4009 24.7946 14.402 24.8474C14.403 24.8998 14.3849 24.9428 14.3548 24.9692L14.4332 25.0588L14.355 24.9691C13.5217 25.6955 12.8936 26.6285 12.5338 27.6746L12.5337 27.6745L12.5322 27.6797C12.5182 27.7271 12.4864 27.7672 12.4436 27.7915C12.4011 27.8157 12.351 27.8225 12.3036 27.8106C12.2615 27.7987 12.2197 27.766 12.193 27.7208C12.1664 27.6759 12.1606 27.6289 12.1737 27.5902L12.1737 27.5901Z" fill="#2928E3" stroke="#2928E3" stroke-width="0.238095"/>
<path d="M11.8777 22.7989L11.8778 22.7988C11.9018 22.77 11.943 22.752 11.9964 22.7535C12.0506 22.7551 12.1012 22.7769 12.131 22.8068C12.1998 22.8757 12.2 22.9847 12.1238 23.076L12.1237 23.0761L10.0136 25.6095C10.0136 25.6096 10.0136 25.6096 10.0136 25.6096C9.9896 25.6382 9.94814 25.6563 9.8946 25.6548C9.84017 25.6533 9.78981 25.6315 9.76048 25.6019L9.76029 25.6018C9.6915 25.5328 9.69112 25.4239 9.76755 25.3319C9.76756 25.3319 9.76757 25.3319 9.76759 25.3318L11.8777 22.7989Z" fill="#2928E3" stroke="#2928E3" stroke-width="0.238095"/>
<path d="M9.72322 21.3534L9.72353 21.353C9.76163 21.3028 9.80714 21.2701 9.85059 21.2567C9.89108 21.2441 9.9352 21.2461 9.98356 21.2745L9.98382 21.2747C10.0185 21.295 10.0536 21.3392 10.0697 21.3932C10.0856 21.4465 10.0778 21.4894 10.0576 21.5163L10.0575 21.5165C9.31861 22.5043 8.33607 23.2828 7.20629 23.7756C7.14819 23.8004 7.0926 23.8063 7.04826 23.7967C7.00687 23.7878 6.96945 23.7644 6.94116 23.7158L6.94107 23.7157C6.92069 23.6808 6.91165 23.6246 6.92389 23.5695C6.93597 23.5152 6.9635 23.4823 6.99384 23.4692L6.94675 23.3599L6.99325 23.4695C8.07056 23.0123 9.01113 22.2832 9.72322 21.3534Z" fill="#2928E3" stroke="#2928E3" stroke-width="0.238095"/>
<path d="M7.56412 19.3163L7.61283 19.4249C7.61285 19.4249 7.61286 19.4249 7.61287 19.4249L7.61296 19.4248L7.56412 19.3163ZM4.406 21.2693C4.40598 21.2693 4.40596 21.2693 4.40594 21.2693L4.40587 21.2694L4.45472 21.3779L4.406 21.2693ZM4.19735 20.9615L4.14858 20.8531L4.19734 20.9615L4.19735 20.9615ZM7.82151 19.7327L7.87036 19.8413L7.82152 19.7327L7.82151 19.7327Z" fill="#2928E3" stroke="#2928E3" stroke-width="0.238095"/>
<path d="M4.47304 18.1302C4.48386 18.1124 4.49515 18.0939 4.50691 18.0748C4.66067 17.8249 4.89467 17.4674 5.21348 17.0406C5.85131 16.1867 6.82725 15.0575 8.17752 13.9595C10.8748 11.7663 15.0695 9.69381 21.0674 10.1945C27.0758 10.696 30.7508 13.0888 32.9237 15.3429C34.0118 16.4717 34.7258 17.5687 35.1672 18.3816C35.3879 18.7881 35.5402 19.1232 35.6369 19.3554C35.6413 19.3657 35.6455 19.3759 35.6496 19.3858L4.47304 18.1302Z" fill="#2928E3" stroke="#2928E3" stroke-width="0.47619"/>
</g>
<defs>
<clipPath id="clip0_1030_5946">
<rect width="32" height="20.2381" fill="white" transform="translate(4 9.88086)"/>
</clipPath>
</defs>
</svg>
