<svg width="31" height="30" viewBox="0 0 31 30" fill="none" xmlns="http://www.w3.org/2000/svg">
<path d="M29.7832 14.9988C25.401 13.8996 22.3826 12.6555 20.199 10.4691C18.0158 8.28303 16.7748 5.26271 15.6753 0.883398L15.6749 0.882768C15.6746 0.882518 15.6741 0.882353 15.6736 0.882353C15.6731 0.882353 15.6727 0.882518 15.6724 0.882767L15.6719 0.883394C14.5722 5.26343 13.3276 8.28369 11.1406 10.4697C8.95338 12.6558 5.93145 13.8999 1.54876 14.9991C1.54752 14.9994 1.54628 14.9997 1.54504 15C1.54628 15.0003 1.54752 15.0006 1.54876 15.0009C1.54909 15.001 1.54943 15.0011 1.54977 15.0012M29.7832 14.9988L29.7879 15C29.7867 15.0003 29.7855 15.0006 29.7842 15.0009C25.4014 16.1002 22.3828 17.3443 20.199 19.5309C18.0158 21.717 16.7748 24.7373 15.6753 29.1166L15.6749 29.1173L15.6751 29.1175L15.6749 29.1173C15.6746 29.1175 15.6742 29.1176 15.6736 29.1176C15.6734 29.1176 15.6732 29.1176 15.673 29.1176C15.6727 29.1175 15.6725 29.1174 15.6724 29.1173L15.6722 29.1175L15.6724 29.1173L15.6719 29.1166C14.5722 24.7366 13.3276 21.7163 11.1406 19.5303C8.95355 17.3444 5.93192 16.1003 1.54977 15.0012M29.7832 14.9988C29.7835 14.999 29.7838 14.9992 29.7839 14.9993L29.7842 15L29.7839 15.0007C29.7837 15.0009 29.7834 15.0012 29.7829 15.0013L30.0051 15.8552L29.7832 14.9988ZM1.54977 15.0012C1.54987 15.0012 1.54997 15.0013 1.55008 15.0013L1.32788 15.8552M1.54977 15.0012C1.54947 15.0011 1.54924 15.0009 1.54909 15.0007L1.54886 15L1.54909 14.9993C1.54928 14.9991 1.54962 14.9988 1.55008 14.9987L1.32788 14.1448M1.32788 15.8552L1.54044 15.0074L1.54228 15L1.54043 14.9926L1.32788 14.1448M1.32788 15.8552C1.13849 15.8059 0.970799 15.6952 0.85111 15.5405C0.731421 15.3857 0.666504 15.1956 0.666504 15C0.666504 14.8044 0.731421 14.6143 0.85111 14.4595C0.970799 14.3048 1.13849 14.1941 1.32788 14.1448M1.32788 15.8552L15.1329 0.18454C14.9781 0.304172 14.8673 0.47177 14.818 0.661071C12.6362 9.35566 10.0266 11.964 1.32788 14.1448" fill="#AAAEDF" stroke="#202227" stroke-width="1.76471"/>
</svg>
