<svg width="41" height="42" viewBox="0 0 41 42" fill="none" xmlns="http://www.w3.org/2000/svg">
<path d="M39.8468 21.2004C33.8642 22.7006 29.7839 24.39 26.8401 27.3377C23.8966 30.285 22.2115 34.3681 20.7107 40.347C20.6988 40.3904 20.6731 40.4289 20.6373 40.4565C20.6009 40.4847 20.556 40.5 20.5097 40.5C20.4635 40.5 20.4186 40.4847 20.3822 40.4565C20.3464 40.4289 20.3207 40.3904 20.3088 40.347C18.8078 34.3673 17.1176 30.2843 14.169 27.3371C11.2204 24.3899 7.1356 22.7006 1.15316 21.2003C1.1095 21.1884 1.07095 21.1626 1.04334 21.1269C1.01523 21.0905 1 21.0459 1 21C1 20.9541 1.01523 20.9095 1.04334 20.8731C1.07095 20.8374 1.10949 20.8116 1.15317 20.7997C7.1356 19.2994 11.2204 17.6101 14.169 14.6629C17.1176 11.7157 18.8078 7.6327 20.3088 1.653C20.3207 1.60964 20.3464 1.57119 20.3822 1.54353C20.4186 1.51533 20.4635 1.5 20.5097 1.5C20.556 1.5 20.6008 1.51533 20.6373 1.54353C20.6731 1.57119 20.6988 1.60964 20.7107 1.653C22.2115 7.63187 23.8966 11.715 26.8401 14.6623C29.7839 17.61 33.8643 19.2994 39.8468 20.7997C39.8905 20.8116 39.9291 20.8375 39.9567 20.8731C39.9848 20.9095 40 20.9541 40 21C40 21.0459 39.9848 21.0905 39.9567 21.1269C39.9291 21.1625 39.8905 21.1884 39.8468 21.2004Z" fill="#AAAEDF" stroke="#191A1F" stroke-width="2"/>
</svg>