<svg width="101" height="100" viewBox="0 0 101 100" fill="none" xmlns="http://www.w3.org/2000/svg">
<g clip-path="url(#clip0_1683_33380)">
<path opacity="0.6" d="M50.5 100C78.1142 100 100.5 77.6142 100.5 50C100.5 22.3858 78.1142 0 50.5 0C22.8858 0 0.5 22.3858 0.5 50C0.5 77.6142 22.8858 100 50.5 100Z" fill="#3C3BED"/>
<path d="M32.6484 20.3469C32.3121 19.356 33.6035 18.6401 34.2657 19.4504L43.3769 30.6001C44.0646 31.4416 45.4257 31.0472 45.5569 29.9684L47.2916 15.7063C47.418 14.6665 48.894 14.5823 49.138 15.6009L52.4849 29.5735C52.7383 30.6311 54.1367 30.8674 54.7234 29.9518L62.4889 17.8334C63.0536 16.9521 64.419 17.5151 64.1985 18.5383L61.1659 32.61C60.9369 33.6722 62.0936 34.4902 63.0188 33.9204L75.2588 26.3822C76.1505 25.833 77.1364 26.9341 76.4925 27.76L67.6527 39.0969C66.984 39.9546 67.6717 41.1952 68.7534 41.0826L83.052 39.5938C84.0936 39.4853 84.505 40.9049 83.5667 41.3701L70.6877 47.7555C69.7142 48.2382 69.795 49.6526 70.8171 50.0213L84.3577 54.9064C85.3422 55.2616 85.0961 56.7179 84.0495 56.7298L69.6575 56.8935C68.57 56.9058 68.0294 58.217 68.792 58.9922L78.8679 69.235C79.6024 69.9817 78.7488 71.1887 77.8 70.745L64.7859 64.6583C63.8014 64.1979 62.7457 65.1431 63.0949 66.1723L67.7221 79.8075C68.0584 80.7984 66.767 81.5143 66.1048 80.704L56.9936 69.5543C56.3059 68.7128 54.9448 69.1072 54.8136 70.186L53.079 84.4481C52.9525 85.4879 51.4765 85.5721 51.2325 84.5535L47.8856 70.5809C47.6323 69.5233 46.2338 69.287 45.6471 70.2026L37.8817 82.321C37.317 83.2023 35.9516 82.6393 36.1721 81.6161L39.2047 67.5444C39.4336 66.4822 38.2769 65.6642 37.3517 66.234L25.1117 73.7722C24.2201 74.3214 23.2341 73.2203 23.8781 72.3944L32.7178 61.0575C33.3866 60.1998 32.6989 58.9592 31.6171 59.0718L17.3185 60.5606C16.2769 60.6691 15.8656 59.2495 16.8038 58.7843L29.6828 52.3989C30.6563 51.9162 30.5756 50.5018 29.5535 50.1331L16.0128 45.248C15.0283 44.8928 15.2744 43.4365 16.321 43.4246L30.7131 43.2609C31.8005 43.2486 32.3412 41.9374 31.5785 41.1622L21.5027 30.9194C20.7681 30.1727 21.6217 28.9657 22.5705 29.4094L35.5847 35.4961C36.5691 35.9565 37.6248 35.0113 37.2756 33.9821L32.6484 20.3469Z" fill="url(#paint0_radial_1683_33380)" stroke="#03AA89" stroke-width="0.294118"/>
<path d="M47.2536 84.6353C46.9607 85.6399 45.4922 85.4856 45.4146 84.442L44.3463 70.0828C44.2656 68.9989 42.9245 68.5413 42.1982 69.3498L32.5969 80.0377C31.8969 80.8169 30.6395 80.0393 31.0239 79.0649L36.2966 65.6995C36.6957 64.6879 35.6857 63.6922 34.6799 64.1057L21.368 69.5785C20.4 69.9764 19.6044 68.7321 20.3719 68.0205L30.9273 58.233C31.7241 57.4942 31.2457 56.1607 30.161 56.0968L15.8109 55.2512C14.7655 55.1896 14.5894 53.7221 15.5906 53.4149L29.3343 49.1985C30.3741 48.8795 30.5223 47.4688 29.5716 46.9406L17.0049 39.9588C16.0895 39.4503 16.5668 38.0515 17.6022 38.2086L31.8145 40.365C32.8888 40.528 33.6339 39.3231 33.0082 38.4348L24.7184 26.6666C24.1156 25.8109 25.1525 24.7592 26.0166 25.3497L37.8998 33.4706C38.7976 34.0842 39.9926 33.3203 39.8125 32.2478L37.4339 18.0781C37.2605 17.0451 38.652 16.546 39.1747 17.4537L46.3441 29.9042C46.8864 30.846 48.2934 30.6773 48.5976 29.6339L52.628 15.8106C52.921 14.8059 54.3894 14.9603 54.4671 16.0039L55.5354 30.3631C55.616 31.4469 56.9572 31.9045 57.6834 31.096L67.2848 20.4082C67.9848 19.629 69.2422 20.4065 68.8578 21.3809L63.585 34.7464C63.1859 35.758 64.1959 36.7536 65.2017 36.3401L78.5136 30.8674C79.4817 30.4694 80.2772 31.7137 79.5098 32.4254L68.9543 42.2129C68.1576 42.9517 68.6359 44.2852 69.7206 44.3491L84.0708 45.1947C85.1162 45.2563 85.2922 46.7238 84.2911 47.0309L70.5474 51.2474C69.5076 51.5663 69.3593 52.977 70.3101 53.5052L82.8768 60.487C83.7922 60.9956 83.3149 62.3944 82.2795 62.2373L68.0671 60.0809C66.9928 59.9179 66.2477 61.1228 66.8735 62.0111L75.1633 73.7793C75.766 74.635 74.7292 75.6867 73.865 75.0961L61.9819 66.9753C61.084 66.3617 59.8891 67.1256 60.0691 68.1981L62.4478 82.3677C62.6212 83.4007 61.2296 83.8999 60.7069 82.9921L53.5375 70.5416C52.9952 69.5998 51.5882 69.7686 51.284 70.8119L47.2536 84.6353Z" fill="url(#paint1_radial_1683_33380)" stroke="#03AA89" stroke-width="0.294118"/>
<path d="M84.5118 48.9593C85.5416 49.1456 85.5416 50.6222 84.5118 50.8085L70.3429 53.3719C69.2735 53.5654 68.9586 54.947 69.8386 55.5848L81.4715 64.0163C82.3195 64.631 81.6777 65.9628 80.6685 65.6824L66.8251 61.8356C65.7773 61.5444 64.8927 62.653 65.4091 63.6101L72.2433 76.277C72.7403 77.1981 71.5859 78.1194 70.798 77.4305L59.9607 67.956C59.1427 67.2408 57.8665 67.8559 57.9163 68.9413L58.5753 83.3013C58.6234 84.3474 57.1823 84.6759 56.7722 83.7123L51.1423 70.4846C50.7163 69.4839 49.2979 69.4839 48.872 70.4846L43.242 83.7123C42.8319 84.6759 41.3909 84.3474 41.4389 83.3012L42.0979 68.9413C42.1477 67.8559 40.8715 67.2408 40.0535 67.956L29.2163 77.4305C28.4283 78.1194 27.2739 77.1981 27.7709 76.277L34.6052 63.6101C35.1215 62.653 34.2369 61.5444 33.1891 61.8356L19.3457 65.6824C18.3365 65.9628 17.6947 64.631 18.5428 64.0163L30.1757 55.5848C31.0556 54.947 30.7407 53.5654 29.6713 53.3719L15.5024 50.8085C14.4726 50.6222 14.4726 49.1456 15.5024 48.9593L29.6713 46.3959C30.7407 46.2024 31.0556 44.8208 30.1757 44.183L18.5428 35.7514C17.6947 35.1367 18.3365 33.805 19.3457 34.0854L33.1891 37.9322C34.2369 38.2233 35.1215 37.1148 34.6052 36.1577L27.7709 23.4908C27.274 22.5697 28.4283 21.6484 29.2163 22.3373L40.0535 31.8118C40.8715 32.527 42.1477 31.9119 42.0979 30.8264L41.4389 16.4665C41.3909 15.4204 42.8319 15.0919 43.242 16.0555L48.872 29.2831C49.2979 30.2839 50.7163 30.2839 51.1423 29.2831L56.7722 16.0555C57.1823 15.0919 58.6234 15.4204 58.5753 16.4665L57.9163 30.8264C57.8665 31.9119 59.1427 32.527 59.9607 31.8118L70.798 22.3373C71.5859 21.6484 72.7403 22.5697 72.2433 23.4908L65.4091 36.1577C64.8927 37.1148 65.7773 38.2233 66.8251 37.9322L80.6685 34.0854C81.6777 33.805 82.3196 35.1367 81.4715 35.7514L69.8386 44.183C68.9586 44.8208 69.2735 46.2024 70.3429 46.3959L84.5118 48.9593Z" fill="url(#paint2_radial_1683_33380)" stroke="#03AA89" stroke-width="0.294118"/>
</g>
<defs>
<radialGradient id="paint0_radial_1683_33380" cx="0" cy="0" r="1" gradientUnits="userSpaceOnUse" gradientTransform="translate(6.74941 46.1348) rotate(27.3099) scale(107.993 110.748)">
<stop stop-color="#8D83FF"/>
<stop offset="0.422508" stop-color="#FFB6B1"/>
<stop offset="0.54072" stop-color="#FFDFB1"/>
<stop offset="0.714" stop-color="#DCFF7B"/>
<stop offset="1" stop-color="#11F5C8"/>
</radialGradient>
<radialGradient id="paint1_radial_1683_33380" cx="0" cy="0" r="1" gradientUnits="userSpaceOnUse" gradientTransform="translate(83.2602 78.3661) rotate(-117.69) scale(107.993 110.748)">
<stop stop-color="#8D83FF"/>
<stop offset="0.422508" stop-color="#FFB6B1"/>
<stop offset="0.54072" stop-color="#FFDFB1"/>
<stop offset="0.714" stop-color="#DCFF7B"/>
<stop offset="1" stop-color="#11F5C8"/>
</radialGradient>
<radialGradient id="paint2_radial_1683_33380" cx="0" cy="0" r="1" gradientUnits="userSpaceOnUse" gradientTransform="translate(74.5133 13.8053) rotate(146.31) scale(107.993 110.748)">
<stop stop-color="#8D83FF"/>
<stop offset="0.422508" stop-color="#FFB6B1"/>
<stop offset="0.54072" stop-color="#FFDFB1"/>
<stop offset="0.714" stop-color="#DCFF7B"/>
<stop offset="1" stop-color="#11F5C8"/>
</radialGradient>
<clipPath id="clip0_1683_33380">
<rect width="100" height="100" fill="white" transform="translate(0.5)"/>
</clipPath>
</defs>
</svg>
