<svg width="101" height="100" viewBox="0 0 101 100" fill="none" xmlns="http://www.w3.org/2000/svg">
<circle cx="50.5" cy="50" r="50" fill="#FFECD0"/>
<g clip-path="url(#clip0_1683_33369)">
<path d="M27.439 30.7387C29.0758 28.311 30.9334 26.0453 32.988 23.9706C43.011 13.9307 58.5557 14.3264 69.8946 20.3251C77.5004 26.5103 81.9165 37.2571 81.2214 48.0767C80.5591 58.2145 75.7381 68.1603 67.6572 76.0782C63.3486 80.2844 58.9104 83.1114 54.4608 84.4548C50.6614 85.6024 46.8556 85.1873 43.5272 84.1695C43.2866 84.0953 43.0562 84.0169 42.8258 83.9386C41.9681 83.6542 41.1404 83.3234 40.3525 82.9867C39.4431 82.5827 38.5866 82.1469 37.8104 81.7182L37.7682 81.8055C37.7349 81.7813 37.6929 81.7691 37.6581 81.7454C27.026 76.3286 20.1926 67.2322 19.3695 57.4409C18.5892 48.018 22.3501 38.2331 27.439 30.7387ZM29.0856 60.6612C29.3684 61.1779 29.0573 61.5127 29.0566 62.0445C29.0593 62.6125 29.1842 63.1746 29.4224 63.6917C29.9039 64.8002 30.6791 65.6974 31.4936 66.4879C36.3402 71.2881 43.1352 73.6862 49.963 72.4758C54.0263 71.7479 58.0772 69.7889 61.4374 66.7579C63.1399 65.2334 64.6151 63.4671 65.8181 61.5128C66.2416 60.8394 66.3909 60.3247 66.7615 60.4167C66.8929 60.4538 67.0137 60.5227 67.1137 60.6173C67.8765 61.2881 68.147 62.2161 69.1816 62.609C69.288 62.6633 69.4079 62.6836 69.5252 62.6673C69.7731 62.622 69.946 62.3413 70.0632 62.0728C70.7613 60.5125 70.8538 58.7368 70.3227 57.0954C70.1742 55.0312 67.8412 53.7261 66.2082 53.6487C65.5242 53.6233 63.3125 53.5688 62.8772 54.4047C62.2653 55.6001 64.4275 56.8867 64.8822 57.5911C64.9893 57.7365 65.0641 57.9034 65.1017 58.0802C65.1516 58.3497 65.0492 58.6466 64.9382 58.9263C63.6296 62.3576 60.8892 64.4215 58.3827 66.6137C56.0417 68.6434 53.1374 69.8957 50.0558 70.2043C43.5779 70.8756 37.3299 68.0388 32.9514 63.3341C32.3137 62.6522 30.7844 60.6555 30.9044 59.5183C30.9597 58.9714 31.3883 58.5359 31.782 58.1762C32.7083 57.3048 33.6384 56.4506 34.5846 55.6243C34.4746 54.8767 33.6644 54.6931 32.9826 54.7149C30.3783 54.7933 27.6729 56.164 25.7044 58.3789C24.8796 59.3225 24.159 60.4572 23.9905 61.7117C23.9289 62.172 23.9654 62.6836 24.2688 62.9468C24.6863 63.2924 25.3234 62.9682 25.8228 62.6618C26.8999 61.9883 27.9763 61.1883 29.0856 60.6612ZM40.637 48.814C42.8573 47.6392 41.5127 42.931 41.4046 40.9791C41.2888 38.9874 41.9786 37.9474 43.1726 36.4586C45.155 34.0323 45.111 31.2178 45.1358 28.2401C45.1559 26.6221 44.0679 23.871 41.9331 25.049C40.1176 26.05 41.2729 29.4099 41.199 31.0154C41.0904 33.4355 39.2045 35.2501 38.191 37.2609C37.0836 39.5108 36.6915 42.0601 37.0681 44.5622C37.2567 45.8335 37.8328 48.6182 39.3037 49.0321C39.7608 49.1396 40.2391 49.0615 40.6356 48.8145L40.637 48.814ZM56.0239 49.0985C58.2442 47.9237 56.901 43.215 56.7928 41.2631C56.667 39.284 57.3654 38.232 58.5714 36.7521C60.5347 34.3284 60.4983 31.5159 60.5227 28.5246C60.5342 27.4776 60.4416 26.2395 59.4902 25.5523C57.1204 23.8558 56.2617 26.9664 56.3805 28.6946C56.4348 29.571 56.6158 30.4358 56.5832 31.3181C56.4832 33.7262 54.5903 35.5282 53.5645 37.5543C52.4623 39.8059 52.0705 42.3535 52.4417 44.8555C52.6303 46.1269 53.2149 48.8996 54.6844 49.314C55.1431 49.4237 55.6238 49.3465 56.0225 49.0991L56.0239 49.0985Z" fill="#0F049A"/>
<path d="M24.3364 62.9185C24.753 63.2633 25.3886 62.9398 25.8868 62.6342C26.9463 61.9581 28.0202 61.1599 29.1293 60.6399C29.4115 61.1554 29.1011 61.4895 29.1004 62.02C29.1031 62.5867 29.2277 63.1475 29.4654 63.6635C29.9458 64.7694 30.7191 65.6646 31.5318 66.4532C36.3672 71.2424 43.1466 73.635 49.9586 72.4273C54.0125 71.7011 58.0541 69.7466 61.4066 66.7226C63.1051 65.2016 64.5769 63.4393 65.7771 61.4895C66.1997 60.8176 66.3486 60.3042 66.7184 60.3959C66.8495 60.433 66.97 60.5017 67.0697 60.5961C67.8308 61.2653 68.1007 62.1912 69.1329 62.5832C69.2391 62.6373 69.3587 62.6576 69.4757 62.6414C69.723 62.5962 69.8955 62.3161 70.0125 62.0482C70.709 60.4915 70.8013 58.7199 70.2713 57.0823C70.1232 55.0228 67.7956 53.7207 66.1663 53.6434C65.4839 53.6181 63.2773 53.5637 62.843 54.3978C62.2325 55.5903 64.3897 56.874 64.8434 57.5768C64.9502 57.7219 65.0249 57.8884 65.0624 58.0648C65.1122 58.3337 65.01 58.6299 64.8993 58.9089C63.5937 62.3324 60.8596 64.3915 58.3589 66.5787C56.0232 68.6037 53.1257 69.8532 50.0512 70.1611C43.5882 70.8309 37.3546 68.0006 32.9862 63.3066C32.35 62.6263 30.8243 60.6342 30.9439 59.4996C30.9991 58.9539 31.4268 58.5194 31.8195 58.1606C32.7437 57.2911 33.6717 56.439 34.6157 55.6145C34.5059 54.8686 33.6976 54.6855 33.0173 54.7072C30.419 54.7854 27.7199 56.153 25.7559 58.3628C24.9331 59.3042 24.2141 60.4363 24.046 61.6879C23.9972 62.1455 24.0337 62.6559 24.3364 62.9185Z" fill="#F9F9FA"/>
<path d="M37.0922 44.5811C37.2804 45.8495 37.855 48.6279 39.3225 49.0408C39.7791 49.1483 40.2571 49.0701 40.653 48.8231C42.8681 47.651 41.5265 42.9537 41.4186 41.0062C41.303 39.0191 41.9912 37.9816 43.1825 36.4962C45.1604 34.0755 45.1165 31.2674 45.1412 28.2965C45.1612 26.6822 44.0759 23.9374 41.946 25.1127C40.1347 26.1114 41.2874 29.4636 41.2136 31.0653C41.1053 33.4799 39.2235 35.2905 38.2124 37.2966C37.1076 39.5413 36.7165 42.0848 37.0922 44.5811Z" fill="#F9F9FA"/>
<path d="M52.4341 44.8699C52.6222 46.1383 53.2054 48.9047 54.6714 49.3182C55.128 49.4253 55.6058 49.3472 56.0018 49.1005C58.217 47.9284 56.8769 43.2305 56.769 41.283C56.6434 39.3085 57.3402 38.2589 58.5435 36.7824C60.5022 34.3642 60.4658 31.5583 60.4901 28.5738C60.5016 27.5292 60.4092 26.2939 59.46 25.6083C57.0957 23.9157 56.2389 27.0192 56.3575 28.7434C56.4117 29.6178 56.5922 30.4806 56.5597 31.3609C56.4599 33.7635 54.5715 35.5613 53.5481 37.5827C52.45 39.8306 52.0613 42.3734 52.4341 44.8699Z" fill="#F9F9FA"/>
</g>
<defs>
<clipPath id="clip0_1683_33369">
<rect width="65.4412" height="66.3128" fill="white" transform="translate(7.85254 31.8679) rotate(-22)"/>
</clipPath>
</defs>
</svg>
