<svg width="101" height="100" viewBox="0 0 101 100" fill="none" xmlns="http://www.w3.org/2000/svg">
<circle cx="50.5" cy="50" r="50" fill="#8D83FF"/>
<g clip-path="url(#clip0_1683_33346)" filter="url(#filter0_d_1683_33346)">
<path d="M90.3446 53.0036L90.3446 53.003C90.3615 52.7804 90.4653 52.5881 90.5913 52.4297C90.7177 52.2709 90.8831 52.1252 91.0606 51.9915C91.3999 51.736 91.8352 51.4873 92.2465 51.2523L92.2966 51.2237C92.7349 50.9732 93.1416 50.7379 93.4402 50.5039C93.5886 50.3876 93.6954 50.2828 93.7631 50.1897C93.8302 50.0974 93.8447 50.0363 93.8447 49.9993C93.8447 49.9623 93.8302 49.9012 93.7631 49.809C93.6955 49.7159 93.5886 49.6111 93.4402 49.4949C93.1417 49.261 92.7349 49.0257 92.2966 48.7753L92.2471 48.747C91.8356 48.512 91.4001 48.2632 91.0606 48.0075C90.883 47.8738 90.7177 47.728 90.5913 47.5691C90.4653 47.4107 90.3615 47.2183 90.3446 46.9956L90.3446 46.995C90.328 46.7716 90.401 46.5649 90.5021 46.3878C90.6033 46.2104 90.7451 46.0405 90.901 45.8809C91.203 45.5717 91.6037 45.2563 91.9807 44.9595L92.0104 44.9361C92.4072 44.6237 92.775 44.3319 93.0363 44.058C93.1662 43.9218 93.2565 43.8034 93.3097 43.7025C93.3626 43.6024 93.3673 43.5421 93.3623 43.5084C93.3568 43.4723 93.3335 43.4145 93.2537 43.3336C93.1731 43.2518 93.0519 43.1642 92.8879 43.0713C92.558 42.8845 92.1209 42.7123 91.6502 42.5296L91.5994 42.5099C91.1569 42.3381 90.6884 42.1563 90.314 41.9532C90.1186 41.8471 89.9334 41.7273 89.7849 41.5886C89.6368 41.4504 89.5058 41.2754 89.4562 41.0575L89.4562 41.0574C89.4066 40.839 89.4482 40.6239 89.5217 40.434C89.5953 40.2436 89.7102 40.0546 89.8405 39.8736C90.0925 39.5236 90.4406 39.1526 90.7683 38.8033L90.7961 38.7737C91.1416 38.4053 91.4616 38.0617 91.6788 37.7516C91.7868 37.5975 91.8583 37.4667 91.8958 37.359C91.9329 37.2521 91.9286 37.1917 91.9186 37.1589C91.908 37.1245 91.8767 37.0711 91.7857 37.0033C91.6939 36.9349 91.5612 36.8667 91.3853 36.7999C91.0313 36.6653 90.5736 36.5614 90.0808 36.4517L90.0344 36.4414C89.5691 36.3379 89.0756 36.2282 88.6726 36.0822C88.4631 36.0063 88.2618 35.9151 88.0939 35.7996C87.9263 35.6843 87.7707 35.5301 87.6888 35.3217C87.6069 35.1133 87.6159 34.8945 87.6602 34.6959C87.7046 34.497 87.7899 34.2931 87.8917 34.095C88.0877 33.7133 88.3748 33.2967 88.6455 32.9039L88.6717 32.8658C88.9581 32.4501 89.2227 32.0625 89.3906 31.7231C89.4741 31.5544 89.525 31.4142 89.5457 31.3017C89.5663 31.1901 89.5529 31.13 89.5374 31.0978C89.5219 31.0657 89.4832 31.0178 89.383 30.9644C89.2821 30.9106 89.1406 30.8631 88.9566 30.8234C88.5863 30.7434 88.1181 30.7092 87.6143 30.6745L87.5674 30.6713C87.0916 30.6386 86.587 30.604 86.1665 30.5199C85.9481 30.4763 85.7355 30.4163 85.5522 30.3273C85.3693 30.2385 85.1924 30.1094 85.0803 29.9156C84.9683 29.7218 84.9446 29.5042 84.9589 29.3014C84.9731 29.0981 85.0271 28.8839 85.0981 28.6728C85.2349 28.2665 85.4564 27.8118 85.6652 27.3831L85.6858 27.3409C85.9068 26.887 86.1105 26.464 86.2258 26.1032C86.2831 25.9239 86.3125 25.7776 86.3162 25.6632C86.3198 25.5497 86.2976 25.4921 86.2775 25.4626C86.2573 25.4332 86.2119 25.3915 86.1048 25.3536C85.9969 25.3153 85.8498 25.2895 85.6619 25.2775C85.2837 25.2535 84.8154 25.2893 84.312 25.33L84.2643 25.3338C83.7891 25.3723 83.2852 25.413 82.8572 25.3926C82.6348 25.382 82.4156 25.3544 82.2212 25.2937C82.0272 25.2332 81.833 25.1321 81.6934 24.9572C81.5538 24.7823 81.4981 24.5706 81.482 24.3681C81.4659 24.165 81.4874 23.9452 81.5262 23.7259C81.601 23.3036 81.7523 22.8206 81.895 22.3653L81.9088 22.3212C82.0597 21.8394 82.1982 21.3907 82.2586 21.0167C82.2886 20.8308 82.296 20.6818 82.2827 20.5681C82.2695 20.4553 82.239 20.4019 82.215 20.3761C82.191 20.3502 82.1401 20.3159 82.0285 20.2943C81.9161 20.2725 81.7668 20.2688 81.5791 20.2849C81.2015 20.3172 80.7435 20.4219 80.2516 20.5365L80.206 20.5472C79.7413 20.6555 79.2485 20.7704 78.8218 20.8136C78.6003 20.836 78.3794 20.8411 78.1782 20.8099C77.9775 20.7788 77.7705 20.7076 77.6066 20.5553C77.4427 20.4031 77.3563 20.202 77.3104 20.0042C77.2644 19.8058 77.2531 19.5852 77.259 19.3626C77.2703 18.9338 77.3483 18.4337 77.4218 17.9621L77.4289 17.9165C77.5067 17.4176 77.577 16.9532 77.5813 16.5743C77.5834 16.386 77.5686 16.2375 77.5387 16.127C77.5089 16.0174 77.4709 15.9693 77.4435 15.9474C77.4161 15.9256 77.3608 15.8991 77.2473 15.8943C77.1329 15.8895 76.9848 15.908 76.8015 15.9517C76.4329 16.0396 75.9954 16.211 75.5259 16.3972L75.4823 16.4145C75.0388 16.5905 74.5685 16.777 74.153 16.8829C73.9372 16.9379 73.7197 16.9758 73.5161 16.9749C73.3131 16.9739 73.0979 16.9343 72.9132 16.8082C72.7285 16.6821 72.6133 16.496 72.5385 16.3073C72.4636 16.118 72.4196 15.9016 72.3923 15.6806C72.3397 15.2547 72.3424 14.7484 72.345 14.271L72.3452 14.2249C72.3478 13.7198 72.3483 13.25 72.2962 12.8747C72.2703 12.6882 72.2336 12.5435 72.1875 12.4388C72.1418 12.3349 72.0972 12.2931 72.0671 12.2757C72.0369 12.2583 71.9784 12.2404 71.8654 12.2527C71.7515 12.265 71.6077 12.3053 71.433 12.3758C71.0815 12.5177 70.6743 12.7523 70.2377 13.0062L70.1971 13.0298C69.7847 13.2698 69.3473 13.5243 68.9522 13.6908C68.747 13.7773 68.5375 13.8471 68.3362 13.8766C68.1354 13.9059 67.9167 13.8989 67.7153 13.8018C67.514 13.7047 67.3723 13.538 67.2703 13.3626C67.1679 13.1866 67.0921 12.9792 67.032 12.7648C66.9163 12.3516 66.8431 11.8505 66.7741 11.378L66.7674 11.3325C66.6944 10.8326 66.6245 10.3679 66.5168 10.0046C66.4633 9.82401 66.4055 9.68643 66.3444 9.58983C66.2837 9.49389 66.2334 9.45947 66.2014 9.44691C66.1695 9.43435 66.1093 9.42543 65.9998 9.45445C65.8895 9.48368 65.7536 9.54514 65.5918 9.64113C65.2661 9.83427 64.8992 10.1273 64.5057 10.4441L64.4734 10.4701C64.1005 10.7704 63.7047 11.0891 63.337 11.3139C63.1468 11.4301 62.9497 11.5305 62.7544 11.5896C62.5596 11.6485 62.342 11.6739 62.128 11.608L62.128 11.608C61.9144 11.5421 61.7496 11.3984 61.6227 11.2403C61.4955 11.0818 61.3899 10.8881 61.2987 10.6852C61.1239 10.2962 60.9776 9.81478 60.8395 9.36021L60.8241 9.3096C60.6773 8.82661 60.5385 8.37789 60.3771 8.03493C60.2969 7.86449 60.2187 7.73711 60.1433 7.65063C60.0686 7.56498 60.0128 7.53756 59.9775 7.52946C59.9443 7.52192 59.8837 7.52207 59.7799 7.56725C59.6753 7.61274 59.5503 7.69391 59.4048 7.81315C59.1119 8.05308 58.7932 8.39793 58.4517 8.77015L58.4252 8.7991C58.1011 9.15241 57.7568 9.52771 57.4263 9.80548C57.2555 9.94897 57.0755 10.0777 56.8912 10.1654C56.7072 10.2529 56.4958 10.3105 56.2743 10.2774L56.2742 10.2774C56.0532 10.2443 55.8688 10.1268 55.7198 9.9895C55.5705 9.85178 55.4372 9.67613 55.3168 9.4892C55.0865 9.13128 54.8704 8.67787 54.6663 8.24962L54.6427 8.20013C54.4255 7.74457 54.2213 7.32164 54.0104 7.00667C53.9056 6.85015 53.8091 6.73588 53.7214 6.66159C53.6346 6.58799 53.575 6.56903 53.5382 6.56627L90.3446 53.0036ZM90.3446 53.0036C90.328 53.227 90.401 53.4337 90.502 53.6108C90.6032 53.7883 90.745 53.9583 90.9009 54.1179C91.2031 54.4274 91.604 54.7431 91.9811 55.0402L92.0103 55.0632C92.4072 55.3759 92.775 55.6677 93.0363 55.9417C93.1662 56.0778 93.2566 56.1963 93.3098 56.297C93.3626 56.3971 93.3673 56.4572 93.3623 56.4906M90.3446 53.0036L93.3623 56.4906M93.3623 56.4906C93.3568 56.5267 93.3336 56.5845 93.2537 56.6655C93.1731 56.7473 93.0519 56.8349 92.888 56.9278C92.558 57.1146 92.1209 57.2868 91.6503 57.4694L91.5994 57.4892C91.1569 57.6609 90.6884 57.8426 90.3141 58.0457C90.1186 58.1517 89.9335 58.2715 89.785 58.4101C89.6369 58.5482 89.5058 58.7232 89.4562 58.9411L89.4562 58.9412C89.4066 59.1596 89.4482 59.3747 89.5217 59.5646C89.5953 59.755 89.7102 59.944 89.8405 60.125C90.0925 60.4751 90.4407 60.8462 90.7685 61.1956L90.7961 61.2251C91.1416 61.5935 91.4616 61.9371 91.6788 62.2472C91.7868 62.4014 91.8583 62.5321 91.8958 62.6398C91.933 62.7467 91.9286 62.8071 91.9186 62.8397C91.9079 62.8742 91.8765 62.9277 91.7854 62.9958C91.6935 63.0645 91.5605 63.1329 91.3845 63.2001C91.0303 63.3352 90.5723 63.4399 90.0796 63.5501L90.0274 63.5617C89.5637 63.6653 89.0728 63.775 88.6718 63.9199C88.4626 63.9955 88.2615 64.0862 88.0938 64.201C87.9266 64.3154 87.7707 64.4688 87.6889 64.6767C87.607 64.8846 87.6165 65.1032 87.6609 65.3009C87.7054 65.4993 87.7908 65.7028 87.8924 65.9009C88.0881 66.282 88.3744 66.6988 88.6445 67.092L88.6716 67.1315C88.9577 67.548 89.2222 67.9367 89.3901 68.2767C89.4735 68.4456 89.5245 68.586 89.5453 68.6985C89.566 68.8102 89.5525 68.8696 89.5375 68.9005C89.5225 68.9315 89.4843 68.9791 89.384 69.0324C89.2829 69.0861 89.1412 69.1334 88.957 69.1732C88.5863 69.2532 88.1175 69.288 87.6134 69.3232L87.5685 69.3264C87.0917 69.3597 86.586 69.3951 86.165 69.4796C85.9467 69.5234 85.7342 69.5835 85.5512 69.6724C85.3686 69.7612 85.1917 69.8901 85.0801 70.0839C84.9685 70.2775 84.9454 70.495 84.9598 70.6973C84.9742 70.9003 85.0282 71.1143 85.0992 71.3253C85.2357 71.7315 85.4567 72.1862 85.6651 72.6151L85.6858 72.6578C85.9064 73.112 86.1098 73.5354 86.225 73.8964C86.2822 74.0758 86.3117 74.2222 86.3155 74.3366C86.3192 74.4502 86.297 74.5073 86.2774 74.5361C86.2578 74.5648 86.2129 74.6062 86.1058 74.644C85.998 74.6821 85.8509 74.7079 85.6628 74.7198C85.2845 74.7437 84.8157 74.7081 84.312 74.6678L84.2663 74.6641C83.7901 74.6259 83.2851 74.5854 82.8564 74.6061C82.6339 74.6169 82.4147 74.6447 82.2204 74.7054C82.0266 74.766 81.8324 74.8672 81.6931 75.0424C81.5539 75.2172 81.4986 75.4289 81.4827 75.6312C81.4668 75.8341 81.4883 76.0539 81.5272 76.2731C81.6019 76.6948 81.7528 77.1771 81.8952 77.6319L81.9095 77.6778C82.0602 78.1596 82.1985 78.6084 82.2587 78.9824C82.2887 79.1683 82.296 79.3174 82.2827 79.431C82.2694 79.5439 82.2389 79.5972 82.215 79.623C82.1911 79.6488 82.1403 79.6831 82.0288 79.7046C81.9164 79.7263 81.7672 79.7301 81.5796 79.714C81.202 79.6815 80.7441 79.5768 80.2522 79.4621L80.2074 79.4517C79.7425 79.3432 79.2493 79.2282 78.8223 79.1851C78.6007 79.1627 78.3798 79.1575 78.1786 79.1887C77.9778 79.2198 77.7708 79.291 77.6067 79.4432C77.4427 79.5953 77.3562 79.7965 77.3103 79.9944C77.2642 80.1927 77.2529 80.4133 77.2589 80.6359C77.2703 81.0645 77.3484 81.5642 77.4221 82.0354L77.4293 82.0818C77.5072 82.5807 77.5777 83.045 77.582 83.4239C77.5841 83.6121 77.5693 83.7607 77.5392 83.8711C77.5094 83.9807 77.4713 84.029 77.4436 84.0511C77.4159 84.0732 77.3603 84.0997 77.2467 84.1045C77.1324 84.1093 76.9842 84.0909 76.8011 84.0472C76.4325 83.9592 75.9954 83.7877 75.5261 83.6013L75.4829 83.5841C75.0395 83.408 74.5692 83.2211 74.1536 83.1152C73.9378 83.0602 73.7201 83.0224 73.5164 83.0234C73.3132 83.0244 73.0979 83.0642 72.9132 83.1904C72.7284 83.3166 72.613 83.5026 72.5381 83.6916C72.4631 83.8809 72.4191 84.0974 72.3919 84.3184C72.3395 84.7439 72.3425 85.2496 72.3453 85.7265L72.3456 85.7735C72.3485 86.2784 72.3492 86.7479 72.2971 87.1231C72.2712 87.3095 72.2345 87.4542 72.1884 87.559C72.1426 87.6629 72.0977 87.7051 72.0669 87.723C72.0362 87.7408 71.9772 87.7586 71.8644 87.7465C71.7507 87.7343 71.607 87.6941 71.4325 87.6236C71.0813 87.4817 70.6747 87.247 70.2385 86.9927L70.1983 86.9693C69.7862 86.729 69.349 86.4741 68.9537 86.3073C68.7485 86.2207 68.5388 86.1509 68.3371 86.1215C68.1359 86.0922 67.917 86.0996 67.7154 86.1968C67.5137 86.294 67.3717 86.4606 67.2693 86.6364C67.1668 86.8125 67.091 87.02 67.0311 87.2345C66.9157 87.6473 66.8433 88.1476 66.7751 88.6193L66.7683 88.6662C66.696 89.1657 66.6267 89.63 66.5191 89.993C66.4657 90.1735 66.4077 90.311 66.3464 90.4076C66.2856 90.5034 66.2348 90.5386 66.2014 90.5517C66.168 90.5648 66.1069 90.5737 65.9972 90.5448C65.8866 90.5157 65.7506 90.4543 65.5887 90.3584C65.2629 90.1654 64.8964 89.8723 64.5034 89.5553L64.4683 89.527C64.0968 89.2272 63.7025 88.9092 63.3363 88.6849C63.1463 88.5685 62.9493 88.4681 62.7541 88.409C62.5593 88.3501 62.3417 88.325 62.1278 88.3912C62.1277 88.3912 62.1276 88.3913 62.1275 88.3913L62.229 88.7189M93.3623 56.4906L53.3492 93.3656C53.2527 93.305 53.1413 93.2061 53.0151 93.0665C52.7613 92.7855 52.4975 92.397 52.2151 91.9781L52.1949 91.9482C51.9264 91.5498 51.6409 91.1263 51.3543 90.8018C51.2066 90.6345 51.0475 90.4805 50.8779 90.3665C50.7087 90.2527 50.5079 90.1646 50.2838 90.1646C50.0597 90.1646 49.8589 90.2527 49.6897 90.3665C49.5201 90.4805 49.361 90.6345 49.2133 90.8018C48.9266 91.1264 48.641 91.55 48.3723 91.9484L48.3524 91.9781C48.0699 92.397 47.8061 92.7855 47.5523 93.0665C47.4261 93.2061 47.3147 93.305 47.2182 93.3656C47.1223 93.4258 47.0628 93.4348 47.0294 93.4323C46.9927 93.4296 46.933 93.4107 46.846 93.337C46.7583 93.2626 46.6617 93.1483 46.5568 92.9918C46.3457 92.6768 46.1412 92.2539 45.9239 91.7984L45.8995 91.7473C45.6955 91.3195 45.4797 90.8669 45.2498 90.5095C45.1295 90.3226 44.9964 90.147 44.8473 90.0093C44.6986 89.872 44.5144 89.7543 44.2935 89.7212L44.2933 89.7212C44.0718 89.6882 43.8603 89.7457 43.6763 89.8332C43.4919 89.9209 43.3119 90.0496 43.1411 90.1931C42.8103 90.471 42.4659 90.8465 42.1416 91.2L42.1155 91.2284C41.774 91.6007 41.4554 91.9455 41.1625 92.1855C41.017 92.3047 40.8921 92.3859 40.7875 92.4314C40.6837 92.4765 40.6233 92.4767 40.5902 92.4691M62.229 88.7189C61.7352 88.8708 61.4501 89.8089 61.1644 90.7491C60.8706 91.7159 60.5761 92.6849 60.0534 92.8036C59.5385 92.9205 58.8607 92.1817 58.181 91.4408C57.5133 90.7129 56.8437 89.983 56.3249 90.0604C55.8146 90.1367 55.3932 91.0207 54.9706 91.9071C54.5355 92.8195 54.0992 93.7346 53.5635 93.7744M62.229 88.7189C62.7284 88.5641 63.4955 89.183 64.2623 89.8015C65.0463 90.434 65.8299 91.0661 66.3268 90.871C66.824 90.6757 66.9684 89.6779 67.1128 88.6803C67.2538 87.7061 67.3948 86.732 67.8643 86.5057C68.3339 86.2794 69.185 86.7756 70.0359 87.2716C70.9067 87.7793 71.7773 88.2869 72.2387 88.0198C72.7002 87.7527 72.6943 86.7445 72.6884 85.7364C72.6826 84.7517 72.6768 83.7672 73.1066 83.4736C73.5365 83.1801 74.4518 83.5436 75.3672 83.9073C76.3041 84.2794 77.241 84.6516 77.6576 84.3192C78.0742 83.9867 77.9184 82.9903 77.7628 81.9941C77.6107 81.0211 77.4587 80.0483 77.84 79.6946C78.2214 79.3408 79.1812 79.5646 80.1409 79.7884C81.1228 80.0174 82.1046 80.2463 82.4664 79.8563C82.8285 79.4661 82.5273 78.5034 82.2261 77.5409C81.9321 76.6014 81.6382 75.6621 81.9615 75.2559C82.285 74.8494 83.268 74.9282 84.251 75.007C85.2563 75.0875 86.2615 75.1681 86.5607 74.7294C86.8601 74.2903 86.4194 73.383 85.9788 72.4759C85.5485 71.5902 85.1183 70.7046 85.3773 70.2552C85.6365 69.8054 86.6206 69.7365 87.6045 69.6677C88.6103 69.5973 89.6158 69.527 89.8464 69.0497C90.0772 68.572 89.5055 67.7397 88.934 66.9077C88.3762 66.0955 87.8185 65.2836 88.008 64.8023C88.1971 64.3221 89.1541 64.1083 90.1131 63.894C91.0997 63.6736 92.0886 63.4527 92.2464 62.9407L62.229 88.7189ZM53.5635 93.7744L53.5382 93.4323C53.5382 93.4323 53.5382 93.4323 53.5381 93.4323L53.5635 93.7744ZM53.5635 93.7744C53.0385 93.8131 52.4792 92.9836 51.9178 92.1508C51.365 91.3307 50.8101 90.5076 50.2838 90.5076C49.7575 90.5076 49.2024 91.3309 48.6494 92.1511C48.088 92.9837 47.5288 93.8131 47.0041 93.7744C46.4674 93.7346 46.0302 92.818 45.5946 91.9047C45.1722 91.0191 44.7513 90.1367 44.2427 90.0604C43.7235 89.983 43.0537 90.7132 42.3858 91.4412C41.7063 92.182 41.0288 92.9205 40.5142 92.8036M40.5142 92.8036L40.5903 92.4692C40.5903 92.4692 40.5902 92.4691 40.5902 92.4691M40.5142 92.8036C39.9912 92.6846 39.6966 91.7154 39.4027 90.7485C39.1169 89.8084 38.8318 88.8706 38.3381 88.7184C37.8382 88.5644 37.0683 89.1844 36.2997 89.8033C35.5158 90.4346 34.7334 91.0647 34.2403 90.871C33.7466 90.677 33.6009 89.6794 33.4552 88.6817C33.3127 87.7065 33.1703 86.7312 32.7028 86.5057C32.2355 86.2804 31.3839 86.7758 30.5322 87.2712C29.6603 87.7784 28.7884 88.2857 28.3284 88.0198C27.8685 87.754 27.8738 86.7458 27.8791 85.7374C27.8843 84.752 27.8895 83.7665 27.4605 83.4736C27.0317 83.1808 26.1163 83.544 25.2007 83.9072C24.2632 84.2791 23.3254 84.6512 22.9096 84.3192C22.4938 83.9873 22.6492 82.9914 22.8046 81.9954C22.9564 81.0219 23.1083 80.0484 22.7271 79.6946C22.3459 79.3408 21.3866 79.5646 20.4271 79.7883C19.4451 80.0173 18.4631 80.2463 18.1007 79.8563C17.7384 79.4664 18.0398 78.5045 18.3412 77.5426C18.6359 76.6024 18.9305 75.6621 18.6056 75.2554C18.2809 74.849 17.2999 74.9283 16.3185 75.0076C15.3132 75.0889 14.3076 75.1702 14.0069 74.7294C13.7063 74.2886 14.1477 73.3821 14.589 72.4758C15.0199 71.5907 15.4508 70.7058 15.1904 70.2552C14.9299 69.8046 13.9479 69.7369 12.9656 69.6691C11.9596 69.5998 10.9533 69.5304 10.7213 69.0497C10.4893 68.5692 11.061 67.7397 11.6327 66.9099C12.1915 66.0991 12.7504 65.288 12.5596 64.8023C12.3688 64.3169 11.4082 64.1032 10.4473 63.8894C9.46334 63.6705 8.47919 63.4516 8.32176 62.9407M40.5142 92.8036L40.5902 92.4691M40.5902 92.4691L8.32176 62.9407M38.44 11.6078C38.2259 11.6741 38.0082 11.6489 37.8133 11.5899C37.618 11.5307 37.4211 11.4303 37.231 11.3139C36.8648 11.0896 36.4705 10.7715 36.099 10.4717L36.0638 10.4433C35.6708 10.1263 35.3042 9.83317 34.9784 9.64017C34.8165 9.54426 34.6805 9.48292 34.5699 9.45382C34.4602 9.42496 34.3991 9.43378 34.3657 9.44688C34.3323 9.46001 34.2815 9.49517 34.2207 9.59101C34.1594 9.68763 34.1014 9.82513 34.048 10.0056C33.9404 10.3686 33.8712 10.8329 33.7988 11.3324L33.792 11.3793C33.7238 11.851 33.6514 12.3513 33.5361 12.7641C33.4762 12.9786 33.4003 13.1862 33.2978 13.3623C33.1954 13.538 33.0534 13.7046 32.8517 13.8018C32.6501 13.899 32.4313 13.9064 32.2301 13.8771C32.0284 13.8477 31.8187 13.7779 31.6135 13.6913C31.2183 13.5245 30.7813 13.2696 30.3693 13.0294L30.329 13.0059C29.8929 12.7516 29.4864 12.5169 29.1353 12.375C28.9608 12.3045 28.8171 12.2643 28.7033 12.2521C28.5905 12.24 28.5315 12.2578 28.5006 12.2757C28.4698 12.2935 28.4249 12.3357 28.3791 12.4397C28.333 12.5444 28.2962 12.689 28.2703 12.8755C28.2183 13.2507 28.219 13.7202 28.222 14.2251L28.2223 14.272C28.2252 14.7489 28.2283 15.2547 28.1758 15.6802C28.1486 15.9012 28.1047 16.1177 28.0296 16.3071C27.9547 16.496 27.8392 16.6821 27.6544 16.8083C27.4696 16.9344 27.2543 16.9742 27.0511 16.9752C26.8473 16.9762 26.6297 16.9384 26.4139 16.8834C25.9983 16.7775 25.5281 16.5906 25.0848 16.4145L25.0415 16.3973C24.5723 16.2109 24.1352 16.0394 23.7667 15.9514C23.5836 15.9077 23.4354 15.8893 23.321 15.8941C23.2075 15.8989 23.1517 15.9254 23.1239 15.9476C23.0962 15.9697 23.058 16.0181 23.0282 16.1276C22.9981 16.2381 22.9832 16.3866 22.9853 16.5748C22.9894 16.9536 23.0598 17.4179 23.1377 17.9168L23.1451 17.964C23.2186 18.435 23.2966 18.9344 23.3081 19.3627C23.314 19.5852 23.3027 19.8058 23.2567 20.0042C23.2108 20.202 23.1244 20.4032 22.9604 20.5554C22.7965 20.7076 22.5895 20.7788 22.3888 20.8099C22.1875 20.8411 21.9667 20.8359 21.7451 20.8135C21.3184 20.7704 20.8255 20.6554 20.3608 20.547L20.3156 20.5365C19.8237 20.4218 19.3658 20.3171 18.9883 20.2846C18.8006 20.2685 18.6513 20.2723 18.539 20.294C18.4274 20.3155 18.3765 20.3499 18.3525 20.3757C18.3286 20.4015 18.298 20.4549 18.2848 20.5677C18.2714 20.6814 18.2787 20.8306 18.3086 21.0165C18.3687 21.3905 18.5068 21.8394 18.6575 22.3213L18.672 22.3677C18.8142 22.8225 18.965 23.3046 19.0397 23.7261C19.0786 23.9454 19.1002 24.1651 19.0843 24.3679C19.0684 24.5702 19.0132 24.7819 18.8741 24.9567C18.7347 25.1318 18.5406 25.233 18.3468 25.2936C18.1525 25.3542 17.9334 25.3819 17.711 25.3927C17.2824 25.4134 16.7775 25.3728 16.3015 25.3346L16.2556 25.3309C15.7519 25.2905 15.2831 25.2549 14.9048 25.2789C14.7167 25.2907 14.5696 25.3165 14.4618 25.3546C14.3547 25.3924 14.3098 25.4338 14.2903 25.4625C14.2706 25.4913 14.2484 25.5484 14.2521 25.662C14.2559 25.7764 14.2854 25.9228 14.3426 26.1022C14.4578 26.4632 14.6612 26.8866 14.8818 27.3408L14.9025 27.3834C15.1109 27.8123 15.3319 28.2671 15.4685 28.6733C15.5394 28.8843 15.5934 29.0983 15.6079 29.3013C15.6222 29.5036 15.5991 29.7211 15.4875 29.9147C15.3759 30.1085 15.199 30.2374 15.0164 30.3262C14.8334 30.4151 14.6209 30.4752 14.4026 30.519C13.9816 30.6035 13.4759 30.6389 12.9992 30.6722L12.9542 30.6754C12.4502 30.7106 11.9813 30.7454 11.6106 30.8254C11.4264 30.8652 11.2847 30.9125 11.1837 30.9662C11.0833 31.0195 11.0451 31.0671 11.0301 31.0981C11.0152 31.129 11.0017 31.1884 11.0223 31.3002C11.0431 31.4126 11.0941 31.553 11.1775 31.722C11.3453 32.0619 11.6098 32.4506 11.8958 32.8671L11.923 32.9067C12.1931 33.2999 12.4793 33.7167 12.675 34.0977C12.7766 34.2957 12.862 34.4993 12.9066 34.6976C12.951 34.8953 12.9606 35.1139 12.8788 35.3218C12.797 35.5297 12.6412 35.6831 12.474 35.7976C12.3064 35.9124 12.1053 36.0031 11.8961 36.0787C11.4952 36.2237 11.0042 36.3333 10.5405 36.4369L10.4885 36.4485C9.99576 36.5587 9.53777 36.6634 9.18359 36.7985C9.00758 36.8657 8.87466 36.9341 8.78276 37.0028C8.69157 37.0709 8.66018 37.1244 8.64955 37.1589L8.64952 37.159C8.63947 37.1916 8.63504 37.252 8.67221 37.3589C8.70965 37.4666 8.78114 37.5973 8.88906 37.7514C9.1062 38.0615 9.4261 38.4051 9.77163 38.7736L9.79934 38.8031C10.1271 39.1525 10.4751 39.5235 10.7271 39.8736C10.8574 40.0546 10.9723 40.2436 11.046 40.434C11.1194 40.6239 11.161 40.839 11.1115 41.0574L11.1114 41.0575C11.0618 41.2754 10.9308 41.4504 10.7827 41.5886C10.6342 41.7273 10.449 41.8471 10.2536 41.9531C9.87928 42.1562 9.41086 42.3379 8.96844 42.5096L8.91742 42.5294C8.44681 42.7121 8.00975 42.8843 7.6799 43.0711C7.51598 43.1639 7.39485 43.2516 7.31428 43.3334C7.23437 43.4145 7.2112 43.4724 7.20581 43.5085L7.20578 43.5087C7.20079 43.542 7.20538 43.6021 7.25818 43.7021C7.31135 43.8028 7.40165 43.9212 7.53148 44.0574C7.79273 44.3313 8.16053 44.623 8.55736 44.9356L8.58661 44.9587C8.96373 45.2557 9.36452 45.5713 9.66669 45.8808C9.82257 46.0404 9.96439 46.2103 10.0656 46.3878C10.1666 46.5649 10.2396 46.7716 10.2231 46.995L10.223 46.9956C10.2061 47.2182 10.1023 47.4105 9.97629 47.5689C9.84991 47.7277 9.68455 47.8734 9.50699 48.0071C9.16771 48.2626 8.73256 48.5112 8.32126 48.7462L8.27105 48.7749C7.83274 49.0254 7.42597 49.2607 7.12742 49.4947C6.97905 49.611 6.87217 49.7158 6.80452 49.8089C6.73742 49.9012 6.72288 49.9623 6.72288 49.9993C6.72288 50.0363 6.73741 50.0973 6.80455 50.1896C6.87224 50.2827 6.97918 50.3876 7.12763 50.5038C7.42635 50.7378 7.8333 50.9732 8.27176 51.2237L8.32135 51.252C8.73296 51.4871 9.16846 51.7359 9.50786 51.9915C9.68539 52.1252 9.85071 52.271 9.977 52.4299C10.1029 52.5883 10.2066 52.7808 10.2231 53.0036L40.5902 7.52946M38.44 11.6078C38.4399 11.6079 38.4398 11.6079 38.4397 11.6079L38.3386 11.2802L38.44 11.6078ZM38.44 11.6078C38.6534 11.542 38.818 11.3982 38.9447 11.2402C39.0719 11.0817 39.1775 10.8881 39.2687 10.6852C39.4433 10.2964 39.5895 9.81523 39.7275 9.36086L39.7431 9.3096C39.8899 8.82663 40.0287 8.37791 40.1902 8.03497C40.2704 7.86455 40.3487 7.73717 40.4241 7.65069C40.4988 7.56502 40.5547 7.53757 40.5902 7.52946M40.5902 7.52946L40.5142 7.19497L40.5903 7.52942M40.5902 7.52946L40.5903 7.52942M40.5903 7.52942C40.6235 7.52192 40.684 7.52213 40.7877 7.56725C40.8923 7.61273 41.0172 7.6939 41.1628 7.81314C41.4556 8.05307 41.7742 8.39791 42.1157 8.77014L42.142 8.79879C42.4661 9.15219 42.8105 9.52763 43.1411 9.80549C43.3119 9.94898 43.4919 10.0777 43.6763 10.1654C43.8603 10.2529 44.0718 10.3105 44.2933 10.2774L44.2934 10.2774M40.5903 7.52942L44.2934 10.2774M8.32176 62.9407C8.16596 62.4353 8.85255 61.7033 9.54076 60.9696C10.2161 60.2497 10.893 59.528 10.777 59.0172C10.6625 58.5143 9.74916 58.1598 8.83339 57.8044C7.89089 57.4386 6.94585 57.0719 6.86657 56.5412L8.32176 62.9407ZM44.2934 10.2774C44.5144 10.2443 44.6989 10.1268 44.8478 9.98953M44.2934 10.2774L44.8478 9.98953M44.8478 9.98953C44.9972 9.85182 45.1305 9.67618 45.2509 9.48925M44.8478 9.98953L45.2509 9.48925M45.2509 9.48925C45.4814 9.13116 45.6977 8.67751 45.9019 8.24907M45.2509 9.48925L45.9019 8.24907M45.9019 8.24907L45.9252 8.20017M45.9019 8.24907L45.9252 8.20017M45.9252 8.20017C46.1425 7.74459 46.3468 7.32165 46.5577 7.00665M45.9252 8.20017L46.5577 7.00665M46.5577 7.00665C46.6625 6.85011 46.7589 6.73582 46.8465 6.66153M46.5577 7.00665L46.8465 6.66153M46.8465 6.66153C46.9334 6.58785 46.993 6.56898 47.0295 6.56626M46.8465 6.66153L47.0295 6.56626M47.0295 6.56626C47.063 6.56383 47.1225 6.57291 47.2182 6.63301C47.3147 6.69358 47.4261 6.79249 47.5523 6.93213C47.8061 7.21309 48.0699 7.60158 48.3524 8.02051L48.3724 8.05016C48.641 8.44865 48.9266 8.87223 49.2133 9.19681C49.361 9.36407 49.5201 9.51806 49.6897 9.63209C49.8589 9.7459 50.0597 9.83398 50.2838 9.83398C50.5079 9.83398 50.7087 9.74589 50.8779 9.63208C51.0475 9.51805 51.2066 9.36405 51.3543 9.19679C51.6409 8.87226 51.9264 8.44877 52.1949 8.05036L52.2151 8.02049C52.4975 7.60157 52.7613 7.21309 53.0151 6.93214C53.1413 6.79251 53.2527 6.6936 53.3492 6.63303C53.445 6.57293 53.5046 6.56382 53.5381 6.56627L47.0295 6.56626ZM8.83409 42.1938C9.74962 41.8385 10.6625 41.4842 10.777 40.9814L8.36424 45.2201C7.575 44.5985 6.78852 43.979 6.86657 43.4579C6.94587 42.9266 7.89136 42.5597 8.83409 42.1938Z" stroke="#EAEAEB" stroke-width="0.685995"/>
<path d="M85.9418 58.1374C86.0451 57.6837 86.869 57.364 87.6952 57.0434C88.5461 56.7132 89.3995 56.3821 89.4711 55.9026C89.5414 55.4323 88.8316 54.8731 88.1193 54.312C87.4186 53.7601 86.7155 53.2062 86.7505 52.7334L85.9418 58.1374ZM85.9418 58.1374C85.837 58.5986 86.4482 59.2501 87.0578 59.9001C87.6788 60.5622 88.2982 61.2226 88.1579 61.6783L85.9418 58.1374ZM86.4085 52.7081C86.3929 52.9186 86.4619 53.1119 86.555 53.275C86.6483 53.4386 86.7784 53.5942 86.9201 53.7393C87.1943 54.0201 87.5575 54.3061 87.8971 54.5737L87.9244 54.5952C88.2831 54.8777 88.6129 55.1395 88.8467 55.3847C88.9628 55.5064 89.042 55.6107 89.088 55.6978C89.1336 55.7842 89.1349 55.8311 89.1318 55.8518L89.1318 55.8519C89.1283 55.8753 89.1122 55.9214 89.0432 55.9914C88.9735 56.0622 88.8671 56.1395 88.7205 56.2225C88.4254 56.3897 88.0334 56.5442 87.608 56.7093L87.561 56.7275C87.1625 56.8822 86.738 57.0468 86.3983 57.2311C86.2206 57.3275 86.0508 57.4372 85.9139 57.565C85.7773 57.6923 85.6541 57.8559 85.6074 58.0613L85.6074 58.0614C85.5606 58.2672 85.6001 58.4684 85.6678 58.6435C85.7357 58.819 85.8411 58.9922 85.9596 59.1567C86.1883 59.4745 86.5038 59.8109 86.799 60.1256L86.8246 60.1529C87.1369 60.4859 87.4239 60.7942 87.6183 61.0717C87.7148 61.2095 87.7775 61.3246 87.8099 61.4178C87.842 61.5101 87.8363 61.557 87.8301 61.5774C87.8232 61.5996 87.8004 61.6425 87.7218 61.7011C87.6423 61.7604 87.5256 61.8208 87.3682 61.8808C87.0512 62.0016 86.6404 62.0955 86.1951 62.1949L86.1483 62.2053C85.7303 62.2986 85.2849 62.398 84.9206 62.5297C84.7304 62.5984 84.546 62.6815 84.3914 62.7875C84.2373 62.8932 84.091 63.0365 84.014 63.2327C83.937 63.4288 83.9466 63.6334 83.9876 63.8158C84.0287 63.9987 84.1071 64.1852 84.1995 64.3652C84.3771 64.711 84.6365 65.0886 84.8798 65.4426L84.905 65.4792C85.1634 65.8556 85.4005 66.2041 85.5507 66.5082C85.6252 66.6592 85.6698 66.7828 85.6877 66.88C85.7055 66.9765 85.6928 67.0224 85.6833 67.0421C85.6738 67.0618 85.6456 67.1003 85.5589 67.1465C85.4715 67.1929 85.3469 67.2349 85.1823 67.2705C84.8507 67.3422 84.4303 67.3735 83.9749 67.4054L83.9322 67.4084C83.5033 67.4384 83.0456 67.4704 82.6638 67.5469C82.4654 67.5867 82.2706 67.6416 82.1018 67.7235C81.9335 67.8052 81.7675 67.9253 81.662 68.1077C81.5565 68.2901 81.5352 68.4939 81.5484 68.6804C81.5616 68.8676 81.6112 69.0637 81.6757 69.2555C81.7996 69.6241 81.9998 70.0361 82.1875 70.4223L82.2067 70.4619C82.4061 70.8724 82.5885 71.2522 82.6915 71.5752C82.7427 71.7357 82.7683 71.8645 82.7715 71.9635C82.7747 72.0616 82.7553 72.1055 82.7427 72.1239C82.7302 72.1423 82.6965 72.1763 82.604 72.209C82.5108 72.2419 82.3815 72.2649 82.2134 72.2756C81.875 72.297 81.4547 72.2652 80.9997 72.2287L80.9565 72.2252C80.5281 72.1908 80.0711 72.154 79.6824 72.1727C79.4802 72.1824 79.2793 72.2076 79.1001 72.2635C78.9215 72.3192 78.7394 72.4133 78.6079 72.5781C78.4764 72.7429 78.425 72.9412 78.4102 73.1277C78.3954 73.3148 78.4153 73.5163 78.4505 73.7155C78.5183 74.0986 78.6552 74.536 78.7835 74.946L78.7965 74.9875C78.9328 75.4231 79.0568 75.8257 79.1107 76.1604C79.1375 76.3267 79.1436 76.4579 79.1321 76.5561C79.1207 76.6536 79.095 76.6941 79.0798 76.7104C79.0646 76.7268 79.0261 76.7554 78.9298 76.774C78.8326 76.7928 78.7013 76.7963 78.5336 76.7819C78.1957 76.7529 77.785 76.6591 77.3405 76.5555L77.2991 76.5459C76.8804 76.4482 76.4336 76.3441 76.0461 76.305C75.8447 76.2847 75.6422 76.2798 75.4567 76.3086C75.2716 76.3373 75.0776 76.4035 74.9231 76.547C74.7685 76.6905 74.6881 76.879 74.6458 77.0614C74.6033 77.2443 74.5931 77.4465 74.5985 77.6488C74.6088 78.0377 74.6795 78.4906 74.7458 78.9149L74.7525 78.9579C74.8229 79.4088 74.8859 79.8252 74.8897 80.1642C74.8915 80.3325 74.8782 80.4631 74.8522 80.5586C74.8264 80.6532 74.7949 80.6896 74.7773 80.7037C74.7596 80.7178 74.7171 80.7405 74.6191 80.7446C74.5202 80.7488 74.3899 80.7329 74.2262 80.6937C73.8964 80.615 73.5043 80.4612 73.0802 80.2927L73.0407 80.277C72.6412 80.1183 72.2149 79.9488 71.8374 79.8526C71.6413 79.8026 71.4417 79.7678 71.2539 79.7687C71.0665 79.7697 70.8649 79.8064 70.6907 79.9254C70.5164 80.0443 70.4089 80.2188 70.3398 80.393C70.2706 80.5676 70.2305 80.7661 70.2057 80.967C70.1581 81.3533 70.1609 81.8118 70.1635 82.2414L70.1638 82.2845C70.1665 82.7408 70.1672 83.1619 70.1206 83.4976C70.0975 83.6644 70.0649 83.7916 70.025 83.8821C69.9855 83.9719 69.9489 84.0033 69.9292 84.0147C69.9095 84.0261 69.8642 84.0422 69.7667 84.0317C69.6684 84.0212 69.542 83.986 69.3859 83.923C69.0717 83.796 68.7071 83.5855 68.3129 83.3556L68.2758 83.3339C67.9046 83.1174 67.5085 82.8864 67.1497 82.735C66.9632 82.6562 66.771 82.592 66.5851 82.565C66.3996 82.538 66.1946 82.5443 66.0046 82.6359C65.8146 82.7276 65.6821 82.884 65.5878 83.046C65.4932 83.2084 65.4239 83.3987 65.3694 83.5937C65.2647 83.9684 65.199 84.422 65.1375 84.8469L65.1313 84.89C65.0659 85.3415 65.0036 85.7578 64.9074 86.0828C64.8596 86.2441 64.8084 86.365 64.7554 86.4485C64.7029 86.5313 64.6619 86.557 64.6405 86.5654C64.6192 86.5738 64.5718 86.5829 64.4771 86.558C64.3815 86.5329 64.2617 86.4792 64.117 86.3936C63.8254 86.221 63.4966 85.9582 63.1414 85.6719L63.1079 85.6448C62.7735 85.3752 62.4166 85.0873 62.0845 84.8839C61.9118 84.7781 61.7314 84.6858 61.5515 84.6311C61.372 84.5766 61.1684 84.5522 60.9667 84.6143L60.9666 84.6144C60.7653 84.6764 60.6114 84.8115 60.4945 84.9572C60.3773 85.1034 60.2806 85.281 60.1978 85.4653C60.0393 85.8182 59.9068 86.2541 59.7824 86.6633L59.7681 86.7107C59.6354 87.1471 59.5108 87.5495 59.3663 87.8563C59.2946 88.0087 59.2255 88.1205 59.1602 88.1953C59.0956 88.2693 59.051 88.2888 59.0281 88.294L59.028 88.294C59.0073 88.2987 58.9602 88.3009 58.8705 88.2619C58.7802 88.2226 58.6701 88.1515 58.54 88.0449C58.2779 87.8302 57.992 87.521 57.6834 87.1846L57.6589 87.1579C57.367 86.8396 57.055 86.4995 56.755 86.2474C56.5998 86.117 56.4349 85.9988 56.2649 85.918C56.0953 85.8374 55.8975 85.783 55.6888 85.8143M86.4085 52.7081L11.1063 44.0956C11.1781 43.6162 12.0314 43.285 12.8822 42.9549C13.7084 42.6342 14.5323 42.3145 14.6355 41.8608C14.7403 41.3997 14.1294 40.7484 13.52 40.0987C12.8989 39.4365 12.2794 38.776 12.42 38.3199C12.5622 37.8581 13.4538 37.6591 14.3437 37.4605C15.2096 37.2673 16.0739 37.0744 16.2446 36.6401C16.4156 36.2051 15.9122 35.4726 15.4086 34.7398C14.8928 33.9892 14.3769 33.2384 14.5852 32.8069C14.7935 32.3755 15.7013 32.312 16.6093 32.2485C17.4967 32.1864 18.3842 32.1243 18.6189 31.7188C18.8535 31.3134 18.4651 30.5143 18.0765 29.7149C17.6787 28.8964 17.2806 28.0775 17.5513 27.6809C17.8221 27.2841 18.7291 27.3568 19.6355 27.4295C20.5198 27.5005 21.4037 27.5713 21.6959 27.2061C21.9882 26.8408 21.7229 25.993 21.4574 25.1447C21.1855 24.2758 20.9134 23.4064 21.2403 23.0544C21.5669 22.7026 22.4528 22.9091 23.3389 23.1156C24.205 23.3174 25.0713 23.5193 25.4155 23.1998C25.7596 22.8804 25.6225 22.0023 25.4853 21.1242C25.3449 20.2253 25.2046 19.3264 25.5802 19.0264C25.9558 18.7264 26.8009 19.0622 27.6463 19.3981C28.4726 19.7264 29.2991 20.0547 29.6873 19.7896C30.0755 19.5245 30.0702 18.6359 30.0648 17.7472C30.0593 16.8375 30.0539 15.9278 30.4704 15.6866C30.8869 15.4455 31.6724 15.9037 32.4582 16.3619C33.2261 16.8098 33.9942 17.2578 34.4183 17.0533C34.8422 16.8489 34.9694 15.9697 35.0966 15.0905C35.2269 14.1902 35.3571 13.2899 35.8059 13.1135C36.2546 12.9373 36.9621 13.508 37.6699 14.0789C38.3616 14.6368 39.0536 15.195 39.5043 15.0561C39.9547 14.9172 40.2121 14.0674 40.4695 13.2175C40.7332 12.3472 40.9968 11.4767 41.4678 11.3697C41.9325 11.264 42.5441 11.9307 43.1574 12.5993C43.76 13.2563 44.3644 13.9151 44.8329 13.8452C45.2924 13.7765 45.6726 12.9794 46.0541 12.1797C46.4472 11.3557 46.8416 10.5289 47.3256 10.4926M86.4085 52.7081C86.4237 52.4982 86.5208 52.3183 86.6365 52.1723C86.7527 52.0256 86.9042 51.8919 87.0653 51.7704C87.3733 51.538 87.7682 51.3123 88.139 51.1003L88.1834 51.075C88.5793 50.8485 88.944 50.6374 89.2112 50.4281C89.3438 50.3241 89.4377 50.2317 89.4962 50.1512C89.5541 50.0715 89.5635 50.0232 89.5635 49.9991C89.5635 49.975 89.5541 49.9267 89.4962 49.847C89.4377 49.7665 89.3438 49.6741 89.2112 49.5701C88.944 49.3608 88.5792 49.1497 88.183 48.9233L88.1371 48.8971C87.7666 48.6855 87.3721 48.4601 87.0641 48.2282C86.9028 48.1067 86.7511 47.9732 86.6346 47.8268C86.5185 47.6808 86.4208 47.501 86.405 47.291L86.405 47.2906C86.3895 47.08 86.4584 46.8868 86.5515 46.7235C86.6448 46.5599 86.7749 46.4042 86.9166 46.2591C87.1909 45.9782 87.5541 45.6921 87.8938 45.4245L87.9209 45.4031C88.2796 45.1205 88.6094 44.8587 88.8432 44.6135C88.9594 44.4918 89.0386 44.3875 89.0845 44.3004C89.1302 44.214 89.1315 44.1671 89.1284 44.1464L89.1283 44.1463C89.1249 44.1229 89.1087 44.0768 89.0397 44.0067C88.97 43.936 88.8637 43.8587 88.7171 43.7757C88.4219 43.6085 88.0299 43.454 87.6046 43.2889L87.5575 43.2706C87.159 43.116 86.7345 42.9513 86.3948 42.7671C86.2172 42.6707 86.0474 42.561 85.9104 42.4332C85.7739 42.3058 85.6507 42.1423 85.6039 41.9369L85.6039 41.9368C85.5571 41.731 85.5966 41.5297 85.6644 41.3547C85.7323 41.1792 85.8377 41.006 85.9561 40.8415C86.1848 40.5238 86.5003 40.1876 86.7955 39.8729L86.8212 39.8455C87.1335 39.5125 87.4204 39.2042 87.6148 38.9267C87.7113 38.7889 87.774 38.6737 87.8064 38.5806C87.8385 38.4885 87.833 38.4416 87.8267 38.421M86.4085 52.7081L85.9384 41.8608M55.6888 85.8143C55.6888 85.8142 55.6889 85.8142 55.689 85.8142L55.7396 86.1535L55.6888 85.8143ZM55.6888 85.8143C55.4805 85.8454 55.3082 85.9559 55.1711 86.0823C55.0334 86.2092 54.9113 86.3703 54.802 86.5402C54.5929 86.8649 54.397 87.2757 54.213 87.6615L54.1912 87.7072C53.9947 88.1189 53.8112 88.4984 53.6222 88.7805C53.5284 88.9205 53.4432 89.021 53.3673 89.0855C53.2924 89.149 53.245 89.1621 53.2209 89.164M53.2209 89.164C53.2001 89.1655 53.1536 89.1607 53.0709 89.1088C52.9875 89.0565 52.8894 88.9697 52.7766 88.8448C52.5495 88.5935 52.3129 88.2451 52.0577 87.8665L52.0388 87.8385C51.7971 87.4797 51.5385 87.0961 51.2785 86.8016C51.1443 86.6496 50.9986 86.5083 50.8424 86.4032C50.6865 86.2983 50.4988 86.2153 50.2877 86.2153C50.0766 86.2153 49.8889 86.2983 49.7329 86.4031C49.5766 86.5082 49.4309 86.6495 49.2965 86.8015C49.036 87.0963 48.7768 87.4806 48.5346 87.8397L48.5166 87.8664C48.2612 88.245 48.0245 88.5935 47.7974 88.8449C47.6847 88.9698 47.5866 89.0566 47.5033 89.1089C47.4206 89.1609 47.3745 89.1655 47.3544 89.164C47.3304 89.1622 47.283 89.1494 47.2079 89.0858C47.1321 89.0215 47.0469 88.9212 46.9531 88.7812C46.7642 88.4994 46.5807 88.1201 46.3843 87.7083L46.362 87.6615C46.1782 87.2761 45.9825 86.8657 45.7737 86.5411C45.6644 86.3712 45.5424 86.2101 45.4049 86.083C45.2678 85.9564 45.0956 85.8457 44.8874 85.8143L44.8871 85.8143C44.6783 85.783 44.4805 85.8374 44.3109 85.918C44.1408 85.9988 43.9759 86.1169 43.8206 86.2473C43.5205 86.4995 43.2084 86.8396 42.9165 87.1579L42.892 87.1846C42.5834 87.521 42.2975 87.8302 42.0354 88.0449C41.9052 88.1515 41.7952 88.2226 41.7048 88.2619C41.6152 88.3009 41.5681 88.2987 41.5474 88.294L41.5473 88.294C41.5244 88.2888 41.4797 88.2693 41.4151 88.1953C41.3499 88.1205 41.2809 88.0087 41.2092 87.8563C41.0647 87.5495 40.9402 87.1471 40.8075 86.7107L40.7932 86.6637C40.6689 86.2544 40.5364 85.8183 40.3778 85.4653C40.2949 85.2809 40.1982 85.1034 40.0809 84.9572C39.964 84.8115 39.8101 84.6764 39.6087 84.6143C39.4074 84.5523 39.2041 84.5772 39.0254 84.6317C38.846 84.6864 38.6659 84.7786 38.4933 84.8843C38.1616 85.0874 37.8043 85.3746 37.4693 85.6439L37.4352 85.6713C37.0792 85.9574 36.7494 86.22 36.4573 86.3927C36.3123 86.4785 36.1924 86.5322 36.0967 86.5575C36.0017 86.5825 35.955 86.5733 35.9347 86.5654C35.9145 86.5574 35.874 86.5324 35.8215 86.4494C35.7686 86.3659 35.7174 86.2449 35.6695 86.0834C35.5731 85.7582 35.5102 85.3414 35.4441 84.8897L35.4379 84.8471C35.3757 84.4217 35.3094 83.9678 35.2044 83.593C35.1498 83.3981 35.0805 83.2079 34.9862 83.0458C34.8922 82.8841 34.7601 82.7275 34.5703 82.636C34.3805 82.5444 34.1757 82.5384 33.9907 82.5655C33.8051 82.5926 33.6132 82.6568 33.4267 82.7354C33.0679 82.8867 32.6714 83.1175 32.2998 83.3339L32.2631 83.3553C31.8687 83.5848 31.5036 83.7952 31.1893 83.9222C31.0333 83.9853 30.9069 84.0205 30.8088 84.0311C30.7114 84.0417 30.6669 84.0256 30.6484 84.0148C30.6297 84.004 30.5935 83.9732 30.5541 83.8833C30.5143 83.7927 30.4818 83.6654 30.4587 83.4985C30.4122 83.1625 30.4124 82.741 30.4147 82.2845L30.4149 82.2434C30.417 81.8129 30.4193 81.3534 30.3713 80.9665C30.3464 80.7656 30.3062 80.5672 30.2371 80.3927C30.1681 80.2188 30.0608 80.0443 29.8867 79.9254C29.7127 79.8065 29.511 79.77 29.3239 79.7691C29.1363 79.7683 28.9369 79.8031 28.7407 79.8531C28.3637 79.9492 27.9376 80.1183 27.5382 80.2768L27.4977 80.2928C27.0734 80.4611 26.6809 80.6148 26.351 80.6935C26.1872 80.7326 26.0567 80.7486 25.9578 80.7444C25.8598 80.7403 25.8175 80.7176 25.8001 80.7038C25.7828 80.6899 25.7514 80.6537 25.7257 80.5591C25.6997 80.4636 25.6864 80.333 25.6883 80.1646C25.6921 79.8256 25.7552 79.409 25.8254 78.958L25.832 78.9161C25.8982 78.4913 25.9689 78.0379 25.9791 77.6486C25.9844 77.4463 25.9741 77.2441 25.9316 77.0612C25.8892 76.8788 25.8088 76.6903 25.6542 76.5469C25.4996 76.4035 25.3056 76.3374 25.1206 76.3088C24.9351 76.2801 24.7326 76.2849 24.5312 76.3053C24.1439 76.3444 23.6973 76.4485 23.2787 76.5461L23.2369 76.5559C22.7924 76.6595 22.3817 76.7533 22.0438 76.7822C21.8761 76.7966 21.7448 76.793 21.6477 76.7742C21.5513 76.7556 21.5129 76.7269 21.4976 76.7105C21.4824 76.6941 21.4567 76.6536 21.4453 76.5561C21.4338 76.4579 21.44 76.3267 21.4668 76.1605C21.5209 75.8258 21.645 75.4233 21.7814 74.9878L21.7942 74.947C21.9227 74.5369 22.0598 74.0992 22.1276 73.7159C22.1629 73.5166 22.1828 73.3151 22.1679 73.1279C22.153 72.9412 22.1015 72.7429 21.9699 72.5781C21.8383 72.4132 21.6563 72.319 21.4775 72.2633C21.2983 72.2073 21.0973 72.1821 20.8952 72.1724C20.5064 72.1538 20.0494 72.1906 19.6211 72.2252L19.578 72.2287C19.123 72.2653 18.7029 72.2973 18.3645 72.2759C18.1964 72.2652 18.0671 72.2422 17.9737 72.2092C17.8812 72.1765 17.8472 72.1424 17.8345 72.1237C17.8218 72.1051 17.8024 72.0612 17.8055 71.9632C17.8087 71.8644 17.8343 71.7357 17.8855 71.5754C17.9886 71.2526 18.1712 70.8731 18.3709 70.4629L18.3896 70.4245C18.5777 70.0381 18.7784 69.6257 18.9025 69.2566C18.967 69.0647 19.0166 68.8683 19.0296 68.6809C19.0426 68.494 19.021 68.2901 18.9152 68.1075C18.8095 67.925 18.6435 67.8047 18.475 67.7229C18.306 67.6408 18.111 67.586 17.9125 67.5463C17.5309 67.47 17.0738 67.4385 16.6454 67.409L16.6018 67.4059C16.1466 67.3745 15.7266 67.3436 15.3954 67.272C15.2309 67.2364 15.1065 67.1944 15.0192 67.1478C14.9327 67.1017 14.9041 67.0628 14.8941 67.0422C14.8842 67.0217 14.8716 66.9752 14.8893 66.8789C14.9072 66.7817 14.9518 66.6583 15.0263 66.5075C15.1766 66.2038 15.4139 65.8561 15.6727 65.4804L15.6971 65.4451C15.9409 65.0913 16.2011 64.7137 16.3791 64.3674C16.4716 64.1873 16.55 64.0004 16.591 63.817C16.6319 63.634 16.6409 63.4291 16.5638 63.2327C16.4867 63.0363 16.3407 62.8923 16.1862 62.786C16.0314 62.6795 15.8467 62.596 15.6564 62.5271C15.2905 62.3945 14.8431 62.2951 14.424 62.2019L14.3814 62.1924C13.936 62.0934 13.5255 62.0001 13.2088 61.8798C13.0515 61.82 12.9349 61.7599 12.8556 61.7007C12.7771 61.6422 12.7546 61.5994 12.7478 61.5774L12.7477 61.5773C12.7414 61.5568 12.7357 61.5099 12.7678 61.4175C12.8002 61.3244 12.8628 61.2093 12.9593 61.0714C13.1536 60.7939 13.4405 60.4856 13.7528 60.1527L13.7787 60.125C14.0738 59.8105 14.3891 59.4743 14.6178 59.1567C14.7362 58.9922 14.8416 58.819 14.9095 58.6435C14.9772 58.4684 15.0167 58.2672 14.97 58.0614L14.97 58.0613C14.9232 57.8559 14.8 57.6924 14.6635 57.565C14.5266 57.4372 14.3568 57.3275 14.1791 57.2311C13.8395 57.0468 13.415 56.8821 13.0165 56.7275L12.9695 56.7093C12.5442 56.5442 12.1522 56.3897 11.857 56.2225C11.7104 56.1395 11.604 56.0621 11.5343 55.9914C11.4653 55.9214 11.449 55.8752 11.4455 55.8518M53.2209 89.164C53.2208 89.164 53.2207 89.164 53.2206 89.164L53.2464 89.506M53.2209 89.164C53.2209 89.164 53.221 89.164 53.2211 89.164L53.2464 89.506M11.4455 55.8518C11.4424 55.8311 11.4437 55.7843 11.4893 55.6978C11.5353 55.6108 11.6146 55.5064 11.7307 55.3847C11.9645 55.1395 12.2945 54.8777 12.6532 54.5952L12.6806 54.5736C13.0202 54.3061 13.3834 54.0201 13.6576 53.7393C13.7994 53.5943 13.9295 53.4386 14.0228 53.2751C14.1159 53.1119 14.185 52.9186 14.1694 52.7081C14.1538 52.498 14.0563 52.3181 13.9404 52.172C13.824 52.0255 13.6725 51.892 13.5113 51.7705C13.2038 51.5387 12.8099 51.3136 12.4398 51.1021L12.3935 51.0757C11.9978 50.8494 11.6333 50.6384 11.3664 50.429C11.2339 50.325 11.1402 50.2326 11.0817 50.152C11.0239 50.0723 11.0144 50.0237 11.0144 49.9991C11.0144 49.9746 11.0238 49.926 11.0818 49.8462C11.1403 49.7657 11.234 49.6732 11.3666 49.5692C11.6337 49.3599 11.9983 49.1488 12.3942 48.9226L12.4402 48.8963C12.8104 48.6848 13.2046 48.4597 13.5122 48.2279C13.6733 48.1064 13.8248 47.9729 13.9411 47.8263C14.0568 47.6804 14.1541 47.5005 14.1694 47.2905M11.4455 55.8518C11.4455 55.8518 11.4455 55.8518 11.4455 55.8518L11.1063 55.9026L11.4455 55.8518ZM14.1694 47.2905C14.1694 47.2905 14.1694 47.2905 14.1694 47.2906L13.8273 47.2653L14.1694 47.2899C14.1694 47.2901 14.1694 47.2903 14.1694 47.2905ZM14.1694 47.2905C14.1849 47.08 14.116 46.8867 14.0229 46.7235C13.9296 46.5599 13.7995 46.4042 13.6578 46.2591C13.3834 45.9781 13.0201 45.692 12.6804 45.4243L12.6534 45.4031C12.2947 45.1205 11.9648 44.8587 11.7309 44.6135C11.6147 44.4917 11.5355 44.3874 11.4895 44.3003C11.4438 44.2138 11.4425 44.1669 11.4456 44.1462C11.4491 44.1227 11.4654 44.0766 11.5343 44.0068C11.604 43.936 11.7104 43.8587 11.857 43.7757C12.1522 43.6085 12.5442 43.454 12.9695 43.2889L13.0164 43.2707C13.4149 43.1161 13.8395 42.9514 14.1791 42.7671C14.3568 42.6707 14.5266 42.561 14.6635 42.4332C14.8 42.3058 14.9232 42.1423 14.97 41.9369L14.97 41.9368C15.0167 41.731 14.9772 41.5297 14.9095 41.3547C14.8416 41.1792 14.7362 41.006 14.6178 40.8415C14.3891 40.5239 14.0738 40.1877 13.7787 39.8731L13.7528 39.8455C13.4405 39.5125 13.1536 39.2043 12.9593 38.9267C12.8628 38.7889 12.8002 38.6738 12.7678 38.5807C12.7357 38.4883 12.7414 38.4414 12.7477 38.4209L12.7478 38.4208C12.7546 38.3987 12.7772 38.3558 12.8559 38.297C12.9353 38.2377 13.0521 38.1773 13.2094 38.1174C13.5263 37.9966 13.9371 37.9027 14.3824 37.8033L14.4293 37.7928C14.8473 37.6996 15.2927 37.6002 15.657 37.4685C15.8472 37.3998 16.0316 37.3167 16.1862 37.2107C16.3404 37.1051 16.4867 36.9617 16.5638 36.7656C16.6409 36.5695 16.6314 36.3649 16.5904 36.1825C16.5494 35.9995 16.471 35.813 16.3786 35.633C16.2009 35.287 15.9413 34.9092 15.6979 34.5551L15.673 34.5189C15.4144 34.1426 15.1772 33.794 15.027 33.4899C14.9524 33.3389 14.9078 33.2153 14.8898 33.118C14.8719 33.0215 14.8846 32.9756 14.8941 32.956C14.9036 32.9363 14.9317 32.8978 15.0184 32.8517C15.1057 32.8052 15.2302 32.7633 15.3949 32.7277C15.7265 32.656 16.1469 32.6247 16.6024 32.5928L16.645 32.5898C17.0741 32.5598 17.5318 32.5278 17.9136 32.4513C18.1121 32.4115 18.307 32.3566 18.4758 32.2747C18.6441 32.193 18.8102 32.073 18.9158 31.8906C19.0214 31.7082 19.0427 31.5044 19.0296 31.3178C19.0164 31.1307 18.9668 30.9344 18.9023 30.7427C18.7783 30.374 18.578 29.9619 18.3901 29.5755L18.371 29.5362C18.1716 29.1257 17.9891 28.7459 17.8859 28.4229C17.8347 28.2624 17.8091 28.1336 17.8059 28.0346C17.8027 27.9365 17.8221 27.8927 17.8346 27.8743C17.8472 27.8558 17.881 27.8218 17.9733 27.7891C18.0664 27.7561 18.1955 27.733 18.3633 27.7223C18.7012 27.7007 19.1207 27.7324 19.575 27.7688C19.5898 27.77 19.6047 27.7712 19.6196 27.7724C20.0469 27.8067 20.5026 27.8432 20.8903 27.8247C21.0922 27.815 21.2928 27.7899 21.4718 27.7342C21.6503 27.6787 21.8322 27.5848 21.9638 27.4204C22.0955 27.2558 22.1469 27.0574 22.1617 26.871C22.1765 26.684 22.1566 26.4826 22.1213 26.2834C22.0535 25.9006 21.9166 25.4634 21.7883 25.0534L21.7751 25.0114C21.6388 24.5757 21.5148 24.1729 21.4608 23.838C21.434 23.6717 21.4278 23.5404 21.4393 23.4421C21.4508 23.3446 21.4765 23.3041 21.4916 23.2878C21.5068 23.2714 21.5453 23.2428 21.6416 23.2242C21.7388 23.2054 21.8701 23.2019 22.0379 23.2163C22.3758 23.2453 22.7866 23.3391 23.2312 23.4427L23.2726 23.4523C23.6914 23.5499 24.1383 23.6541 24.5258 23.6932C24.7272 23.7135 24.9297 23.7183 25.1153 23.6896C25.3003 23.6609 25.4943 23.5947 25.6489 23.4512C25.8034 23.3077 25.8838 23.1192 25.9261 22.9368C25.9686 22.7539 25.9788 22.5517 25.9734 22.3494C25.9631 21.9603 25.8923 21.5074 25.826 21.0829L25.8194 21.0402C25.749 20.5894 25.6859 20.1729 25.6821 19.8339C25.6802 19.6656 25.6935 19.535 25.7194 19.4395C25.7452 19.3448 25.7766 19.3085 25.7942 19.2944C25.8118 19.2803 25.8542 19.2577 25.9522 19.2536C26.051 19.2494 26.1813 19.2653 26.3451 19.3045C26.6748 19.3832 27.0669 19.537 27.4911 19.7055L27.5307 19.7212C27.9301 19.88 28.3565 20.0494 28.7339 20.1456C28.9301 20.1956 29.1297 20.2304 29.3175 20.2295C29.5049 20.2285 29.7066 20.1918 29.8808 20.0728C30.055 19.9539 30.1626 19.7794 30.2316 19.6052C30.3008 19.4306 30.341 19.2321 30.3657 19.0312C30.4133 18.6449 30.4105 18.1865 30.4079 17.7569L30.4076 17.7137C30.4049 17.2574 30.4043 16.8363 30.4508 16.5006C30.474 16.3338 30.5066 16.2066 30.5465 16.1161C30.586 16.0263 30.6226 15.9949 30.6423 15.9835C30.6619 15.9721 30.7073 15.956 30.8047 15.9665C30.903 15.977 31.0295 16.0122 31.1855 16.0752C31.4997 16.2022 31.8644 16.4127 32.2586 16.6426L32.2956 16.6642C32.6668 16.8807 33.063 17.1118 33.4219 17.2632C33.6085 17.342 33.8007 17.4061 33.9867 17.4332C34.1722 17.4602 34.3772 17.4539 34.5672 17.3623C34.7573 17.2706 34.8899 17.1142 34.9842 16.9522C35.0788 16.7898 35.1482 16.5995 35.2027 16.4045C35.3074 16.0297 35.373 15.5762 35.4344 15.1513L35.4406 15.1082C35.506 14.6567 35.5682 14.2403 35.6644 13.9154C35.7122 13.7541 35.7634 13.6332 35.8164 13.5497C35.8689 13.4669 35.9099 13.4412 35.9314 13.4328C35.9528 13.4244 36.0002 13.4153 36.095 13.4402C36.1906 13.4653 36.3103 13.519 36.4551 13.6047C36.7466 13.7773 37.0754 14.0401 37.4305 14.3265L37.4638 14.3533C37.7982 14.6231 38.1552 14.911 38.4873 15.1145C38.66 15.2204 38.8404 15.3126 39.0204 15.3672C39.2 15.4217 39.4036 15.446 39.6053 15.3838C39.807 15.3217 39.9616 15.187 40.0793 15.0409C40.1973 14.8945 40.2945 14.7167 40.3776 14.5321C40.5373 14.1773 40.67 13.7389 40.7944 13.3282L40.8071 13.2863C40.9393 12.8498 41.0632 12.4477 41.207 12.1411C41.2784 11.9889 41.3472 11.8772 41.4122 11.8026C41.4765 11.7288 41.521 11.7094 41.5438 11.7042L41.5439 11.7042C41.5646 11.6995 41.6117 11.6973 41.7014 11.7363C41.7917 11.7756 41.9018 11.8467 42.032 11.9533C42.294 12.168 42.5799 12.4772 42.8885 12.8136L42.9131 12.8404C43.205 13.1587 43.5171 13.4989 43.8172 13.751C43.9724 13.8815 44.1373 13.9996 44.3073 14.0805C44.477 14.1611 44.6747 14.2156 44.8835 14.1844L44.8836 14.1844C45.0919 14.1533 45.2642 14.0426 45.4013 13.9161C45.5389 13.7891 45.6609 13.6281 45.7703 13.4582C45.9792 13.1335 46.1751 12.7228 46.3591 12.3371L46.381 12.2911C46.5775 11.8794 46.761 11.4999 46.9499 11.2179C47.0437 11.0779 47.1289 10.9774 47.2048 10.9131C47.2799 10.8493 47.3274 10.8365 47.3512 10.8347L47.3256 10.4926M47.3256 10.4926C47.7994 10.4576 48.3041 11.2065 48.8106 11.9581C49.3093 12.6979 49.8097 13.4404 50.2842 13.4404C50.7592 13.4404 51.2609 12.6966 51.7604 11.9561C52.2669 11.2052 52.7712 10.4576 53.2429 10.4926C53.7272 10.5284 54.1217 11.3554 54.5149 12.1795C54.8963 12.9791 55.2764 13.776 55.7361 13.8452C56.2043 13.9151 56.8084 13.2564 57.4109 12.5996C58.0243 11.9309 58.6359 11.264 59.1006 11.3697C59.5728 11.477 59.8387 12.3518 60.1039 13.2245C60.3618 14.0727 60.6189 14.9188 61.0642 15.0561C61.5154 15.1952 62.2104 14.6356 62.9042 14.0771C63.6116 13.5075 64.3177 12.9391 64.7626 13.1135C65.2083 13.2884 65.3399 14.189 65.4715 15.0897C65.6 15.9697 65.7286 16.8499 66.1502 17.0533C66.5718 17.2567 67.3404 16.8096 68.109 16.3623C68.8959 15.9046 69.6827 15.4467 70.0976 15.6866C70.5122 15.9265 70.5075 16.8359 70.5029 17.7457C70.4983 18.6353 70.4938 19.5251 70.8811 19.7896C71.2683 20.0539 72.0946 19.7261 72.921 19.3982C73.767 19.0625 74.6131 18.7269 74.9883 19.0264C75.3634 19.3258 75.2232 20.2247 75.083 21.1236C74.9461 22.0021 74.8091 22.8806 75.153 23.1998C75.4968 23.519 76.3624 23.3172 77.2283 23.1154C78.1146 22.9088 79.0012 22.7022 79.3282 23.0544C79.6551 23.4064 79.3831 24.2744 79.1111 25.1424C78.8452 25.9907 78.5793 26.8391 78.8725 27.2061C79.1657 27.573 80.0516 27.5016 80.9376 27.4301C81.8445 27.357 82.7515 27.2839 83.0226 27.6809C83.2936 28.0778 82.8958 28.8951 82.4979 29.7127C82.1089 30.5121 81.7197 31.3117 81.9555 31.7188C82.1911 32.1256 83.0774 32.1867 83.9639 32.2479C84.8716 32.3105 85.7794 32.3731 85.9887 32.8069C86.1979 33.2404 85.6822 33.9889 85.1662 34.7377C84.6619 35.4696 84.1575 36.2017 84.3298 36.6401C84.5021 37.0784 85.3692 37.2712 86.2364 37.464C87.1243 37.6615 88.0122 37.8589 88.1544 38.3199M47.3256 10.4926L47.3508 10.8347C47.3717 10.8332 47.4183 10.8379 47.5011 10.8899C47.5846 10.9422 47.6827 11.029 47.7955 11.1538C48.0226 11.4052 48.2592 11.7536 48.5144 12.1322L48.5335 12.1606C48.7752 12.5192 49.0336 12.9027 49.2935 13.1971C49.4277 13.3491 49.5733 13.4904 49.7295 13.5955C49.8855 13.7004 50.0731 13.7834 50.2842 13.7834C50.4953 13.7834 50.683 13.7004 50.839 13.5956C50.9953 13.4905 51.141 13.3492 51.2754 13.1972C51.536 12.9023 51.7952 12.518 52.0374 12.1588L52.0553 12.1323C52.3107 11.7537 52.5475 11.4052 52.7745 11.1538C52.8872 11.0289 52.9853 10.9421 53.0686 10.8897C53.1513 10.8377 53.1975 10.8332 53.2175 10.8347L53.2176 10.8347C53.2415 10.8365 53.2889 10.8493 53.364 10.9129C53.4399 10.9771 53.525 11.0775 53.6188 11.2174C53.8078 11.4993 53.9912 11.8786 54.1877 12.2904L54.2099 12.3369C54.3938 12.7224 54.5896 13.133 54.7985 13.4576C54.9078 13.6275 55.0299 13.7887 55.1674 13.9157C55.3046 14.0423 55.4768 14.153 55.6851 14.1844L55.6855 14.1844C55.8942 14.2156 56.092 14.1611 56.2615 14.0804C56.4315 13.9996 56.5964 13.8814 56.7516 13.751C57.0515 13.4989 57.3634 13.1589 57.6551 12.8407L57.68 12.8136C57.9886 12.4772 58.2744 12.168 58.5365 11.9533C58.6667 11.8467 58.7767 11.7756 58.8671 11.7363C58.9567 11.6973 59.0038 11.6995 59.0245 11.7042L59.0246 11.7042C59.0475 11.7094 59.0922 11.7289 59.1568 11.8029C59.222 11.8777 59.2911 11.9895 59.3628 12.1419C59.5073 12.4487 59.6319 12.8511 59.7646 13.2875L59.779 13.3348C59.9033 13.744 60.0358 14.18 60.1943 14.5329C60.2771 14.7172 60.3738 14.8948 60.4911 15.041C60.6079 15.1867 60.7618 15.3218 60.9631 15.3838C61.1647 15.446 61.3684 15.4217 61.5479 15.3674C61.728 15.3129 61.9086 15.2208 62.0815 15.1152C62.4151 14.9112 62.7739 14.6224 63.1097 14.352L63.1397 14.3278C63.4953 14.0415 63.8245 13.7787 64.116 13.6058C64.2608 13.52 64.3804 13.4662 64.4759 13.4409C64.5705 13.4158 64.6171 13.4249 64.6373 13.4329C64.6575 13.4408 64.6979 13.4658 64.7504 13.5486C64.8032 13.6321 64.8544 13.753 64.9023 13.9145C64.9987 14.2397 65.0615 14.6565 65.1275 15.1083L65.1338 15.151C65.1959 15.5764 65.2622 16.0303 65.3671 16.4051C65.4216 16.6 65.491 16.7902 65.5852 16.9524C65.6792 17.114 65.8113 17.2706 66.0011 17.3622C66.1909 17.4538 66.3957 17.4598 66.5807 17.4327C66.7663 17.4056 66.9583 17.3414 67.1448 17.2628C67.5034 17.1116 67.8998 16.8809 68.2714 16.6647L68.3087 16.643C68.7034 16.4134 69.0687 16.203 69.3832 16.076C69.5394 16.0129 69.666 15.9777 69.7644 15.9671C69.862 15.9565 69.9069 15.9726 69.9258 15.9836C69.9448 15.9945 69.9811 16.0254 70.0205 16.1152C70.0603 16.2057 70.0929 16.3329 70.116 16.4998C70.1627 16.8357 70.1623 17.2571 70.16 17.7136L70.1598 17.756C70.1576 18.1861 70.1552 18.645 70.203 19.0317C70.2279 19.2325 70.2681 19.431 70.3372 19.6055C70.4062 19.7795 70.5136 19.954 70.6877 20.0729C70.8618 20.1917 71.0635 20.2282 71.2506 20.2291C71.4383 20.2299 71.6377 20.1951 71.8339 20.1451C72.211 20.049 72.6372 19.8799 73.0366 19.7213L73.0769 19.7054C73.5012 19.5371 73.8936 19.3834 74.2235 19.3047C74.3873 19.2656 74.5177 19.2496 74.6166 19.2538C74.7146 19.2579 74.7569 19.2806 74.7743 19.2944C74.7916 19.3083 74.823 19.3445 74.8487 19.4391C74.8747 19.5346 74.888 19.6652 74.8861 19.8336C74.8822 20.1726 74.8192 20.5892 74.7489 21.0401L74.7423 21.0825C74.6761 21.5072 74.6054 21.9603 74.5951 22.3495C74.5898 22.5518 74.6 22.754 74.6424 22.9369C74.6847 23.1192 74.7651 23.3078 74.9196 23.4512C75.0742 23.5947 75.2681 23.6608 75.4531 23.6894C75.6387 23.7181 75.8411 23.7133 76.0424 23.6929C76.4296 23.6538 76.8762 23.5497 77.2947 23.4521L77.3369 23.4423C77.7814 23.3387 78.1923 23.2449 78.5302 23.216C78.698 23.2016 78.8294 23.2052 78.9266 23.224C79.023 23.2427 79.0616 23.2713 79.0769 23.2878C79.0921 23.3042 79.1178 23.3447 79.1292 23.4421C79.1407 23.5404 79.1345 23.6715 79.1077 23.8377C79.0536 24.1723 78.9295 24.5748 78.793 25.0103L78.7803 25.051C78.6517 25.4612 78.5145 25.8989 78.4466 26.2823C78.4114 26.4816 78.3915 26.6831 78.4064 26.8703C78.4213 27.0571 78.4729 27.2554 78.6046 27.4202C78.7362 27.585 78.9182 27.6792 79.097 27.7349C79.2763 27.7909 79.4772 27.8161 79.6794 27.8258C80.0682 27.8444 80.5252 27.8076 80.9534 27.773L80.9966 27.7695C81.4514 27.7329 81.8714 27.7009 82.2098 27.7223C82.3778 27.733 82.507 27.756 82.6003 27.789C82.6928 27.8217 82.7266 27.8557 82.7393 27.8743C82.7521 27.8929 82.7714 27.9369 82.7683 28.0349C82.7651 28.1337 82.7394 28.2624 82.6882 28.4228C82.5851 28.7456 82.4025 29.1251 82.2028 29.5353L82.1843 29.5734C81.9962 29.9599 81.7954 30.3724 81.6713 30.7416C81.6068 30.9335 81.5573 31.1299 81.5442 31.3173C81.5313 31.5043 81.5529 31.7081 81.6587 31.8907C81.7644 32.0732 81.9304 32.1935 82.0989 32.2753C82.2679 32.3574 82.4629 32.4122 82.6614 32.4519C83.043 32.5282 83.5001 32.5597 83.9286 32.5892L83.9721 32.5923C84.4273 32.6237 84.8473 32.6546 85.1785 32.7262C85.343 32.7618 85.4674 32.8038 85.5547 32.8504C85.6412 32.8965 85.6698 32.9354 85.6798 32.9559C85.6897 32.9765 85.7023 33.023 85.6845 33.1193C85.6666 33.2165 85.6221 33.3399 85.5475 33.4907C85.3973 33.7944 85.16 34.1421 84.9012 34.5178L84.8769 34.553C84.6332 34.9068 84.3729 35.2844 84.195 35.6309C84.1025 35.811 84.0241 35.9978 83.9832 36.1813C83.9424 36.3644 83.9334 36.5692 84.0106 36.7656C84.0878 36.962 84.2338 37.1059 84.3883 37.2122C84.5432 37.3187 84.7278 37.4022 84.9181 37.4711C85.284 37.6037 85.7313 37.7031 86.1505 37.7963L86.193 37.8058C86.6383 37.9048 87.0487 37.998 87.3655 38.1184C87.5227 38.1781 87.6393 38.2383 87.7187 38.2975C87.7972 38.356 87.8198 38.3988 87.8267 38.421M88.1544 38.3199L87.8266 38.4207C87.8266 38.4208 87.8266 38.4209 87.8267 38.421M88.1544 38.3199C88.2948 38.7759 87.6752 39.4364 87.0542 40.0984C86.4446 40.7483 85.8336 41.3997 85.9384 41.8608M88.1544 38.3199L87.8267 38.421M41.4713 88.6285C41.9359 88.7341 42.5474 88.0676 43.1607 87.3991C43.7634 86.7422 44.3678 86.0834 44.8363 86.1535C45.2957 86.2227 45.6757 87.0193 46.0569 87.8188C46.4501 88.6431 46.8446 89.4702 47.329 89.506C47.8007 89.541 48.305 88.7935 48.8115 88.0426C49.311 87.3021 49.8127 86.5583 50.2877 86.5583C50.7623 86.5583 51.2629 87.3009 51.7616 88.0409C52.2682 88.7924 52.7728 89.5411 53.2464 89.506M41.4713 88.6285L53.2464 89.506M41.4713 88.6285C40.9992 88.5212 40.7334 87.6466 40.4683 86.7741M41.4713 88.6285L40.4683 86.7741M85.9384 41.8608C86.0416 42.3145 86.8655 42.6342 87.6918 42.9548C88.5426 43.285 89.396 43.6161 89.4676 44.0956C89.5379 44.5658 88.8283 45.1249 88.1161 45.686C87.4153 46.2381 86.7121 46.7921 86.7471 47.2653L85.9384 41.8608ZM40.4683 86.7741C40.2105 85.9258 39.9533 85.0794 39.5077 84.9421M40.4683 86.7741L39.5077 84.9421M39.5077 84.9421C39.0612 84.8045 38.3683 85.3614 37.6752 85.9185M39.5077 84.9421L37.6752 85.9185M37.6752 85.9185C36.9653 86.489 36.2552 87.0598 35.8094 86.8846M37.6752 85.9185L35.8094 86.8846M35.8094 86.8846C35.3636 86.7096 35.2319 85.809 35.1002 84.9083M35.8094 86.8846L35.1002 84.9083M35.1002 84.9083C34.9715 84.0284 34.8428 83.1483 34.4212 82.9449M35.1002 84.9083L34.4212 82.9449M34.4212 82.9449C33.9995 82.7414 33.2307 83.1889 32.4622 83.6363M34.4212 82.9449L32.4622 83.6363M32.4622 83.6363C31.6759 84.0939 30.89 84.5514 30.4763 84.3116M32.4622 83.6363L30.4763 84.3116M30.4763 84.3116C30.0629 84.0718 30.0673 83.163 30.0718 82.2537M30.4763 84.3116L30.0718 82.2537M30.0718 82.2537C30.0762 81.3637 30.0806 80.4732 29.6933 80.2086M30.0718 82.2537L29.6933 80.2086M29.6933 80.2086C29.3063 79.9443 28.4801 80.2721 27.6537 80.5999M29.6933 80.2086L27.6537 80.5999M27.6537 80.5999C26.8076 80.9356 25.9613 81.2714 25.5861 80.9718M27.6537 80.5999L25.5861 80.9718M25.5861 80.9718C25.2111 80.6724 25.3511 79.7738 25.4912 78.875M25.5861 80.9718L25.4912 78.875M25.4912 78.875C25.6282 77.9964 25.7651 77.1176 25.4209 76.7984M25.4912 78.875L25.4209 76.7984M25.4209 76.7984C25.0768 76.4792 24.2111 76.681 23.3453 76.8828M25.4209 76.7984L23.3453 76.8828M23.3453 76.8828C22.4592 77.0894 21.573 77.2959 21.2462 76.9438M23.3453 76.8828L21.2462 76.9438M21.2462 76.9438C20.9195 76.5917 21.1914 75.7238 21.4633 74.8558M21.2462 76.9438L21.4633 74.8558M21.4633 74.8558C21.7291 74.0075 21.9948 73.1591 21.7019 72.7921M21.4633 74.8558L21.7019 72.7921M21.7019 72.7921C21.409 72.4252 20.523 72.4966 19.637 72.568M21.7019 72.7921L19.637 72.568M19.637 72.568C18.7299 72.6412 17.8227 72.7143 17.5513 72.3173M19.637 72.568L17.5513 72.3173M17.5513 72.3173C17.28 71.9204 17.6779 71.1028 18.0759 70.2851M17.5513 72.3173L18.0759 70.2851M18.0759 70.2851C18.465 69.4858 18.8541 68.6864 18.6184 68.2794M18.0759 70.2851L18.6184 68.2794M18.6184 68.2794C18.3828 67.8726 17.4965 67.8115 16.61 67.7503M18.6184 68.2794L16.61 67.7503M16.61 67.7503C15.7023 67.6877 14.7945 67.6251 14.5852 67.1913M16.61 67.7503L14.5852 67.1913M14.5852 67.1913C14.376 66.7577 14.8919 66.0091 15.4079 65.2602M14.5852 67.1913L15.4079 65.2602M15.4079 65.2602C15.9122 64.5284 16.4166 63.7964 16.2446 63.3581M15.4079 65.2602L16.2446 63.3581M16.2446 63.3581C16.0726 62.9198 15.2053 62.727 14.338 62.5342M16.2446 63.3581L14.338 62.5342M14.338 62.5342C13.45 62.3367 12.5619 62.1393 12.42 61.6783L14.338 62.5342Z" stroke="#EAEAEB" stroke-width="0.685995"/>
<path d="M40.3913 51.3335C39.5998 50.4809 39.517 49.1953 40.1403 48.2131C41.6427 45.8456 42.9191 43.3405 43.9519 40.7308C46.2735 34.6601 45.4177 29.2272 47.1604 28.928C48.6093 28.6797 48.5923 30.7371 48.6714 32.0664C48.6714 32.0664 49.112 29.5772 49.1911 27.9402C49.3267 25.118 52.1256 24.418 52.1764 28.1773C52.4335 24.418 53.2017 24.085 54.0207 24.0596C54.8398 24.0342 55.4555 25.2365 55.4809 28.5752C55.5064 31.914 54.9161 36.4043 54.9161 36.4043C54.9161 36.4043 57.5032 32.7353 60.9602 34.2311C64.4172 35.7269 64.3212 40.8973 63.601 43.2624C63.4259 43.841 63.1886 44.3377 62.2481 44.2954C61.1607 44.2417 60.6891 43.4148 60.7032 42.1617C60.7286 39.9603 60.3699 38.4928 59.1159 38.425C57.8619 38.3573 55.8509 40.0732 55.8509 44.1684C55.8509 48.2635 56.6982 49.4122 58.0257 49.5138C59.3531 49.6154 60.3163 48.2409 60.7908 46.3585C61.4036 43.9398 62.9655 44.0837 63.5191 44.8429C64.1376 45.6896 63.4118 48.5119 62.4289 50.2052C60.6637 53.2505 57.8223 56.1659 51.2162 54.3483C50.6457 54.9336 50.0477 55.5501 49.4903 56.126C48.2018 57.4573 46.0593 57.4384 44.7987 56.0806L40.3913 51.3335Z" fill="#FFCCB6" stroke="#8D83FF" stroke-width="0.274398"/>
<path d="M44.3393 71.0431C44.352 71.0518 44.3623 71.0634 44.3695 71.0769C44.3766 71.0904 44.3804 71.1053 44.3805 71.1205C44.3806 71.1358 44.3771 71.1508 44.3701 71.1643C44.3631 71.1779 44.353 71.1896 44.3405 71.1986C44.1742 71.3077 44.0147 71.245 43.8326 71.1353C41.6065 69.7939 39.3094 68.6175 36.8963 67.7117C32.6587 66.0999 28.1357 65.3472 23.597 65.4984C23.3216 65.5077 23.0462 65.5215 22.7708 65.5331C22.7225 65.5353 22.6743 65.54 22.6261 65.5394C22.2268 65.5338 22.1545 65.4158 22.348 65.0519C22.9246 63.9678 23.802 63.406 24.9586 63.3396C25.6653 63.2991 26.3602 63.4125 27.0561 63.5191C28.3858 63.7226 29.7159 63.9191 31.0273 64.2407C34.1973 65.0297 37.2249 66.2972 40.003 67.9984C41.4919 68.9026 42.9181 69.9036 44.2723 70.9948C44.2938 71.012 44.3171 71.0272 44.3393 71.0431Z" fill="#EAEAEB"/>
<path d="M44.3393 71.043C44.352 71.0517 44.3623 71.0633 44.3694 71.0768C44.3766 71.0902 44.3804 71.1052 44.3805 71.1204C44.3806 71.1356 44.3771 71.1507 44.3701 71.1642C44.3631 71.1778 44.353 71.1895 44.3405 71.1984C44.1742 71.3076 44.0147 71.2448 43.8326 71.1351C41.6065 69.7938 39.3094 68.6174 36.8962 67.7116C32.6587 66.0998 28.1357 65.3471 23.597 65.4983C23.3216 65.5076 23.0462 65.5213 22.7708 65.533C22.7225 65.5352 22.6743 65.5399 22.6261 65.5392C22.2268 65.5336 22.1545 65.4157 22.348 65.0518C22.9246 63.9677 23.802 63.4059 24.9586 63.3395C25.6653 63.299 26.3602 63.4124 27.0561 63.5189C28.3858 63.7225 29.7159 63.9189 31.0273 64.2406C34.1973 65.0296 37.2249 66.2971 40.003 67.9982C41.4919 68.9024 42.9181 69.9035 44.2723 70.9947C44.2938 71.0119 44.3171 71.0271 44.3393 71.043ZM78.7859 60.662C78.7991 60.6726 78.8096 60.6861 78.8166 60.7015C78.8236 60.7168 78.8268 60.7336 78.8259 60.7504C78.8251 60.7672 78.8202 60.7835 78.8118 60.7981C78.8033 60.8127 78.7915 60.8251 78.7772 60.8344C78.6009 60.941 78.4001 61.0017 78.1935 61.0107C72.2112 61.4813 66.7366 63.6012 61.6082 66.8589C59.6847 68.0808 57.8798 69.486 56.0707 70.8869C56.0299 70.9149 55.9908 70.945 55.9533 70.9772C55.8506 71.0764 55.7862 70.978 55.7276 70.9184C55.6407 70.8303 55.748 70.7887 55.7876 70.7515C56.4095 70.1675 57.0276 69.5784 57.661 69.0089C60.2382 66.6914 62.9622 64.6027 65.9452 62.9205C68.3049 61.5703 70.829 60.5217 73.4567 59.8C74.3175 59.5713 75.2056 59.4579 76.097 59.4628C76.6012 59.4607 77.0937 59.6133 77.5063 59.8996C77.8489 60.1214 78.2035 60.3247 78.5686 60.5084C78.6457 60.5527 78.7185 60.6042 78.7859 60.662Z" fill="#EAEAEB"/>
<path d="M78.7856 60.6622C78.7989 60.6727 78.8094 60.6862 78.8163 60.7016C78.8233 60.7169 78.8265 60.7337 78.8257 60.7505C78.8248 60.7673 78.82 60.7837 78.8115 60.7982C78.8031 60.8128 78.7912 60.8253 78.777 60.8345C78.6007 60.9411 78.3998 61.0018 78.1932 61.0109C72.211 61.4814 66.7364 63.6014 61.6079 66.859C59.6844 68.0809 57.8795 69.4861 56.0705 70.887C56.0297 70.915 55.9905 70.9452 55.9531 70.9774C55.8503 71.0766 55.786 70.9781 55.7273 70.9185C55.6404 70.8304 55.7477 70.7888 55.7873 70.7516C56.4093 70.1676 57.0274 69.5785 57.6608 69.0091C60.238 66.6915 62.962 64.6028 65.9449 62.9207C68.3047 61.5704 70.8287 60.5218 73.4565 59.8001C74.3173 59.5715 75.2053 59.458 76.0967 59.4629C76.601 59.4608 77.0935 59.6134 77.506 59.8997C77.8487 60.1215 78.2033 60.3248 78.5683 60.5085C78.6455 60.5529 78.7182 60.6043 78.7856 60.6622ZM22.5881 61.6462C22.5762 61.6384 22.5662 61.6282 22.5587 61.6163C22.5512 61.6044 22.5464 61.591 22.5447 61.577C22.5429 61.5631 22.5443 61.5489 22.5487 61.5355C22.553 61.5222 22.5602 61.5099 22.5699 61.4995C22.6245 61.447 22.6863 61.4023 22.7536 61.3668C23.2239 61.1069 23.674 60.806 24.1523 60.5628C24.501 60.3844 24.8849 60.2833 25.2772 60.2664C26.6084 60.2115 27.8878 60.5036 29.158 60.8907C33.5115 62.2175 37.4385 64.4558 41.0892 67.29C42.5472 68.422 43.9477 69.6315 45.3114 70.8909C45.3336 70.9115 45.3556 70.9325 45.3776 70.9538C45.387 70.9628 45.3944 70.9736 45.3996 70.9855C45.4047 70.9974 45.4074 71.0102 45.4075 71.0232C45.4076 71.0361 45.4051 71.049 45.4002 71.061C45.3953 71.073 45.388 71.0839 45.3788 71.0931C45.1804 71.2913 45.2293 71.2539 44.9835 71.0649C42.7361 69.3367 40.4327 67.7061 37.9696 66.3458C34.5992 64.4844 31.0757 63.0994 27.3394 62.3655C25.9519 62.0935 24.5478 61.9118 23.1361 61.8214C22.9381 61.8297 22.7436 61.7675 22.5881 61.6462Z" fill="#EAEAEB"/>
<path d="M22.5879 61.6459C22.576 61.6382 22.5659 61.628 22.5584 61.6161C22.5509 61.6041 22.5462 61.5907 22.5444 61.5768C22.5427 61.5628 22.544 61.5487 22.5484 61.5353C22.5527 61.5219 22.56 61.5096 22.5696 61.4993C22.6242 61.4467 22.6861 61.402 22.7534 61.3666C23.2236 61.1067 23.6737 60.8057 24.152 60.5625C24.5007 60.3842 24.8846 60.283 25.277 60.2662C26.6081 60.2113 27.8876 60.5034 29.1577 60.8905C33.5113 62.2172 37.4383 64.4556 41.0889 67.2898C42.547 68.4217 43.9474 69.6313 45.3112 70.8907C45.3334 70.9113 45.3554 70.9323 45.3773 70.9535C45.3867 70.9626 45.3942 70.9734 45.3993 70.9853C45.4044 70.9972 45.4071 71.01 45.4072 71.0229C45.4074 71.0359 45.4049 71.0487 45.4 71.0607C45.3951 71.0727 45.3878 71.0836 45.3786 71.0929C45.1801 71.291 45.229 71.2537 44.9832 71.0647C42.7358 69.3365 40.4325 67.7059 37.9694 66.3455C34.5989 64.4841 31.0755 63.0991 27.3391 62.3653C25.9516 62.0933 24.5475 61.9115 23.1358 61.8211C22.9378 61.8295 22.7433 61.7673 22.5879 61.6459ZM22.104 68.7908C22.379 68.8651 22.6588 68.8197 22.9397 68.7836C26.3941 68.3395 29.8471 68.2656 33.2974 68.7181C36.0645 69.0815 38.7723 69.7971 41.3533 70.8471C41.9014 71.0693 42.4538 71.2801 43.0232 71.5025C43.0656 71.519 43.1048 71.4712 43.0862 71.4267C43.0425 71.3313 42.9741 71.2489 42.888 71.1878C42.1921 70.6341 41.4101 70.2414 40.6419 69.8251C38.398 68.6089 36.0719 67.621 33.6113 67.0128C32.122 66.6407 30.5967 66.4266 29.0613 66.3742C28.0202 66.3407 26.9816 66.2273 25.9372 66.2876C25.0972 66.336 24.2809 66.4933 23.538 66.9552C22.8898 67.3528 22.3714 67.9263 22.0448 68.607C22.0391 68.6185 22.0346 68.6312 22.0292 68.6435C22.0233 68.6579 22.0205 68.6735 22.0211 68.6891C22.0217 68.7046 22.0257 68.7199 22.0327 68.7339C22.0398 68.7478 22.0498 68.7601 22.0621 68.7699C22.0744 68.7797 22.0887 68.7868 22.104 68.7908Z" fill="#EAEAEB"/>
<path d="M22.104 68.7905C22.379 68.8649 22.6588 68.8195 22.9397 68.7834C26.3941 68.3393 29.8471 68.2654 33.2974 68.7179C36.0645 69.0813 38.7723 69.7969 41.3532 70.8469C41.9014 71.0691 42.4538 71.2799 43.0232 71.5023C43.0656 71.5188 43.1048 71.471 43.0862 71.4265C43.0425 71.3311 42.9741 71.2487 42.8879 71.1876C42.1921 70.6339 41.4101 70.2412 40.6419 69.8249C38.398 68.6087 36.0719 67.6208 33.6113 67.0126C32.122 66.6405 30.5967 66.4264 29.0613 66.374C28.0202 66.3405 26.9816 66.2271 25.9372 66.2874C25.0972 66.3358 24.2809 66.4931 23.538 66.955C22.8898 67.3526 22.3714 67.926 22.0448 68.6068C22.0391 68.6183 22.0346 68.631 22.0292 68.6433C22.0233 68.6577 22.0205 68.6733 22.0211 68.6888C22.0217 68.7044 22.0257 68.7197 22.0327 68.7337C22.0398 68.7476 22.0498 68.7599 22.0621 68.7697C22.0744 68.7795 22.0887 68.7866 22.104 68.7905ZM78.4981 69.0975C78.2214 69.1652 77.9428 69.1132 77.6629 69.0702C74.2204 68.5434 70.7702 68.3867 67.31 68.7562C64.5347 69.0532 61.81 69.7036 59.2039 70.6913C58.6504 70.9003 58.093 71.0978 57.5182 71.3066C57.4755 71.3221 57.4374 71.2733 57.4572 71.2292C57.5032 71.1349 57.5736 71.0542 57.6612 70.9951C58.3705 70.4584 59.1619 70.0845 59.9402 69.6867C62.2133 68.5248 64.563 67.5931 67.0381 67.044C68.5361 66.7078 70.0662 66.5304 71.6023 66.5148C72.644 66.5063 73.6851 66.4178 74.7276 66.5031C75.5662 66.5718 76.3784 66.7486 77.1097 67.2281C77.7479 67.6411 78.2522 68.2268 78.562 68.9152C78.5672 68.927 78.5716 68.9396 78.5765 68.9521C78.5822 68.9667 78.5845 68.9823 78.5835 68.9979C78.5826 69.0135 78.5782 69.0286 78.5708 69.0424C78.5634 69.0562 78.553 69.0682 78.5405 69.0777C78.528 69.0872 78.5135 69.094 78.4981 69.0975Z" fill="#EAEAEB"/>
<path d="M78.4985 69.0975C78.2217 69.1651 77.9432 69.1131 77.6632 69.0702C74.2208 68.5434 70.7706 68.3867 67.3103 68.7562C64.535 69.0531 61.8104 69.7036 59.2043 70.6912C58.6508 70.9003 58.0934 71.0977 57.5186 71.3065C57.4759 71.3221 57.4378 71.2732 57.4575 71.2291C57.5036 71.1348 57.5739 71.0541 57.6615 70.9951C58.3708 70.4583 59.1623 70.0845 59.9405 69.6867C62.2136 68.5248 64.5633 67.593 67.0384 67.044C68.5364 66.7077 70.0665 66.5303 71.6027 66.5148C72.6444 66.5063 73.6855 66.4177 74.7279 66.503C75.5665 66.5717 76.3788 66.7485 77.11 67.228C77.7483 67.641 78.2525 68.2268 78.5624 68.9152C78.5676 68.9269 78.5719 68.9396 78.5769 68.9521C78.5825 68.9667 78.5849 68.9823 78.5839 68.9978C78.5829 69.0134 78.5786 69.0286 78.5711 69.0423C78.5637 69.0561 78.5534 69.0682 78.5408 69.0777C78.5283 69.0872 78.5139 69.0939 78.4985 69.0975ZM50.6709 68.9484C50.6689 68.9326 50.6615 68.9179 50.6499 68.9068C50.6382 68.8957 50.623 68.889 50.6069 68.8877C50.0316 68.8746 49.5565 68.582 49.1432 68.1797C49.0601 68.0987 48.9774 68.0172 48.8951 67.9351C45.5264 64.5491 41.7084 61.6295 37.5452 59.2558C35.5084 58.1013 33.7393 57.3567 31.6182 56.4526C31.5333 56.4163 31.1081 56.2845 31.0313 56.311C29.3077 56.9073 27.5841 57.5037 25.8606 58.1002L25.5332 58.213C25.5096 58.2215 25.4882 58.2349 25.4704 58.2524C25.4527 58.2699 25.4389 58.291 25.4302 58.3142C25.4215 58.3375 25.418 58.3623 25.42 58.387C25.4219 58.4117 25.4293 58.4357 25.4416 58.4573C25.5815 58.6944 25.7988 58.7379 26.0055 58.7993C27.9971 59.3909 29.9893 59.9754 31.9324 60.7742C36.7815 62.7616 41.1452 65.7476 44.7319 69.5326C45.657 70.501 46.3669 71.4133 47.1818 72.2864C47.3514 72.467 47.576 72.5883 47.8216 72.6318C48.1622 72.6804 48.5051 72.7111 48.8489 72.724C49.524 72.776 50.2015 72.7927 50.8784 72.7739C50.9076 72.7726 51.5893 72.7717 51.1265 72.6938C51.0623 72.681 51.004 72.648 50.9603 72.5998C50.9167 72.5515 50.8902 72.4905 50.8847 72.426C50.8347 71.2627 50.8576 70.0917 50.6709 68.9484Z" fill="#EAEAEB"/>
<path d="M50.6709 68.9484C50.6689 68.9326 50.6615 68.9179 50.6498 68.9068C50.6382 68.8957 50.623 68.889 50.6069 68.8877C50.0316 68.8746 49.5565 68.582 49.1432 68.1797C49.0601 68.0987 48.9774 68.0172 48.8951 67.9351C45.5264 64.5491 41.7083 61.6295 37.5452 59.2558C35.5084 58.1013 33.7393 57.3567 31.6182 56.4526C31.5333 56.4163 31.1081 56.2845 31.0313 56.311C29.3077 56.9073 27.5841 57.5037 25.8606 58.1002L25.5332 58.213C25.5096 58.2215 25.4882 58.2349 25.4704 58.2524C25.4527 58.2699 25.4389 58.291 25.4302 58.3142C25.4215 58.3375 25.418 58.3623 25.42 58.387C25.4219 58.4117 25.4293 58.4357 25.4416 58.4573C25.5815 58.6944 25.7988 58.7379 26.0055 58.7993C27.9971 59.3909 29.9893 59.9754 31.9324 60.7742C36.7815 62.7616 41.1452 65.7476 44.7319 69.5326C45.657 70.501 46.3669 71.4133 47.1818 72.2864C47.3514 72.467 47.576 72.5883 47.8216 72.6318C48.1622 72.6804 48.5051 72.7111 48.8489 72.724C49.524 72.776 50.2015 72.7927 50.8784 72.7739C50.9076 72.7726 51.5893 72.7717 51.1265 72.6938C51.0623 72.681 51.004 72.648 50.9603 72.5998C50.9167 72.5515 50.8902 72.4905 50.8847 72.426C50.8347 71.2627 50.8576 70.0917 50.6709 68.9484Z" fill="#EAEAEB"/>
<path d="M50.6709 68.9484C50.6689 68.9326 50.6615 68.9179 50.6498 68.9068C50.6382 68.8957 50.623 68.889 50.6069 68.8877C50.0316 68.8746 49.5565 68.582 49.1432 68.1797C49.0601 68.0987 48.9774 68.0172 48.8951 67.9351C45.5264 64.5491 41.7083 61.6295 37.5452 59.2558C35.5084 58.1013 33.7393 57.3567 31.6182 56.4526C31.5333 56.4163 31.1081 56.2845 31.0313 56.311C29.3077 56.9073 27.5841 57.5037 25.8606 58.1002L25.5332 58.213C25.5096 58.2215 25.4882 58.2349 25.4704 58.2524C25.4527 58.2699 25.4389 58.291 25.4302 58.3142C25.4215 58.3375 25.418 58.3623 25.42 58.387C25.4219 58.4117 25.4293 58.4357 25.4416 58.4573C25.5815 58.6944 25.7988 58.7379 26.0055 58.7993C27.9971 59.3909 29.9893 59.9754 31.9324 60.7742C36.7815 62.7616 41.1452 65.7476 44.7319 69.5326C45.657 70.501 46.3669 71.4133 47.1818 72.2864C47.3514 72.467 47.576 72.5883 47.8216 72.6318C48.1622 72.6804 48.5051 72.7111 48.8489 72.724C49.524 72.776 50.2015 72.7927 50.8784 72.7739C50.9076 72.7726 51.5893 72.7717 51.1265 72.6938C51.0623 72.681 51.004 72.648 50.9603 72.5998C50.9167 72.5515 50.8902 72.4905 50.8847 72.426C50.8347 71.2627 50.8576 70.0917 50.6709 68.9484Z" fill="#EAEAEB"/>
<path d="M49.8556 68.8869C49.8132 68.7545 50.2215 68.9003 50.2725 68.8963C50.7737 68.8564 51.3034 68.5659 51.7033 68.1586C51.7846 68.0758 51.8654 67.9925 51.9459 67.9087C55.2369 64.449 58.9877 61.4456 63.0959 58.9804C65.1058 57.781 66.8577 56.9976 68.9577 56.0468C69.0417 56.0087 69.4639 55.8674 69.5412 55.8923C71.2779 56.4502 73.0146 57.0083 74.7513 57.5666L75.0812 57.6721C75.105 57.6801 75.1267 57.6931 75.1449 57.7102C75.1631 57.7273 75.1772 57.7481 75.1865 57.7711C75.1957 57.7942 75.1998 57.8189 75.1984 57.8437C75.1969 57.8684 75.1901 57.8925 75.1783 57.9144C75.0438 58.1545 74.8277 58.2028 74.6223 58.2687C72.6446 58.9042 70.6663 59.5326 68.7418 60.3744C63.939 62.4686 59.6442 65.5503 56.1443 69.4138C55.2874 70.352 54.6232 71.2354 53.8783 72.0844C53.6238 72.3762 53.2706 72.5667 52.8845 72.6207C52.6222 72.6564 52.343 72.7088 52.101 72.7195C51.6548 72.7394 51.2244 72.8116 50.7783 72.7729C50.3955 72.7396 50.0627 72.4887 50.0395 72.1101C49.9735 71.0385 50.1737 69.8832 49.8556 68.8869Z" fill="#EAEAEB"/>
<path d="M49.8556 68.8869C49.8132 68.7545 50.2215 68.9003 50.2725 68.8963C50.7737 68.8564 51.3034 68.5659 51.7033 68.1586C51.7846 68.0758 51.8654 67.9925 51.9459 67.9087C55.2369 64.449 58.9877 61.4456 63.0959 58.9804C65.1058 57.781 66.8577 56.9976 68.9577 56.0468C69.0417 56.0087 69.4639 55.8674 69.5412 55.8923C71.2779 56.4502 73.0146 57.0083 74.7513 57.5666L75.0812 57.6721C75.105 57.6801 75.1267 57.6931 75.1449 57.7102C75.1631 57.7273 75.1772 57.7481 75.1865 57.7711C75.1957 57.7942 75.1998 57.8189 75.1984 57.8437C75.1969 57.8684 75.1901 57.8925 75.1783 57.9144C75.0438 58.1545 74.8277 58.2028 74.6223 58.2687C72.6446 58.9042 70.6663 59.5326 68.7418 60.3744C63.939 62.4686 59.6442 65.5503 56.1443 69.4138C55.2874 70.352 54.6232 71.2354 53.8783 72.0844C53.6238 72.3762 53.2706 72.5667 52.8845 72.6207C52.6222 72.6564 52.343 72.7088 52.101 72.7195C51.6548 72.7394 51.2244 72.8116 50.7783 72.7729C50.3955 72.7396 50.0627 72.4887 50.0395 72.1101C49.9735 71.0385 50.1737 69.8832 49.8556 68.8869Z" fill="#EAEAEB"/>
<path d="M49.8556 68.8869C49.8132 68.7545 50.2215 68.9003 50.2725 68.8963C50.7737 68.8564 51.3034 68.5659 51.7033 68.1586C51.7846 68.0758 51.8654 67.9925 51.9459 67.9087C55.2369 64.449 58.9877 61.4456 63.0959 58.9804C65.1058 57.781 66.8577 56.9976 68.9577 56.0468C69.0417 56.0087 69.4639 55.8674 69.5412 55.8923C71.2779 56.4502 73.0146 57.0083 74.7513 57.5666L75.0812 57.6721C75.105 57.6801 75.1267 57.6931 75.1449 57.7102C75.163 57.7273 75.1772 57.7481 75.1865 57.7711C75.1957 57.7942 75.1998 57.8189 75.1984 57.8437C75.1969 57.8684 75.1901 57.8925 75.1783 57.9144C75.0438 58.1545 74.8277 58.2028 74.6223 58.2687C72.6446 58.9042 70.6663 59.5326 68.7418 60.3744C63.939 62.4686 59.6442 65.5503 56.1443 69.4138C55.2874 70.352 54.6232 71.2354 53.8783 72.0844C53.6238 72.3762 53.2706 72.5667 52.8845 72.6207C52.6222 72.6564 52.343 72.7088 52.101 72.7195C51.6548 72.7394 51.2244 72.8116 50.7783 72.7729C50.3955 72.7396 50.0627 72.4887 50.0395 72.1101C49.9735 71.0385 50.1737 69.8832 49.8556 68.8869ZM56.5141 71.1272C56.5024 71.1201 56.4925 71.1105 56.4851 71.0992C56.4777 71.0878 56.4729 71.075 56.4712 71.0616C56.4695 71.0482 56.4708 71.0346 56.475 71.0217C56.4793 71.0089 56.4864 70.9972 56.4958 70.9874C56.5429 70.937 56.593 70.8895 56.646 70.8452C59.8586 68.2772 63.3245 66.224 67.1432 64.8882C69.1812 64.1819 71.288 63.686 73.4296 63.4087C74.0721 63.3232 74.7092 63.1909 75.3566 63.1493C76.0587 63.1043 76.7501 63.148 77.3938 63.4947C78.0415 63.8436 78.4913 64.3966 78.8033 65.0911C78.8422 65.178 78.8286 65.2137 78.7765 65.2432C78.6259 65.3229 78.455 65.3575 78.2848 65.3426C76.0621 65.2066 73.8312 65.292 71.626 65.5976C67.7904 66.1247 64.1265 67.2936 60.6149 69.0263C59.3303 69.66 58.0871 70.3791 56.8447 71.1002C56.6795 71.196 56.6525 71.2117 56.5141 71.1271V71.1272Z" fill="#EAEAEB"/>
<path d="M56.5139 71.1271C56.5022 71.12 56.4923 71.1104 56.4849 71.099C56.4775 71.0877 56.4727 71.0749 56.471 71.0615C56.4692 71.0481 56.4705 71.0344 56.4748 71.0216C56.4791 71.0088 56.4862 70.997 56.4956 70.9873C56.5427 70.9369 56.5928 70.8894 56.6457 70.845C59.8583 68.2771 63.3242 66.2238 67.1429 64.888C69.181 64.1817 71.2877 63.6859 73.4294 63.4085C74.0718 63.3231 74.7089 63.1908 75.3564 63.1492C76.0584 63.1041 76.7498 63.1479 77.3935 63.4945C78.0413 63.8434 78.491 64.3964 78.803 65.091C78.842 65.1779 78.8284 65.2136 78.7763 65.2431C78.6257 65.3228 78.4548 65.3573 78.2845 65.3425C76.0619 65.2065 73.831 65.2919 71.6257 65.5975C67.7901 66.1245 64.1263 67.2935 60.6146 69.0261C59.3301 69.6599 58.0868 70.3789 56.8444 71.1001C56.6793 71.1958 56.6523 71.2116 56.5139 71.1269V71.1271Z" fill="#EAEAEB"/>
</g>
<defs>
<filter id="filter0_d_1683_33346" x="6.10597" y="6.22339" width="88.3559" height="88.1014" filterUnits="userSpaceOnUse" color-interpolation-filters="sRGB">
<feFlood flood-opacity="0" result="BackgroundImageFix"/>
<feColorMatrix in="SourceAlpha" type="matrix" values="0 0 0 0 0 0 0 0 0 0 0 0 0 0 0 0 0 0 127 0" result="hardAlpha"/>
<feOffset dy="0.274398"/>
<feGaussianBlur stdDeviation="0.137199"/>
<feComposite in2="hardAlpha" operator="out"/>
<feColorMatrix type="matrix" values="0 0 0 0 0 0 0 0 0 0 0 0 0 0 0 0 0 0 0.25 0"/>
<feBlend mode="normal" in2="BackgroundImageFix" result="effect1_dropShadow_1683_33346"/>
<feBlend mode="normal" in="SourceGraphic" in2="effect1_dropShadow_1683_33346" result="shape"/>
</filter>
<clipPath id="clip0_1683_33346">
<rect width="87.8074" height="87.5526" fill="white" transform="translate(6.38037 6.22339)"/>
</clipPath>
</defs>
</svg>
