<svg width="100" height="100" viewBox="0 0 100 100" fill="none" xmlns="http://www.w3.org/2000/svg">
<circle cx="50" cy="50" r="50" fill="#FFECD0"/>
<g clip-path="url(#clip0_1683_33399)">
<path fill-rule="evenodd" clip-rule="evenodd" d="M16.5858 53.7148C16.1758 56.4008 18.7042 62.1898 25.9086 68.7154C33.113 75.2409 34.9641 77.7795 36.7209 80.3788C40.1735 85.4821 44.1048 85.3856 51.765 82.811C59.4251 80.2365 76.0338 72.1365 78.7111 64.5107C80.692 58.8677 61.6823 51.5747 53.8974 49.9892C46.1125 48.4036 18.5196 41.0859 16.5858 53.7148Z" fill="#03AA89"/>
<path fill-rule="evenodd" clip-rule="evenodd" d="M59.1596 49.7318C50.868 47.1399 25.8225 42.6196 19.5462 48.0138C13.2699 53.408 17.7639 61.6379 25.6036 63.6839C33.4432 65.73 45.2027 63.7966 53.4842 65.324C61.7656 66.8514 74.2151 72.8558 78.2903 65.4478C82.3654 58.0397 68.2392 52.5713 59.1596 49.7318Z" fill="#FF737B"/>
<path fill-rule="evenodd" clip-rule="evenodd" d="M22.1699 48.4372C19.751 49.5623 18.595 52.528 19.5333 55.391C20.4716 58.2539 25.9509 63.0887 34.1229 62.5576C42.2948 62.0266 49.6965 61.9202 54.4667 62.6034C59.237 63.2867 71.0665 68.9086 74.5127 65.3265C77.959 61.7444 75.2002 58.2713 69.2052 55.063C65.5349 53.0949 50.9174 48.6587 42.7913 47.7886C36.4946 47.114 26.3112 46.5137 22.1699 48.4372Z" fill="#03AA89"/>
<path fill-rule="evenodd" clip-rule="evenodd" d="M55.223 56.5039C54.7036 57.5399 49.4738 58.5364 48.6679 56.4916C48.2771 55.5014 45.4024 47.6155 44.7213 41.4688C44.3394 37.9869 41.3578 21.693 44.8792 12.9556C45.8442 10.5618 64.612 11.4863 65.1442 15.8693C65.5159 18.9402 59.1709 28.0303 57.3784 34.9693C55.2408 43.2796 56.8042 53.3588 55.223 56.5039Z" fill="#03AA89"/>
<path fill-rule="evenodd" clip-rule="evenodd" d="M49.1617 79.01C49.1617 78.1893 48.2782 79.01 47.1884 79.01C46.0987 79.01 44.5786 78.8082 44.5786 79.6288C44.5786 80.4495 45.7804 82.5995 46.8702 82.5995C47.9599 82.5995 49.1617 79.8306 49.1617 79.01Z" fill="#FF737B"/>
<path fill-rule="evenodd" clip-rule="evenodd" d="M35.3607 66.0134C35.3607 64.7237 33.9718 66.0134 32.2583 66.0134C30.5447 66.0134 28.1538 65.6966 28.1538 66.9863C28.1538 68.2761 32.8464 69.9446 34.5599 69.9446C36.2735 69.9446 35.3607 67.2995 35.3607 66.0134Z" fill="#FF737B"/>
<path fill-rule="evenodd" clip-rule="evenodd" d="M57.3068 70.9649C57.3068 69.7346 55.3896 69.4796 54.1241 69.4796C52.8587 69.4796 49.9229 68.7444 49.9229 69.9747C49.9229 71.2051 47.8936 75.2971 49.1591 75.2971C50.4245 75.2971 57.3068 72.1953 57.3068 70.9649Z" fill="#FF737B"/>
<path fill-rule="evenodd" clip-rule="evenodd" d="M40.7571 76.2867C40.7571 75.1925 39.4636 73.6874 38.3382 73.6874C37.2128 73.6874 36.3013 75.3163 36.3013 76.4105C36.3013 77.5046 37.4674 79.2573 38.5928 79.2573C39.7182 79.2573 40.7571 77.3809 40.7571 76.2867Z" fill="#FF737B"/>
<path fill-rule="evenodd" clip-rule="evenodd" d="M46.1041 66.5087C46.1041 65.4146 44.6833 65.271 43.5579 65.271C43.0177 65.271 42.4996 65.4796 42.1176 65.851C41.7356 66.2224 41.521 66.7262 41.521 67.2514C41.521 68.3456 43.451 69.9745 44.5764 69.9745C45.7018 69.9745 46.1041 67.6029 46.1041 66.5087Z" fill="#FF737B"/>
<path fill-rule="evenodd" clip-rule="evenodd" d="M58.8352 77.2774C58.8352 76.1832 57.5417 75.297 56.4163 75.297C55.2909 75.297 53.8701 76.1832 53.8701 77.2774C53.8701 78.3716 54.6543 80.0005 55.7797 80.0005C56.9052 80.0005 58.8352 78.3716 58.8352 77.2774Z" fill="#FF737B"/>
<path fill-rule="evenodd" clip-rule="evenodd" d="M67.6187 72.6976C67.6187 72.1723 67.4041 71.6686 67.0221 71.2972C66.6401 70.9258 66.122 70.7171 65.5818 70.7171C64.4564 70.7171 62.5264 70.4894 62.5264 71.5836C62.5264 72.6777 64.4564 74.678 65.5818 74.678C66.122 74.678 66.6401 74.4693 67.0221 74.0979C67.4041 73.7265 67.6187 73.2228 67.6187 72.6976Z" fill="#FF737B"/>
</g>
<defs>
<clipPath id="clip0_1683_33399">
<rect width="62.4652" height="72.8761" fill="white" transform="matrix(1 0 0 -1 16.5439 84.5416)"/>
</clipPath>
</defs>
</svg>
