<svg width="14" height="15" viewBox="0 0 14 15" fill="none" xmlns="http://www.w3.org/2000/svg">
<path d="M4.75391 1.25L4.75391 3.78918" stroke="#6D7078" stroke-width="1.16667" stroke-linecap="round"/>
<path d="M9.24023 1.25L9.24023 3.78918" stroke="#6D7078" stroke-width="1.16667" stroke-linecap="round"/>
<path d="M1.09232 11.0246C1.25366 12.464 2.4236 13.6068 3.87032 13.6765C4.87027 13.7247 5.89175 13.7497 7.0004 13.7497C8.10904 13.7497 9.13052 13.7247 10.1305 13.6765C11.5772 13.6068 12.7471 12.464 12.9085 11.0246C13.0171 10.0553 13.1063 9.06151 13.1063 8.04917C13.1063 7.03682 13.0171 6.04304 12.9085 5.07373C12.7471 3.63435 11.5772 2.4915 10.1305 2.42182C9.13052 2.37366 8.10904 2.34863 7.0004 2.34863C5.89175 2.34863 4.87027 2.37366 3.87032 2.42182C2.4236 2.4915 1.25366 3.63435 1.09232 5.07373C0.98367 6.04304 0.894531 7.03682 0.894531 8.04917C0.894531 9.06151 0.98367 10.0553 1.09232 11.0246Z" stroke="#6D7078" stroke-width="1.16667"/>
<path d="M4.13721 6.6543C3.99914 6.6543 3.88721 6.54237 3.88721 6.4043C3.88721 6.26623 3.99914 6.1543 4.13721 6.1543" stroke="#6D7078" stroke-width="1.16667"/>
<path d="M4.13745 6.6543C4.27552 6.6543 4.38745 6.54237 4.38745 6.4043C4.38745 6.26623 4.27552 6.1543 4.13745 6.1543" stroke="#6D7078" stroke-width="1.16667"/>
<path d="M4.13745 9.91992C3.99938 9.91992 3.88745 9.80799 3.88745 9.66992C3.88745 9.53185 3.99938 9.41992 4.13745 9.41992" stroke="#6D7078" stroke-width="1.16667"/>
<path d="M4.1377 9.91992C4.27577 9.91992 4.3877 9.80799 4.3877 9.66992C4.3877 9.53185 4.27577 9.41992 4.1377 9.41992" stroke="#6D7078" stroke-width="1.16667"/>
<path d="M7 6.6543C6.86193 6.6543 6.75 6.54237 6.75 6.4043C6.75 6.26623 6.86193 6.1543 7 6.1543" stroke="#6D7078" stroke-width="1.16667"/>
<path d="M7.00024 6.6543C7.13832 6.6543 7.25024 6.54237 7.25024 6.4043C7.25024 6.26623 7.13832 6.1543 7.00024 6.1543" stroke="#6D7078" stroke-width="1.16667"/>
<path d="M9.8623 6.6543C9.72423 6.6543 9.6123 6.54237 9.6123 6.4043C9.6123 6.26623 9.72423 6.1543 9.8623 6.1543" stroke="#6D7078" stroke-width="1.16667"/>
<path d="M9.86182 6.6543C9.99989 6.6543 10.1118 6.54237 10.1118 6.4043C10.1118 6.26623 9.99989 6.1543 9.86182 6.1543" stroke="#6D7078" stroke-width="1.16667"/>
</svg>
