<svg width="32" height="30" viewBox="0 0 32 30" fill="none" xmlns="http://www.w3.org/2000/svg">
<path d="M3.82503 9.8783C11.7541 7.03532 17.0361 5.16848 19.6711 4.27828C27.2026 1.73728 28.7489 1.32944 29.7055 1.4427C29.9157 1.46811 30.3739 1.59628 30.6368 1.93631C30.8548 2.22256 30.8784 2.57156 30.8806 2.81457C30.8788 3.05679 30.8462 3.60481 30.7511 4.02282C29.6922 8.8012 26.3943 20.2945 24.7948 25.5884C24.1208 27.8288 23.3125 28.4981 22.6254 28.4779C21.1304 28.4343 20.2023 26.9416 18.9361 25.6151C16.9561 23.5388 15.852 22.2648 13.9293 20.2404C11.7079 17.9008 13.4839 17.0359 15.1593 15.4505C15.597 15.0353 23.078 8.83468 23.2913 8.20689C23.3184 8.12842 23.3765 7.82986 23.2485 7.65021C23.1244 7.47064 22.8991 7.49449 22.7348 7.51521C22.5007 7.54463 18.5442 9.88454 10.8537 14.5328C9.72701 15.2284 8.75559 15.5082 7.93556 15.371C7.03666 15.2208 5.37901 14.3827 4.15635 13.6938C2.661 12.8492 1.44496 12.3429 1.70425 11.3018C1.83695 10.7596 2.54521 10.2851 3.82503 9.8783Z" stroke="#AAAEDF" stroke-width="1.60714"/>
</svg>
